STARTFONT 2.3
FONT -FontForge-Roboto Medium-Medium-R-Normal--32-320-72-72-P-181-ISO10646-1
SIZE 32 72 72  2
FONTBOUNDINGBOX 62 40 -24 -8
COMMENT "Generated by fontforge, http://fontforge.sourceforge.net"
COMMENT "Copyright 2011 Google Inc. All Rights Reserved."
STARTPROPERTIES 42
FOUNDRY "FontForge"
FAMILY_NAME "Roboto Medium"
WEIGHT_NAME "Medium"
SLANT "R"
SETWIDTH_NAME "Normal"
ADD_STYLE_NAME ""
PIXEL_SIZE 32
POINT_SIZE 320
RESOLUTION_X 72
RESOLUTION_Y 72
SPACING "P"
AVERAGE_WIDTH 181
CHARSET_REGISTRY "ISO10646"
CHARSET_ENCODING "1"
FONTNAME_REGISTRY ""
CHARSET_COLLECTIONS "ISO8859-2 ISO8859-5 ISO8859-7 ISO8859-9 ISO8859-4 ISO10646-1"
BITS_PER_PIXEL 2
FONT_NAME "Roboto-Medium"
FACE_NAME "Roboto Medium"
COPYRIGHT "Copyright 2011 Google Inc. All Rights Reserved."
FONT_VERSION "2.137; 2017"
FONT_ASCENT 24
FONT_DESCENT 8
UNDERLINE_POSITION -3
UNDERLINE_THICKNESS 2
X_HEIGHT 16
CAP_HEIGHT 22
DEFAULT_CHAR 1
RAW_ASCENT 750
RAW_DESCENT 250
NORM_SPACE 8
RELATIVE_WEIGHT 50
RELATIVE_SETWIDTH 50
SUPERSCRIPT_X 0
SUPERSCRIPT_Y 15
SUPERSCRIPT_SIZE 20
SUBSCRIPT_X 0
SUBSCRIPT_Y 4
SUBSCRIPT_SIZE 20
FIGURE_WIDTH 18
AVG_LOWERCASE_WIDTH 177
AVG_UPPERCASE_WIDTH 212
ENDPROPERTIES
CHARS 1296
STARTCHAR glyph1.dup1
ENCODING 0
SWIDTH 0 0
DWIDTH 0 0
BBX 1 1 0 0
BITMAP
00
ENDCHAR
STARTCHAR uni0002
ENCODING 2
SWIDTH 0 0
DWIDTH 0 0
BBX 1 1 0 0
BITMAP
00
ENDCHAR
STARTCHAR uni000D
ENCODING 13
SWIDTH 249 0
DWIDTH 8 0
BBX 1 1 0 0
BITMAP
00
ENDCHAR
STARTCHAR space
ENCODING 32
SWIDTH 249 0
DWIDTH 8 0
BBX 1 1 0 0
BITMAP
00
ENDCHAR
STARTCHAR exclam
ENCODING 33
SWIDTH 268 0
DWIDTH 9 0
BBX 5 23 2 0
BITMAP
BF40
BF40
BF40
BF40
BF40
BF40
BF40
7F40
7F00
7F00
7F00
7F00
7F00
7F00
7F00
7F00
0000
0000
0000
7E00
BF40
BF40
2E00
ENDCHAR
STARTCHAR quotedbl
ENCODING 34
SWIDTH 324 0
DWIDTH 10 0
BBX 8 8 1 16
BITMAP
7D2F
7D2F
7D2F
7C2F
7C2E
7C2E
7C2E
782D
ENDCHAR
STARTCHAR numbersign
ENCODING 35
SWIDTH 610 0
DWIDTH 20 0
BBX 18 23 1 0
BITMAP
0003E02E00
0003E03E00
0007D03D00
0007D07D00
000BC07C00
000B80BC00
000F80F800
1FFFFFFFF0
1FFFFFFFF0
056F96F950
002F02F000
003E02E000
003E03E000
007D07D000
BFFFFFFF80
BFFFFFFF80
55FD5FD540
00F80F8000
01F40F4000
01F41F4000
02F02F0000
02E02F0000
03E03E0000
ENDCHAR
STARTCHAR dollar
ENCODING 36
SWIDTH 568 0
DWIDTH 18 0
BBX 16 30 1 -3
BITMAP
00015000
0002E000
0002E000
0002E000
002FFE00
01FFFFD0
07FFFFF0
0FF91BF8
1FE003FC
2FD002FD
2FD001FD
1FE00054
0FF40000
0BFE4000
02FFF800
00BFFF80
000BFFE0
00006FF8
000007FD
000002FD
7F4001FE
7F8001FE
3FC002FD
2FF41BFC
0FFFFFF4
02FFFFD0
006FFA00
0003D000
0003D000
0003D000
ENDCHAR
STARTCHAR percent
ENCODING 37
SWIDTH 734 0
DWIDTH 24 0
BBX 21 23 1 0
BITMAP
02FE00000000
1FFFC0000000
3F9BE0024000
7E02F00BC000
7D02F01F4000
7D01F42E0000
7D02F07D0000
7E02F0F80000
3F9BE2F00000
1FFFC7D00000
02FE0F800000
00002F000000
00007D1BF800
0000B87FFE00
0001F4FD6F80
0003E1F40FC0
000BC1F40BC0
001F42F00BC0
003E01F40BC0
00BC01F40BC0
002400FD6F80
0000007FFF00
0000001BF800
ENDCHAR
STARTCHAR ampersand
ENCODING 38
SWIDTH 639 0
DWIDTH 20 0
BBX 19 23 1 0
BITMAP
001BF80000
01FFFF4000
03FFFFD000
07F91FE000
0BF00BE000
0BE007E000
0BF00BE000
07F42FD000
03FDFF4000
01FFFD0000
00BFE00000
01FFE00000
0BFFF407F0
2FE7FD0BE0
3F81FF4BE0
7F407FDFD0
BF001FFFD0
BF400BFF80
7F8002FF40
3FE41BFF40
1FFFFFFFD0
07FFFFEFF0
006FF90BF8
ENDCHAR
STARTCHAR quotesingle
ENCODING 39
SWIDTH 168 0
DWIDTH 5 0
BBX 4 8 1 16
BITMAP
BD
BD
BC
BC
BC
BC
BC
B8
ENDCHAR
STARTCHAR parenleft
ENCODING 40
SWIDTH 348 0
DWIDTH 11 0
BBX 9 32 2 -7
BITMAP
000600
001F40
007F40
01FD00
02F400
07E000
0FD000
1FC000
2F4000
3F4000
7F0000
BE0000
BE0000
FE0000
FD0000
FD0000
FD0000
FE0000
BE0000
BE0000
BE0000
7F0000
3F4000
2F4000
1F8000
0FD000
07E000
02F400
01FC00
007F00
001F40
000600
ENDCHAR
STARTCHAR parenright
ENCODING 41
SWIDTH 352 0
DWIDTH 11 0
BBX 10 32 0 -7
BITMAP
240000
3E0000
2F8000
0FD000
07F000
02F800
00FC00
00BE00
007F00
003F40
003F80
002F80
002FC0
001FC0
001FD0
001FD0
001FD0
001FC0
001FC0
002FC0
002F80
002F80
003F40
007F00
00BE00
00FD00
02F800
07F000
0FD000
2F8000
7E0000
240000
ENDCHAR
STARTCHAR asterisk
ENCODING 42
SWIDTH 441 0
DWIDTH 14 0
BBX 14 13 0 10
BITMAP
001F8000
001F4000
000F4000
100F4040
3E4F4BD0
7FFFFFE0
1BFFFE90
007FD000
00BFE000
01FAF400
07F0FD00
0BD07F00
02802800
ENDCHAR
STARTCHAR plus
ENCODING 43
SWIDTH 557 0
DWIDTH 18 0
BBX 16 18 1 2
BITMAP
00055000
000FE000
000FE000
000FE000
000FE000
000FE000
000FE000
FFFFFFFE
FFFFFFFE
FFFFFFFE
555FF555
000FE000
000FE000
000FE000
000FE000
000FE000
000FE000
00055000
ENDCHAR
STARTCHAR comma
ENCODING 44
SWIDTH 219 0
DWIDTH 7 0
BBX 6 9 0 -5
BITMAP
0A90
0FD0
0FD0
0FD0
0FD0
1FC0
2F80
7F00
2C00
ENDCHAR
STARTCHAR hyphen
ENCODING 45
SWIDTH 328 0
DWIDTH 11 0
BBX 9 3 1 8
BITMAP
FFFF40
FFFF40
FFFF40
ENDCHAR
STARTCHAR period
ENCODING 46
SWIDTH 279 0
DWIDTH 9 0
BBX 5 4 2 0
BITMAP
7E00
BF40
BF40
7E00
ENDCHAR
STARTCHAR slash
ENCODING 47
SWIDTH 395 0
DWIDTH 13 0
BBX 12 25 0 -2
BITMAP
00007E
0000BD
0000FC
0001F8
0002F4
0003F0
0007E0
000BD0
000FC0
001F80
002F40
003F00
007D00
00FC00
01F800
02F400
03F000
07E000
0BD000
0FC000
1F8000
2F4000
3F0000
7E0000
BD0000
ENDCHAR
STARTCHAR zero
ENCODING 48
SWIDTH 568 0
DWIDTH 18 0
BBX 16 23 1 0
BITMAP
006FF900
02FFFF80
0BFFFFE0
1FF41FF4
2FD007F8
3FC002FC
3F8001FD
7F4001FD
7F4001FD
7F4001FE
7F4001FE
7F4001FE
7F4001FE
7F4001FE
7F4001FD
7F8001FD
3F8001FD
3FC002FC
2FD007F8
0FF41FF4
07FFFFE0
02FFFF80
006FF900
ENDCHAR
STARTCHAR one
ENCODING 49
SWIDTH 568 0
DWIDTH 18 0
BBX 10 23 2 0
BITMAP
0001B0
006FF0
1BFFF0
7FFFF0
7FEFF0
790BF0
000BF0
000BF0
000BF0
000BF0
000BF0
000BF0
000BF0
000BF0
000BF0
000BF0
000BF0
000BF0
000BF0
000BF0
000BF0
000BF0
000BF0
ENDCHAR
STARTCHAR two
ENCODING 50
SWIDTH 568 0
DWIDTH 18 0
BBX 16 23 1 0
BITMAP
006FF900
02FFFF80
0FFFFFF0
2FE41FF8
7F8007FC
BF4003FC
BF0002FC
550002FC
000003F8
00000BF4
00001FE0
00007FC0
0000FF40
0003FD00
000BF800
002FE000
00BF8000
02FE0000
0BF80000
1FE00000
7FFFFFFF
7FFFFFFF
7FFFFFFF
ENDCHAR
STARTCHAR three
ENCODING 51
SWIDTH 568 0
DWIDTH 18 0
BBX 16 23 1 0
BITMAP
006FF900
07FFFF80
1FFFFFE0
2FE41FF4
7F8007F8
7F4003FC
150002FC
000003FC
000007F4
00002FF0
003FFF80
003FFF00
003FFFD0
00001FF4
000003FC
000002FD
550001FD
BF4002FD
7F8003FC
3FE41FF8
1FFFFFF0
07FFFF80
006FF900
ENDCHAR
STARTCHAR four
ENCODING 52
SWIDTH 568 0
DWIDTH 18 0
BBX 17 23 1 0
BITMAP
00002FE000
00007FE000
0000FFE000
0002FFE000
0007FFE000
000BEFE000
001FDFE000
003F5FE000
00BE1FE000
01FD1FE000
03F81FE000
0BF01FE000
1FD01FE000
2F801FE000
7F001FE000
FFFFFFFF40
FFFFFFFF40
FFFFFFFF40
00001FE000
00001FE000
00001FE000
00001FE000
00001FE000
ENDCHAR
STARTCHAR five
ENCODING 53
SWIDTH 568 0
DWIDTH 18 0
BBX 15 23 2 0
BITMAP
0FFFFFF4
1FFFFFF4
1FFFFFF4
1FD55550
2FC00000
2FC00000
2F800000
3F800000
3FABF900
3FFFFF40
3FFFFFD0
2F906FF0
01000BF4
000007F8
000003FC
000003FC
550003FC
FF0007F8
BF400BF4
7FE06FF0
1FFFFFD0
07FFFF40
00AFE400
ENDCHAR
STARTCHAR six
ENCODING 54
SWIDTH 568 0
DWIDTH 18 0
BBX 16 23 1 0
BITMAP
00016F80
001BFF80
007FFF80
01FFE500
03FE0000
0BF40000
0FE00000
1FD00000
2FC6FE40
3FEFFFD0
3FFFFFF4
3FF91BFC
3FD002FD
7F8001FE
3F8000FE
3F8000FF
3F8000FE
2FC001FE
1FE002FD
0BF91BF8
03FFFFF4
00BFFFD0
001BF900
ENDCHAR
STARTCHAR seven
ENCODING 55
SWIDTH 568 0
DWIDTH 18 0
BBX 16 23 1 0
BITMAP
FFFFFFFF
FFFFFFFF
FFFFFFFE
000001FD
000002F8
000007F4
00000BF0
00001FD0
00002FC0
00003F80
0000BF40
0000FE00
0001FD00
0003FC00
0007F400
000BF000
001FE000
002FC000
007F8000
00BF4000
00FF0000
02FD0000
03FC0000
ENDCHAR
STARTCHAR eight
ENCODING 56
SWIDTH 568 0
DWIDTH 18 0
BBX 16 23 1 0
BITMAP
006FF900
02FFFF80
0BFFFFE0
1FF41FF4
2FD007F8
2FC003FC
2FC002FC
2FC003FC
1FD007F8
0FF41FF0
03FFFFD0
00FFFF40
07FFFFD0
1FF41FF4
2FC003FC
7F8001FD
7F4001FD
7F8001FD
3FC002FD
2FF41BFC
1FFFFFF4
07FFFFD0
006FF900
ENDCHAR
STARTCHAR nine
ENCODING 57
SWIDTH 568 0
DWIDTH 18 0
BBX 16 23 1 0
BITMAP
006FE400
02FFFF40
0BFFFFD0
1FF42FF0
3FC00BF4
7F8003F8
7F4002FC
BF4002FC
7F4002FD
7F8002FD
3FC003FD
2FF41FFD
0FFFFFFC
07FFFAFC
00AF92FC
000003F8
000007F4
00000FF0
00007FD0
0016FF80
01FFFE00
01FFF400
01FA4000
ENDCHAR
STARTCHAR colon
ENCODING 58
SWIDTH 265 0
DWIDTH 8 0
BBX 5 17 2 0
BITMAP
7E00
FF40
FF40
7E00
0000
0000
0000
0000
0000
0000
0000
0000
0000
7E00
FF40
FF40
7E00
ENDCHAR
STARTCHAR semicolon
ENCODING 59
SWIDTH 237 0
DWIDTH 8 0
BBX 5 22 1 -5
BITMAP
2F80
7FC0
7FC0
2F40
0000
0000
0000
0000
0000
0000
0000
0000
0000
1A40
2F80
2F80
2F80
2F80
3F40
BE00
FD00
7400
ENDCHAR
STARTCHAR less
ENCODING 60
SWIDTH 508 0
DWIDTH 16 0
BBX 13 15 1 2
BITMAP
00000180
00001FC0
0002FFC0
006FFFC0
06FFF900
7FFF9000
FFE40000
FF800000
FFF90000
2FFFD000
01FFFE40
001BFFC0
0001BFC0
00000BC0
00000040
ENDCHAR
STARTCHAR equal
ENCODING 61
SWIDTH 559 0
DWIDTH 18 0
BBX 14 10 2 6
BITMAP
BFFFFFE0
BFFFFFE0
BFFFFFE0
00000000
00000000
00000000
00000000
BFFFFFE0
BFFFFFE0
BFFFFFE0
ENDCHAR
STARTCHAR greater
ENCODING 62
SWIDTH 520 0
DWIDTH 17 0
BBX 14 15 2 2
BITMAP
90000000
FD000000
FFE40000
FFFE4000
1BFFF400
006FFF80
0001FFE0
00007FE0
000BFFD0
01BFFE40
6FFFE000
FFFD0000
FF900000
F8000000
40000000
ENDCHAR
STARTCHAR question
ENCODING 63
SWIDTH 486 0
DWIDTH 16 0
BBX 14 23 1 0
BITMAP
01BFA400
1FFFFD00
3FFFFF40
BFD5BFC0
FF002FD0
FE002FD0
00001FD0
00002FC0
00007F80
0001FF00
0007FD00
001FF400
003FD000
007F8000
007F4000
007F0000
00000000
00000000
00000000
007E0000
00BF4000
00BF4000
006E0000
ENDCHAR
STARTCHAR at
ENCODING 64
SWIDTH 894 0
DWIDTH 29 0
BBX 27 29 1 -7
BITMAP
00001AFFA40000
0001BFFFFF4000
000BFE55AFE000
002FD00002FC00
00BE0000007E00
02F80000001F40
03F00000000BC0
0BD001BF9007D0
0F8007FFF802E0
1F401FE6FC02F0
2F003F40FC01F0
3E00BE00F801F0
7E00FC00F801F4
7D01F801F801F4
7D01F801F401F0
7D02F401F401F0
7D02F402F402E0
7D02F803F403D0
7E01FC0BF40BC0
3E00FFAFFD6F40
2F007FFCBFFE00
1F401BE02FE400
0FC00000000000
0BE00000000000
03F80000000000
01FE4000100000
007FF956F40000
000BFFFFF80000
00006BFE900000
ENDCHAR
STARTCHAR A
ENCODING 65
SWIDTH 665 0
DWIDTH 21 0
BBX 21 23 0 0
BITMAP
00007F800000
0000BFC00000
0000FFD00000
0001FFE00000
0002FFF00000
0007FBF40000
000BF2FC0000
000FE1FD0000
001FD0FE0000
002FC0BF0000
003F807F4000
007F403F8000
00BF002FC000
01FE001FD000
02FFFFFFF000
03FFFFFFF400
07FFFFFFF800
0BF55557FC00
0FE00002FD00
1FD00001FE00
2FD00000FF00
3FC00000BF40
BF8000007FC0
ENDCHAR
STARTCHAR B
ENCODING 66
SWIDTH 630 0
DWIDTH 20 0
BBX 17 23 2 0
BITMAP
BFFFFA4000
BFFFFFE000
BFFFFFF800
BF555BFD00
BF4002FE00
BF4000FF00
BF4000FF00
BF4000FF00
BF4001FE00
BF401BFC00
BFFFFFE000
BFFFFFD000
BFFFFFF800
BF4006FE00
BF4000FF40
BF4000BF40
BF40007F80
BF4000BF40
BF4000FF40
BF4017FF00
BFFFFFFD00
BFFFFFF400
BFFFFE4000
ENDCHAR
STARTCHAR C
ENCODING 67
SWIDTH 652 0
DWIDTH 21 0
BBX 19 23 1 0
BITMAP
0006FF9000
007FFFFD00
01FFFFFF40
07FE55BFD0
0FF8002FE0
1FE0000FF0
2FD0000BF4
3FC00006A4
7F80000000
7F80000000
7F80000000
7F80000000
7F80000000
7F80000000
7F80000000
3FC00006A4
3FD0000BF4
1FE0000FF4
0FF4002FE0
07FE55BFD0
02FFFFFF40
007FFFFD00
0006FF9000
ENDCHAR
STARTCHAR D
ENCODING 68
SWIDTH 653 0
DWIDTH 21 0
BBX 18 23 2 0
BITMAP
BFFFE40000
BFFFFF8000
BFFFFFE000
BF556FF800
BF4003FE00
BF4000FF00
BF4000BF80
BF40003FC0
BF40003FC0
BF40002FD0
BF40002FD0
BF40002FD0
BF40002FD0
BF40002FD0
BF40003FC0
BF40003FC0
BF4000BF80
BF4001FF00
BF4007FE00
BF416FF800
BFFFFFE000
BFFFFF8000
BFFFE40000
ENDCHAR
STARTCHAR E
ENCODING 69
SWIDTH 565 0
DWIDTH 18 0
BBX 16 23 2 0
BITMAP
BFFFFFFC
BFFFFFFC
BFFFFFFC
BF555554
BF400000
BF400000
BF400000
BF400000
BF400000
BF400000
BFFFFFE0
BFFFFFE0
BFFFFFE0
BF400000
BF400000
BF400000
BF400000
BF400000
BF400000
BF400000
BFFFFFFD
BFFFFFFD
BFFFFFFD
ENDCHAR
STARTCHAR F
ENCODING 70
SWIDTH 549 0
DWIDTH 18 0
BBX 15 23 2 0
BITMAP
BFFFFFF8
BFFFFFF8
BFFFFFF8
BF555550
BF400000
BF400000
BF400000
BF400000
BF400000
BF400000
BFFFFFD0
BFFFFFD0
BFFFFFD0
BF400000
BF400000
BF400000
BF400000
BF400000
BF400000
BF400000
BF400000
BF400000
BF400000
ENDCHAR
STARTCHAR G
ENCODING 71
SWIDTH 680 0
DWIDTH 22 0
BBX 19 23 1 0
BITMAP
0006FF9000
007FFFFD00
01FFFFFF80
07FE55BFD0
0FF8001FF0
1FE0000BF4
2FD00007F8
3FC0000154
7F80000000
7F80000000
7F80000000
7F800FFFF8
7F800FFFF8
7F800FFFF8
7F800007F8
3FC00007F8
2FD00007F8
1FF00007F8
0FF80007F8
07FF956FF8
01FFFFFFF0
006FFFFF80
0006FFA400
ENDCHAR
STARTCHAR H
ENCODING 72
SWIDTH 710 0
DWIDTH 23 0
BBX 19 23 2 0
BITMAP
BF40000BF4
BF40000BF4
BF40000BF4
BF40000BF4
BF40000BF4
BF40000BF4
BF40000BF4
BF40000BF4
BF40000BF4
BF40000BF4
BFFFFFFFF4
BFFFFFFFF4
BFFFFFFFF4
BF55555BF4
BF40000BF4
BF40000BF4
BF40000BF4
BF40000BF4
BF40000BF4
BF40000BF4
BF40000BF4
BF40000BF4
BF40000BF4
ENDCHAR
STARTCHAR I
ENCODING 73
SWIDTH 282 0
DWIDTH 9 0
BBX 5 23 2 0
BITMAP
7F40
7F40
7F40
7F40
7F40
7F40
7F40
7F40
7F40
7F40
7F40
7F40
7F40
7F40
7F40
7F40
7F40
7F40
7F40
7F40
7F40
7F40
7F40
ENDCHAR
STARTCHAR J
ENCODING 74
SWIDTH 555 0
DWIDTH 18 0
BBX 16 23 0 0
BITMAP
000001FE
000001FE
000001FE
000001FE
000001FE
000001FE
000001FE
000001FE
000001FE
000001FE
000001FE
000001FE
000001FE
000001FE
000001FE
000001FE
6A8001FE
7F8002FD
3FD007FC
2FF55FF8
0FFFFFF0
02FFFF80
006FF900
ENDCHAR
STARTCHAR K
ENCODING 75
SWIDTH 630 0
DWIDTH 20 0
BBX 18 23 2 0
BITMAP
BF40007FD0
BF4001FF80
BF4003FE00
BF400BFC00
BF402FF400
BF407FD000
BF41FF4000
BF43FE0000
BF4FF80000
BF6FF00000
BFBFE00000
BFFFF40000
BFFFFC0000
BFF6FE0000
BFE1FF4000
BF807FD000
BF402FE000
BF400FF800
BF4007FD00
BF4002FF00
BF4000FF80
BF40007FD0
BF40002FF0
ENDCHAR
STARTCHAR L
ENCODING 76
SWIDTH 541 0
DWIDTH 17 0
BBX 15 23 2 0
BITMAP
BF400000
BF400000
BF400000
BF400000
BF400000
BF400000
BF400000
BF400000
BF400000
BF400000
BF400000
BF400000
BF400000
BF400000
BF400000
BF400000
BF400000
BF400000
BF400000
BF400000
BFFFFFF8
BFFFFFF8
BFFFFFF8
ENDCHAR
STARTCHAR M
ENCODING 77
SWIDTH 875 0
DWIDTH 28 0
BBX 24 23 2 0
BITMAP
BFE000000BFE
BFF000000FFE
BFF400001FFE
BFF800002FFE
BFFC00003FFE
BFFD00007FFE
BFBF0000FEFE
BF7F4001FDFE
BF3F8002FCFE
BF2FC003F8FE
BF1FD007F0FE
BF0BE00BE0FE
BF07F00FD1FE
BF43F41FC1FE
BF42FC3F81FE
BF41FD7F41FE
BF40FEBF01FE
BF40BFFD01FE
BF403FFC01FE
BF402FF801FE
BF401FF401FE
BF400FF001FE
BF400BE001FE
ENDCHAR
STARTCHAR N
ENCODING 78
SWIDTH 709 0
DWIDTH 23 0
BBX 19 23 2 0
BITMAP
BF80000BF4
BFD0000BF4
BFE0000BF4
BFF4000BF4
BFFC000BF4
BFFE000BF4
BFFF400BF4
BFBFC00BF4
BF6FE00BF4
BF4FF40BF4
BF47F80BF4
BF42FD0BF4
BF40FF0BF4
BF40BF8BF4
BF403FDBF4
BF401FFBF4
BF400BFFF4
BF4003FFF4
BF4001FFF4
BF4000BFF4
BF40007FF4
BF40002FF4
BF40000FF4
ENDCHAR
STARTCHAR O
ENCODING 79
SWIDTH 690 0
DWIDTH 22 0
BBX 20 23 1 0
BITMAP
0006FF9000
007FFFFD00
01FFFFFF40
07FF95FFD0
0FF8002FF0
1FF0000BF4
2FD00007F8
3FC00003FC
7F800002FD
7F800002FD
7F800002FD
7F800001FD
7F800002FD
7F800002FD
7F800002FD
3FC00003FC
2FD00007F8
1FF0000BF4
0FF8002FF0
07FF55BFD0
01FFFFFF40
007FFFFD00
0006FF9000
ENDCHAR
STARTCHAR P
ENCODING 80
SWIDTH 639 0
DWIDTH 20 0
BBX 18 23 2 0
BITMAP
BFFFFE4000
BFFFFFF400
BFFFFFFE00
BF5556FF40
BF4000BF80
BF40003FC0
BF40002FD0
BF40002FD0
BF40003FD0
BF40007FC0
BF4006FF80
BFFFFFFE00
BFFFFFF800
BFFFFF9000
BF55400000
BF40000000
BF40000000
BF40000000
BF40000000
BF40000000
BF40000000
BF40000000
BF40000000
ENDCHAR
STARTCHAR Q
ENCODING 81
SWIDTH 690 0
DWIDTH 22 0
BBX 20 27 1 -4
BITMAP
0006FF9000
007FFFFD00
01FFFFFF40
07FF56FFD0
0FF8002FF0
1FE0000FF4
3FD00007F8
3FC00003FC
7F800002FD
7F800002FD
7F400002FD
BF400002FD
7F400002FD
7F800002FD
7F800002FD
3FC00003FC
3FD00007F8
1FE0000BF4
0FF8002FE0
07FF55FFD0
01FFFFFF40
007FFFFE00
0006FFFFD0
0000007FF4
0000000BFC
00000002F4
0000000040
ENDCHAR
STARTCHAR R
ENCODING 82
SWIDTH 624 0
DWIDTH 20 0
BBX 18 23 2 0
BITMAP
BFFFFA4000
BFFFFFE000
BFFFFFFC00
BF555BFE00
BF4001FF00
BF4000BF40
BF40007F40
BF40007F40
BF4000BF40
BF4001FF00
BF4007FE00
BFFFFFF800
BFFFFFE000
BFFFFF8000
BF557FC000
BF402FE000
BF400FF000
BF400BF800
BF4003FD00
BF4002FE00
BF4000FF40
BF4000BF80
BF40003FD0
ENDCHAR
STARTCHAR S
ENCODING 83
SWIDTH 603 0
DWIDTH 19 0
BBX 17 23 1 0
BITMAP
001BFE4000
02FFFFF400
0BFFFFFD00
1FF956FF40
3FD000BF80
3FC0003FC0
3FC0002FC0
3FD0000000
2FF4000000
0FFF900000
03FFFE4000
00BFFFE000
0006FFFD00
00001BFF00
000001FF80
0000003FC0
BF00003FC0
BF40003FC0
7FC0007FC0
2FF906FF80
0BFFFFFE00
02FFFFF800
001BFE9000
ENDCHAR
STARTCHAR T
ENCODING 84
SWIDTH 606 0
DWIDTH 19 0
BBX 19 23 0 0
BITMAP
7FFFFFFFF8
7FFFFFFFF8
7FFFFFFFF8
1555FE5550
0001FE0000
0001FE0000
0001FE0000
0001FE0000
0001FE0000
0001FE0000
0001FE0000
0001FE0000
0001FE0000
0001FE0000
0001FE0000
0001FE0000
0001FE0000
0001FE0000
0001FE0000
0001FE0000
0001FE0000
0001FE0000
0001FE0000
ENDCHAR
STARTCHAR U
ENCODING 85
SWIDTH 651 0
DWIDTH 21 0
BBX 17 23 2 0
BITMAP
FF00003FC0
FF00003FC0
FF00003FC0
FF00003FC0
FF00003FC0
FF00003FC0
FF00003FC0
FF00003FC0
FF00003FC0
FF00003FC0
FF00003FC0
FF00003FC0
FF00003FC0
FF00003FC0
FF00003FC0
FF00003FC0
FF00003FC0
BF40007F80
7FC000FF40
3FF55BFE00
1FFFFFFC00
02FFFFE000
006FFA4000
ENDCHAR
STARTCHAR V
ENCODING 86
SWIDTH 646 0
DWIDTH 21 0
BBX 21 23 0 0
BITMAP
BF800000FF40
7FC00001FF00
3FD00002FE00
1FE00003FD00
0FF00007FC00
0BF4000BF400
07F8000FF000
03FC001FE000
02FD002FD000
01FE003FC000
00FF007F8000
00BF40BF4000
007F80FF0000
003FC1FE0000
002FD2FD0000
001FE3FC0000
000FF7F80000
000BFBF40000
0003FFF00000
0002FFE00000
0001FFC00000
0000FF800000
0000BF400000
ENDCHAR
STARTCHAR W
ENCODING 87
SWIDTH 879 0
DWIDTH 28 0
BBX 27 23 1 0
BITMAP
FE0002FC0007F4
FF0003FD000BF4
BF4003FD000FF0
7F4007FE000FE0
7F800BFF001FE0
3F800FFF401FD0
2FC00FFF402FC0
2FD01FDF803FC0
1FD02F9FC03F80
0FE03F4FD07F40
0FE03F0BD07F40
0BF07E07E0BF00
07F4BE03F0FE00
07F4FD03F4FD00
03F8FC02F5FD00
02FDF801F9FC00
01FEF800FEF800
01FFF400FFF800
00FFF000BFF400
00BFE0007FF000
00BFD0003FF000
007FD0003FE000
003FC0002FD000
ENDCHAR
STARTCHAR X
ENCODING 88
SWIDTH 632 0
DWIDTH 20 0
BBX 19 23 1 0
BITMAP
FF80001FF4
7FD0003FE0
2FE000BFC0
0FF400FF40
07FC02FE00
03FE07FD00
01FF0BF800
00BF9FF000
003FFFD000
001FFF8000
000FFF4000
0007FE0000
000FFF4000
002FFFC000
007FFFD000
00BF9FF000
01FF0BF800
03FD07FD00
0BFC02FF00
1FF400FF80
2FE0007FC0
7FC0002FE0
FF80001FF4
ENDCHAR
STARTCHAR Y
ENCODING 89
SWIDTH 609 0
DWIDTH 20 0
BBX 19 23 0 0
BITMAP
BF800007FC
3FD0000BF8
2FE0001FF0
0FF4002FE0
0BF8007FC0
03FC00BF40
01FE00FF00
00FF02FD00
007F83FC00
003FCBF400
001FEFE000
000FFFD000
0007FF8000
0002FF4000
0001FE0000
0001FE0000
0001FE0000
0001FE0000
0001FE0000
0001FE0000
0001FE0000
0001FE0000
0001FE0000
ENDCHAR
STARTCHAR Z
ENCODING 90
SWIDTH 602 0
DWIDTH 19 0
BBX 18 23 1 0
BITMAP
BFFFFFFF80
BFFFFFFF80
BFFFFFFF80
155555FF00
000003FD00
00000BF800
00001FF000
00003FD000
0000BF8000
0001FF0000
0003FD0000
000BF80000
001FF00000
003FD00000
00BF800000
01FF000000
03FD000000
0BF8000000
1FF0000000
3FD0000000
BFFFFFFFD0
BFFFFFFFD0
BFFFFFFFD0
ENDCHAR
STARTCHAR bracketleft
ENCODING 91
SWIDTH 273 0
DWIDTH 9 0
BBX 7 31 2 -5
BITMAP
FFF4
FFF4
FFF4
FF00
FF00
FF00
FF00
FF00
FF00
FF00
FF00
FF00
FF00
FF00
FF00
FF00
FF00
FF00
FF00
FF00
FF00
FF00
FF00
FF00
FF00
FF00
FF00
FF00
FFF4
FFF4
FFF4
ENDCHAR
STARTCHAR backslash
ENCODING 92
SWIDTH 417 0
DWIDTH 13 0
BBX 14 25 0 -2
BITMAP
7F400000
3F800000
2FC00000
1FD00000
0FE00000
0BF00000
07F80000
03FC0000
01FD0000
00FE0000
00BF0000
007F4000
003F8000
002FD000
001FE000
000BF000
0007F400
0003F800
0002FC00
0001FD00
0000FF00
0000BF40
00003F80
00002FC0
00001FD0
ENDCHAR
STARTCHAR bracketright
ENCODING 93
SWIDTH 273 0
DWIDTH 9 0
BBX 7 31 0 -5
BITMAP
BFF8
BFF8
BFF8
07F8
07F8
07F8
07F8
07F8
07F8
07F8
07F8
07F8
07F8
07F8
07F8
07F8
07F8
07F8
07F8
07F8
07F8
07F8
07F8
07F8
07F8
07F8
07F8
07F8
BFF8
BFF8
BFF8
ENDCHAR
STARTCHAR asciicircum
ENCODING 94
SWIDTH 427 0
DWIDTH 14 0
BBX 12 11 1 12
BITMAP
00BD00
00FE00
02FF40
03FF80
07EFC0
0FDBD0
1FC7F0
2F42F4
3F01F8
BE00FD
FD00BE
ENDCHAR
STARTCHAR underscore
ENCODING 95
SWIDTH 451 0
DWIDTH 14 0
BBX 15 3 0 -3
BITMAP
FFFFFFF4
FFFFFFF4
FFFFFFF4
ENDCHAR
STARTCHAR grave
ENCODING 96
SWIDTH 322 0
DWIDTH 10 0
BBX 7 5 1 19
BITMAP
BF40
3FC0
1FE0
07F4
01E8
ENDCHAR
STARTCHAR a
ENCODING 97
SWIDTH 541 0
DWIDTH 17 0
BBX 15 17 1 0
BITMAP
006FE800
07FFFF40
1FFFFFD0
2FE02FF0
3F800BF0
15000BF4
00000BF4
01AFFFF4
0BFFFFF4
2FF95BF4
7F800BF4
BF400BF4
BF400BF4
7FD06FF4
3FFFFFF4
1FFFFBF8
02BF83FC
ENDCHAR
STARTCHAR b
ENCODING 98
SWIDTH 562 0
DWIDTH 18 0
BBX 15 24 2 0
BITMAP
FE000000
FE000000
FE000000
FE000000
FE000000
FE000000
FE000000
FE1BF800
FEBFFF40
FFFFFFD0
FFD47FE0
FF400FF4
FE0007F4
FE0007F8
FE0003F8
FE0003F8
FE0003F8
FE0007F8
FE0007F4
FF400FF4
FFD46FE0
FFFFFFD0
FEBFFF40
FD1BF800
ENDCHAR
STARTCHAR c
ENCODING 99
SWIDTH 523 0
DWIDTH 17 0
BBX 15 17 1 0
BITMAP
006FF900
02FFFF80
0BFFFFE0
2FE41FF4
3FC007F8
7F4003F8
BF400050
BF000000
BF000000
BF000000
BF400000
7F4002A8
3FC007F8
2FE41FF4
0FFFFFD0
02FFFF40
006FE800
ENDCHAR
STARTCHAR d
ENCODING 100
SWIDTH 564 0
DWIDTH 18 0
BBX 15 24 1 0
BITMAP
000002FC
000002FC
000002FC
000002FC
000002FC
000002FC
000002FC
00BF92FC
07FFFAFC
0FFFFFFC
2FF45FFC
3FC007FC
7F8002FC
BF4002FC
BF0002FC
BF0002FC
BF0002FC
BF4002FC
7F4002FC
3FC007FC
2FF41FFC
0FFFFFFC
07FFFAFC
00BF91FC
ENDCHAR
STARTCHAR e
ENCODING 101
SWIDTH 536 0
DWIDTH 17 0
BBX 16 17 1 0
BITMAP
006FF900
01FFFF80
0BFFFFE0
1FF41FF0
3FD007F8
7F8002FC
7F4002FC
BFFFFFFC
BFFFFFFD
BFAAAAA8
BF400000
7F800000
3FD00090
1FF806F4
0BFFFFF4
02FFFFD0
002BF900
ENDCHAR
STARTCHAR f
ENCODING 102
SWIDTH 354 0
DWIDTH 11 0
BBX 12 24 0 0
BITMAP
000AFD
007FFD
00FFFD
01FF54
02FD00
02FC00
02FC00
7FFFF8
7FFFF8
6BFEA4
02FC00
02FC00
02FC00
02FC00
02FC00
02FC00
02FC00
02FC00
02FC00
02FC00
02FC00
02FC00
02FC00
02FC00
ENDCHAR
STARTCHAR g
ENCODING 103
SWIDTH 566 0
DWIDTH 18 0
BBX 16 24 1 -7
BITMAP
006FA1FD
07FFFEFD
0FFFFFFD
2FF41FFD
3FD003FD
7F8002FD
BF4002FD
BF0002FD
BF0002FD
BF0002FD
BF4002FD
7F8002FD
3FC003FD
2FF41FFD
0FFFFFFD
03FFFEFD
006FA2FD
000002FC
000003FC
0A0007F8
1FD02FF4
1FFFFFE0
07FFFF80
006FE800
ENDCHAR
STARTCHAR h
ENCODING 104
SWIDTH 555 0
DWIDTH 18 0
BBX 14 24 2 0
BITMAP
FE000000
FE000000
FE000000
FE000000
FE000000
FE000000
FE000000
FE1BF900
FEBFFF40
FFFFFFC0
FFD57FD0
FF401FE0
FE000FE0
FE000FF0
FE000FF0
FE000FF0
FE000FF0
FE000FF0
FE000FF0
FE000FF0
FE000FF0
FE000FF0
FE000FF0
FE000FF0
ENDCHAR
STARTCHAR i
ENCODING 105
SWIDTH 255 0
DWIDTH 8 0
BBX 4 23 2 0
BITMAP
7E
FF
FF
7E
00
00
BF
BF
BF
BF
BF
BF
BF
BF
BF
BF
BF
BF
BF
BF
BF
BF
BF
ENDCHAR
STARTCHAR j
ENCODING 106
SWIDTH 250 0
DWIDTH 8 0
BBX 8 30 -2 -7
BITMAP
00BD
00FF
00FF
007D
0000
0000
00FF
00FF
00FF
00FF
00FF
00FF
00FF
00FF
00FF
00FF
00FF
00FF
00FF
00FF
00FF
00FF
00FF
00FF
00FF
00FF
16FE
7FFD
7FF8
3F90
ENDCHAR
STARTCHAR k
ENCODING 107
SWIDTH 521 0
DWIDTH 17 0
BBX 15 24 2 0
BITMAP
FE000000
FE000000
FE000000
FE000000
FE000000
FE000000
FE000000
FE002FE0
FE00BF80
FE02FF00
FE07FC00
FE1FF400
FE7FD000
FFFF4000
FFFF4000
FFFFC000
FFFFE000
FF8FF400
FE07FC00
FE02FE00
FE00FF40
FE007FC0
FE002FE0
FE000FF4
ENDCHAR
STARTCHAR l
ENCODING 108
SWIDTH 255 0
DWIDTH 8 0
BBX 4 24 2 0
BITMAP
BF
BF
BF
BF
BF
BF
BF
BF
BF
BF
BF
BF
BF
BF
BF
BF
BF
BF
BF
BF
BF
BF
BF
BF
ENDCHAR
STARTCHAR m
ENCODING 109
SWIDTH 870 0
DWIDTH 28 0
BBX 24 17 2 0
BITMAP
FE1BF901BF90
FEBFFF4BFFF4
FFFFFFEFFFFC
FFD17FFD57FE
FF001FF401FE
FE000FF000FF
FE000FE000FF
FE000FE000FF
FE000FE000FF
FE000FE000FF
FE000FE000FF
FE000FE000FF
FE000FE000FF
FE000FE000FF
FE000FE000FF
FE000FE000FF
FE000FE000FF
ENDCHAR
STARTCHAR n
ENCODING 110
SWIDTH 556 0
DWIDTH 18 0
BBX 14 17 2 0
BITMAP
FD1BF900
FEBFFF40
FFFFFFC0
FFD47FE0
FF401FE0
FE000FF0
FE000FF0
FE000FF0
FE000FF0
FE000FF0
FE000FF0
FE000FF0
FE000FF0
FE000FF0
FE000FF0
FE000FF0
FE000FF0
ENDCHAR
STARTCHAR o
ENCODING 111
SWIDTH 569 0
DWIDTH 18 0
BBX 16 17 1 0
BITMAP
006FF900
02FFFF80
0BFFFFF0
1FF41FF8
3FD003FD
7F8001FE
BF4000FE
BF0000FF
BF0000FF
BF0000FF
BF4000FE
7F8001FE
3FC003FC
1FF41BF8
0BFFFFF0
02FFFF80
006FF900
ENDCHAR
STARTCHAR p
ENCODING 112
SWIDTH 562 0
DWIDTH 18 0
BBX 15 24 2 -7
BITMAP
FD1BF800
FEBFFF40
FFFFFFD0
FFD47FE0
FF000FF0
FE000BF4
FE0007F8
FE0003F8
FE0003F8
FE0003F8
FE0007F8
FE000BF4
FF000FF0
FFD07FE0
FFFFFFC0
FEFFFF40
FE1BF800
FE000000
FE000000
FE000000
FE000000
FE000000
FE000000
FE000000
ENDCHAR
STARTCHAR q
ENCODING 113
SWIDTH 567 0
DWIDTH 18 0
BBX 15 24 1 -7
BITMAP
00AF91FC
07FFFEFC
0FFFFFFC
2FF41FFC
3FC003FC
7F8002FC
BF4002FC
BF0002FC
BF0002FC
BF0002FC
BF4002FC
7F8002FC
3FC003FC
2FF41FFC
0FFFFFFC
07FFFFFC
00BF92FC
000002FC
000002FC
000002FC
000002FC
000002FC
000002FC
000002FC
ENDCHAR
STARTCHAR r
ENCODING 114
SWIDTH 351 0
DWIDTH 11 0
BBX 9 17 2 0
BITMAP
FE2F80
FEBF80
FFFF80
FFFA80
FF8000
FF0000
FE0000
FE0000
FE0000
FE0000
FE0000
FE0000
FE0000
FE0000
FE0000
FE0000
FE0000
ENDCHAR
STARTCHAR s
ENCODING 115
SWIDTH 516 0
DWIDTH 17 0
BBX 14 17 1 0
BITMAP
00AFE400
07FFFF40
1FFFFFD0
3FD02FE0
7F800FF0
7F800550
3FE40000
1FFFE400
06FFFF40
006BFFD0
00006FF0
69000BF0
BF000BF0
7FD01FF0
2FFFFFD0
0BFFFF40
01AFE800
ENDCHAR
STARTCHAR t
ENCODING 116
SWIDTH 332 0
DWIDTH 11 0
BBX 10 21 0 0
BITMAP
03F800
03F800
03F800
03F800
FFFFE0
FFFFE0
ABFEA0
03F800
03F800
03F800
03F800
03F800
03F800
03F800
03F800
03F800
03F800
03FD50
02FFE0
01FFE0
006FE0
ENDCHAR
STARTCHAR u
ENCODING 117
SWIDTH 555 0
DWIDTH 18 0
BBX 14 17 2 0
BITMAP
FE000FF0
FE000FF0
FE000FF0
FE000FF0
FE000FF0
FE000FF0
FE000FF0
FE000FF0
FE000FF0
FE000FF0
FE000FF0
FE000FF0
FF001FF0
BF91BFF0
7FFFFFF0
2FFFEBF0
06FE4BF0
ENDCHAR
STARTCHAR v
ENCODING 118
SWIDTH 494 0
DWIDTH 16 0
BBX 16 17 0 0
BITMAP
7F4002FD
3F8003FC
2FC007F8
1FD00BF4
0FE00FF0
0BF00FE0
07F41FC0
03F82F80
02F83F40
01FC7F00
00FDBE00
00BEFD00
007FFC00
003FF800
002FF400
001FF000
000FE000
ENDCHAR
STARTCHAR w
ENCODING 119
SWIDTH 743 0
DWIDTH 24 0
BBX 23 17 0 0
BITMAP
7F400BD002FC
3F800FE003F8
2F801FF003F8
2FC02FF407F4
1FD03FF80BF0
0FE07FFC0BE0
0BE0BDBD0FD0
07F0BCBE1FC0
07F4FC7E1FC0
03F5F83F2F80
02FAF42F7F40
01FFF01FFF00
00FFE00FFE00
00BFD00BFE00
00BFC007FD00
007F8003FC00
003F4002F800
ENDCHAR
STARTCHAR x
ENCODING 120
SWIDTH 502 0
DWIDTH 16 0
BBX 16 17 0 0
BITMAP
3FC003FC
1FE00BF8
0BF41FF0
07F82FD0
02FD7F80
00FFFF00
007FFD00
002FF800
001FF400
003FFC00
007FFE00
00FFBF40
02FD7F80
07F82FD0
0FF00FF0
2FE007F8
7FC003FD
ENDCHAR
STARTCHAR y
ENCODING 121
SWIDTH 486 0
DWIDTH 16 0
BBX 16 24 0 -7
BITMAP
BF4003FD
7F8003F8
3FC007F4
2FD00BF0
1FE00FE0
0FF01FD0
0BF42FC0
07F83F80
03FC7F40
02FDBF00
00FEBE00
00BFFD00
007FFC00
003FF800
002FF400
001FF000
000FE000
000FD000
001FC000
003F8000
05BF4000
1FFE0000
1FFC0000
1FE00000
ENDCHAR
STARTCHAR z
ENCODING 122
SWIDTH 502 0
DWIDTH 16 0
BBX 14 17 1 0
BITMAP
BFFFFFE0
BFFFFFE0
BFFFFFE0
0000BF80
0001FF00
0003FD00
000BF800
001FE000
007FC000
00FF4000
02FE0000
07F80000
1FF00000
3FD00000
BFFFFFF0
BFFFFFF0
BFFFFFF0
ENDCHAR
STARTCHAR braceleft
ENCODING 123
SWIDTH 335 0
DWIDTH 11 0
BBX 9 31 1 -6
BITMAP
000680
002FC0
00BF80
01FE00
02FC00
03F800
03F800
03F400
03F400
03F400
03F400
07F400
0BF000
1FE000
FF8000
FF0000
FFD000
1FE000
07F400
07F400
03F400
03F400
03F400
03F400
03F800
03F800
02FC00
01FE00
00BF80
002FC0
000680
ENDCHAR
STARTCHAR bar
ENCODING 124
SWIDTH 250 0
DWIDTH 8 0
BBX 4 27 2 -4
BITMAP
7D
7D
7D
7D
7D
7D
7D
7D
7D
7D
7D
7D
7D
7D
7D
7D
7D
7D
7D
7D
7D
7D
7D
7D
7D
7D
7D
ENDCHAR
STARTCHAR braceright
ENCODING 125
SWIDTH 335 0
DWIDTH 11 0
BBX 10 31 0 -6
BITMAP
380000
7F4000
6FD000
0BF000
07F400
03F800
03F800
02F800
02F800
02F800
02F800
02FC00
01FD00
00FF40
007FE0
001FE0
007FE0
00FE00
01FC00
02FC00
02F800
02F800
02F800
02F800
03F800
03F800
07F400
0BF000
6FD000
7F4000
380000
ENDCHAR
STARTCHAR asciitilde
ENCODING 126
SWIDTH 664 0
DWIDTH 21 0
BBX 18 7 2 6
BITMAP
06F9000690
1FFF800BD0
7FFFE00FD0
BF5BF96FC0
FD01FFFF40
FC007FFE00
54001BE400
ENDCHAR
STARTCHAR uni00A0
ENCODING 160
SWIDTH 249 0
DWIDTH 8 0
BBX 1 1 0 0
BITMAP
00
ENDCHAR
STARTCHAR exclamdown
ENCODING 161
SWIDTH 264 0
DWIDTH 8 0
BBX 5 23 2 -6
BITMAP
7E00
BF40
BF40
7E00
0000
0000
0000
7F00
7F00
7F00
7F00
7F00
7F00
7F00
BF00
BF00
BF00
BF40
BF40
BF40
BF40
BF40
BF40
ENDCHAR
STARTCHAR cent
ENCODING 162
SWIDTH 561 0
DWIDTH 18 0
BBX 15 25 1 -4
BITMAP
00069000
0007E000
0007E000
0007E000
006FF900
02FFFFC0
0BFFFFF0
1FF41BF8
2FD003FC
3F8002FC
7F800000
7F400000
7F400000
7F400000
7F400000
3F8001A8
2FD002FC
1FF40BF8
0BFFFFF0
02FFFF80
006FF900
0007E000
0007E000
0007E000
00069000
ENDCHAR
STARTCHAR sterling
ENCODING 163
SWIDTH 588 0
DWIDTH 19 0
BBX 17 23 1 0
BITMAP
0006FF9000
002FFFF800
00BFFFFD00
01FF56FF00
03FD00BF40
03FC007F80
07F8001500
07F8000000
07F8000000
03F8000000
03F8000000
BFFFFE0000
BFFFFE0000
BFFFFE0000
03FC000000
03FC000000
03FC000000
03FC000000
03F8000000
0BF4000000
7FFFFFFFC0
7FFFFFFFC0
7FFFFFFFC0
ENDCHAR
STARTCHAR currency
ENCODING 164
SWIDTH 701 0
DWIDTH 22 0
BBX 20 21 1 0
BITMAP
0400000000
1E02BF903C
7FAFFFFDBF
2FFFFFFFFE
0FFE407FF8
0BF4000BF0
0FD00002F8
1F800001FC
2F400000BD
3F0000007D
3F0000007E
3F0000007E
3F0000007D
2F400000BD
1F800001FC
0FD00002F8
0BF4000BF4
1FFE407FFC
7FFFFFFFFF
2F6FFFFDBE
0902BF9028
ENDCHAR
STARTCHAR yen
ENCODING 165
SWIDTH 531 0
DWIDTH 17 0
BBX 17 23 0 0
BITMAP
BF8000BF80
3FC000FF00
2FD001FE00
0FF003FC00
0BF407F800
03F80BF000
02FD0FE000
01FE2FD000
00BF3F8000
007FFF4000
002FFE0000
1FFFFFFC00
1FFFFFFC00
055BF95400
000BF40000
000BF40000
1FFFFFFC00
1FFFFFFC00
055BF95400
000BF40000
000BF40000
000BF40000
000BF40000
ENDCHAR
STARTCHAR brokenbar
ENCODING 166
SWIDTH 248 0
DWIDTH 8 0
BBX 4 27 2 -4
BITMAP
FE
FE
FE
FE
FE
FE
FE
FE
FE
FE
FE
FE
00
00
00
FE
FE
FE
FE
FE
FE
FE
FE
FE
FE
FE
FE
ENDCHAR
STARTCHAR section
ENCODING 167
SWIDTH 621 0
DWIDTH 20 0
BBX 17 30 1 -7
BITMAP
006BFE4000
02FFFFF400
0BFFFFFD00
1FF906FF00
2FD000BF80
3FC0003F80
3FC0002A40
2FE0000000
1FFE400000
0BFFF90000
07FFFFE000
2FEBFFFD00
3F806FFF40
7F4001FF80
BF40003FC0
7F80002FC0
3FE0002FC0
2FFE503F80
0BFFFEFF40
01FFFFFD00
001BFFFD00
00001FFF00
000001FF40
6A00007F80
7F40007F80
7F8000BF40
3FF506FF00
1FFFFFFE00
06FFFFF400
006BFE4000
ENDCHAR
STARTCHAR dieresis
ENCODING 168
SWIDTH 439 0
DWIDTH 14 0
BBX 12 4 1 20
BITMAP
190064
7F41FD
7F41FD
2E00B8
ENDCHAR
STARTCHAR copyright
ENCODING 169
SWIDTH 783 0
DWIDTH 25 0
BBX 23 23 1 0
BITMAP
0001AFE90000
001BFFFF9000
007F501BF400
02F40000BD00
07D000001F40
0F406FE407C0
2E02FFFD02D0
3C07E47F01F0
780F801F40F0
740F400A40B4
B41F40000074
B41F40000078
B41F40000074
740F400A40B4
780F801F40F0
3C07E46F01E0
2E02FFFD02D0
0F406FE407C0
07D000001F40
02F40000BD00
007F4017F400
001BFFFF9000
0001AFE90000
ENDCHAR
STARTCHAR ordfeminine
ENCODING 170
SWIDTH 445 0
DWIDTH 14 0
BBX 10 12 2 11
BITMAP
06FE00
2FFFC0
7F5BE0
6903E0
0003F0
0AFFF0
3FFBF0
BD03F0
BC03F0
BE5BF0
7FFFF0
1BE6F0
ENDCHAR
STARTCHAR guillemotleft
ENCODING 171
SWIDTH 485 0
DWIDTH 16 0
BBX 13 13 1 2
BITMAP
007D0F80
01F82F40
03F07E00
0BD0FC00
1F82F400
3F47E000
BE0FD000
3F47E000
1F82F400
0BD0FC00
03F07E00
01F82F40
007D0F80
ENDCHAR
STARTCHAR logicalnot
ENCODING 172
SWIDTH 553 0
DWIDTH 18 0
BBX 13 7 2 6
BITMAP
FFFFFFC0
FFFFFFC0
AAAAAFC0
00000FC0
00000FC0
00000FC0
00000FC0
ENDCHAR
STARTCHAR uni00AD
ENCODING 173
SWIDTH 328 0
DWIDTH 11 0
BBX 9 3 1 8
BITMAP
FFFF40
FFFF40
FFFF40
ENDCHAR
STARTCHAR registered
ENCODING 174
SWIDTH 783 0
DWIDTH 25 0
BBX 23 23 1 0
BITMAP
0001AFE90000
001BFFFF9000
007F501BF400
02F40000BD00
07D000001F40
0F43FFE407C0
2E03FFFD02D0
3C03D06F01F0
7803D00F40F0
7403D00F40B4
B403D06F0074
B403FFFD0078
B403FFFD0074
7403D06F00B4
7803D01F40F0
3C03D00F41E0
2E03D00F42D0
0F43D00F47C0
07D000001F40
02F40000BD00
007F4017F400
001BFFFF9000
0001AFE90000
ENDCHAR
STARTCHAR macron
ENCODING 175
SWIDTH 481 0
DWIDTH 15 0
BBX 11 3 2 20
BITMAP
BFFFFC
BFFFFC
555554
ENDCHAR
STARTCHAR degree
ENCODING 176
SWIDTH 379 0
DWIDTH 12 0
BBX 8 8 2 15
BITMAP
0BE4
3FFD
BD6E
F40F
F40F
B82F
7FFD
1FF4
ENDCHAR
STARTCHAR plusminus
ENCODING 177
SWIDTH 536 0
DWIDTH 17 0
BBX 15 20 1 0
BITMAP
000FD000
000FD000
000FD000
000FD000
000FD000
000FD000
BFFFFFF8
BFFFFFF8
BFFFFFF8
000FD000
000FD000
000FD000
000FD000
000FD000
000FD000
00000000
00000000
3FFFFFF4
3FFFFFF4
3FFFFFF4
ENDCHAR
STARTCHAR uni00B2
ENCODING 178
SWIDTH 370 0
DWIDTH 12 0
BBX 10 13 1 10
BITMAP
0BF900
3FFF80
BE5FC0
FC0BD0
540BD0
001FC0
007F40
01FE00
07F800
1FD000
7F9550
BFFFE0
BFFFE0
ENDCHAR
STARTCHAR uni00B3
ENCODING 179
SWIDTH 370 0
DWIDTH 12 0
BBX 10 13 1 10
BITMAP
0BF900
7FFF80
BE5FD0
540BD0
000BC0
02FF40
02FF40
001BD0
0007E0
F807E0
FE5FD0
7FFF80
1BF900
ENDCHAR
STARTCHAR acute
ENCODING 180
SWIDTH 325 0
DWIDTH 10 0
BBX 7 5 2 19
BITMAP
0BF8
1FE0
3FC0
BF00
AD00
ENDCHAR
STARTCHAR mu
ENCODING 181
SWIDTH 591 0
DWIDTH 19 0
BBX 15 24 2 -7
BITMAP
BF0007F4
BF0007F4
BF0007F4
BF0007F4
BF0007F4
BF0007F4
BF0007F4
BF0007F4
BF0007F4
BF0007F4
BF0007F4
BF4007F4
BF800BF4
BFE46FF4
BFFFFFF4
BFFFFBF4
BF6F93F4
BF000000
BF000000
BF000000
BF000000
BF000000
BF000000
BF000000
ENDCHAR
STARTCHAR paragraph
ENCODING 182
SWIDTH 490 0
DWIDTH 16 0
BBX 13 23 1 0
BITMAP
006FFF40
07FFFF40
1FFFFF40
3FFFFF40
7FFFFF40
BFFFFF40
FFFFFF40
FFFFFF40
FFFFFF40
BFFFFF40
7FFFFF40
3FFFFF40
0FFFFF40
02FFFF40
006ABF40
00003F40
00003F40
00003F40
00003F40
00003F40
00003F40
00003F40
00003F40
ENDCHAR
STARTCHAR periodcentered
ENCODING 183
SWIDTH 282 0
DWIDTH 9 0
BBX 5 4 2 9
BITMAP
2E00
BF80
BF80
7F00
ENDCHAR
STARTCHAR cedilla
ENCODING 184
SWIDTH 257 0
DWIDTH 8 0
BBX 5 7 2 -7
BITMAP
FC00
FF40
6FC0
0FC0
6FC0
FF40
F900
ENDCHAR
STARTCHAR uni00B9
ENCODING 185
SWIDTH 370 0
DWIDTH 12 0
BBX 6 13 2 10
BITMAP
01B0
6FF0
FFF0
FBF0
03F0
03F0
03F0
03F0
03F0
03F0
03F0
03F0
03F0
ENDCHAR
STARTCHAR ordmasculine
ENCODING 186
SWIDTH 456 0
DWIDTH 15 0
BBX 11 12 2 11
BITMAP
06FE00
2FFFD0
7F5BF0
FC02F4
F801F8
F800F8
F800F8
F801F8
BC02F4
7F5BF0
2FFFD0
06FE00
ENDCHAR
STARTCHAR guillemotright
ENCODING 187
SWIDTH 485 0
DWIDTH 16 0
BBX 14 13 1 2
BITMAP
7D07D000
2F02F000
0F81F800
07E0BD00
03F43F00
01FC1F80
00FD0FD0
01FC1F80
03F43F00
07E0BD00
0F81F800
2F02F000
7D07D000
ENDCHAR
STARTCHAR onequarter
ENCODING 188
SWIDTH 726 0
DWIDTH 23 0
BBX 21 23 1 0
BITMAP
006400000000
1BF400000000
BFF400024000
BAF4000BC000
01F4001F4000
01F4003E0000
01F400BC0000
01F401F40000
01F402E00000
01F407D00000
01F40F80BE00
01F42F01FE00
01F47D03FE00
0000F80BFE00
0002F01FBE00
0007D03E7E00
000BC0B87E00
001F41F07E00
003E03FFFFC0
00BC03FFFFC0
00240155BE40
000000007E00
000000007E00
ENDCHAR
STARTCHAR onehalf
ENCODING 189
SWIDTH 770 0
DWIDTH 25 0
BBX 23 23 1 0
BITMAP
006400000000
1BF400000000
BFF400090000
BBF4001F4000
02F4003E0000
02F400BC0000
02F401F40000
02F403E00000
02F407D00000
02F40F800000
02F42F06FE00
02F47D2FFFC0
02F4F87F5BE0
0002F0BD07E0
0007D05407E0
000B80000BD0
001F40002F80
003E0000BF00
00BC0002F800
01F4000BE000
0060002FD550
0000007FFFF4
0000007FFFF4
ENDCHAR
STARTCHAR threequarters
ENCODING 190
SWIDTH 792 0
DWIDTH 25 0
BBX 23 23 1 0
BITMAP
06FE40000000
1FFFD0000000
3F9BF0002400
1502F0007C00
0007F000F800
00FF8002F000
00FF9007D000
0007F00F8000
0002F42F0000
7E02F47D0000
3F9BF0B80BD0
1FFFD1F42FD0
06FE43E07FD0
00000BC0BFD0
00001F42FBD0
00003E07D7D0
0000BC0F87D0
0001F42F07D0
0002E03FFFFC
0007D03FFFFC
000280155BE4
0000000007D0
0000000007D0
ENDCHAR
STARTCHAR questiondown
ENCODING 191
SWIDTH 486 0
DWIDTH 16 0
BBX 14 23 1 -6
BITMAP
001F4000
003FC000
003FC000
001F4000
00000000
00000000
00000000
002F8000
003F8000
007F8000
00FF0000
03FE0000
0BF80000
2FE00000
7F800000
BF400000
FF000000
FF001FD0
BF402FD0
BFD5BFC0
3FFFFF40
1FFFFE00
01BFE400
ENDCHAR
STARTCHAR Agrave
ENCODING 192
SWIDTH 665 0
DWIDTH 21 0
BBX 21 29 0 0
BITMAP
001FF0000000
0007F8000000
0002FD000000
0000BF000000
00002E400000
000000000000
00007F800000
0000BFC00000
0000FFD00000
0001FFE00000
0002FFF00000
0007FBF40000
000BF2FC0000
000FE1FD0000
001FD0FE0000
002FC0BF0000
003F807F4000
007F403F8000
00BF002FC000
01FE001FD000
02FFFFFFF000
03FFFFFFF400
07FFFFFFF800
0BF55557FC00
0FE00002FD00
1FD00001FE00
2FD00000FF00
3FC00000BF40
BF8000007FC0
ENDCHAR
STARTCHAR Aacute
ENCODING 193
SWIDTH 665 0
DWIDTH 21 0
BBX 21 29 0 0
BITMAP
000002FE0000
000007F80000
00000FF00000
00002FD00000
00002B400000
000000000000
00007F800000
0000BFC00000
0000FFD00000
0001FFE00000
0002FFF00000
0007FBF40000
000BF2FC0000
000FE1FD0000
001FD0FE0000
002FC0BF0000
003F807F4000
007F403F8000
00BF002FC000
01FE001FD000
02FFFFFFF000
03FFFFFFF400
07FFFFFFF800
0BF55557FC00
0FE00002FD00
1FD00001FE00
2FD00000FF00
3FC00000BF40
BF8000007FC0
ENDCHAR
STARTCHAR Acircumflex
ENCODING 194
SWIDTH 665 0
DWIDTH 21 0
BBX 21 30 0 0
BITMAP
00002F400000
0000BFD00000
0002FBF40000
000BE1FD0000
001B807A0000
000000000000
000000000000
00007F800000
0000BFC00000
0000FFD00000
0001FFE00000
0002FFF00000
0007FBF40000
000BF2FC0000
000FE1FD0000
001FD0FE0000
002FC0BF0000
003F807F4000
007F403F8000
00BF002FC000
01FE001FD000
02FFFFFFF000
03FFFFFFF400
07FFFFFFF800
0BF55557FC00
0FE00002FD00
1FD00001FE00
2FD00000FF00
3FC00000BF40
BF8000007FC0
ENDCHAR
STARTCHAR Atilde
ENCODING 195
SWIDTH 665 0
DWIDTH 21 0
BBX 21 29 0 0
BITMAP
0001900A4000
000FFEAF4000
002FFFFE0000
003E06F80000
000000000000
000000000000
00007F800000
0000BFC00000
0000FFD00000
0001FFE00000
0002FFF00000
0007FBF40000
000BF2FC0000
000FE1FD0000
001FD0FE0000
002FC0BF0000
003F807F4000
007F403F8000
00BF002FC000
01FE001FD000
02FFFFFFF000
03FFFFFFF400
07FFFFFFF800
0BF55557FC00
0FE00002FD00
1FD00001FE00
2FD00000FF00
3FC00000BF40
BF8000007FC0
ENDCHAR
STARTCHAR Adieresis
ENCODING 196
SWIDTH 665 0
DWIDTH 21 0
BBX 21 29 0 0
BITMAP
000A40190000
002FC0BF0000
002FC0BF4000
001F402E0000
000000000000
000000000000
00007F800000
0000BFC00000
0000FFD00000
0001FFE00000
0002FFF00000
0007FBF40000
000BF2FC0000
000FE1FD0000
001FD0FE0000
002FC0BF0000
003F807F4000
007F403F8000
00BF002FC000
01FE001FD000
02FFFFFFF000
03FFFFFFF400
07FFFFFFF800
0BF55557FC00
0FE00002FD00
1FD00001FE00
2FD00000FF00
3FC00000BF40
BF8000007FC0
ENDCHAR
STARTCHAR Aring
ENCODING 197
SWIDTH 665 0
DWIDTH 21 0
BBX 21 31 0 0
BITMAP
000015000000
0000BFD00000
0001E1F00000
0002C0B00000
0002D0B00000
0001FAE00000
00006F800000
000000000000
00007F800000
0000BFC00000
0000FFD00000
0001FFE00000
0002FFF00000
0007FBF40000
000BF2FC0000
000FE1FD0000
001FD0FE0000
002FC0BF0000
003F807F4000
007F403F8000
00BF002FC000
01FE001FD000
02FFFFFFF000
03FFFFFFF400
07FFFFFFF800
0BF55557FC00
0FE00002FD00
1FD00001FE00
2FD00000FF00
3FC00000BF40
BF8000007FC0
ENDCHAR
STARTCHAR AE
ENCODING 198
SWIDTH 939 0
DWIDTH 30 0
BBX 30 23 0 0
BITMAP
0000007FFFFFFF40
000000FFFFFFFF40
000002FFFFFFFF40
000003FFF4000000
00000BFBF4000000
00001FE7F4000000
00002FD7F4000000
00007F87F4000000
0000FF07F8000000
0002FE07F8000000
0003FC07FFFFFC00
000BF403FFFFFC00
001FF003FFFFFC00
002FD003F8000000
007FFFFFF8000000
00FFFFFFF8000000
01FFFFFFFC000000
03FD5557FC000000
0BF80003FC000000
1FF00002FC000000
2FE00002FFFFFFD0
7FC00002FFFFFFD0
FF800002FFFFFFD0
ENDCHAR
STARTCHAR Ccedilla
ENCODING 199
SWIDTH 652 0
DWIDTH 21 0
BBX 19 30 1 -7
BITMAP
0006FF9000
007FFFFD00
01FFFFFF40
07FE55BFD0
0FF8002FE0
1FE0000FF0
2FD0000BF4
3FC00006A4
7F80000000
7F80000000
7F80000000
7F80000000
7F80000000
7F80000000
7F80000000
3FC00006A4
3FD0000BF4
1FE0000FF4
0FF4002FE0
07FE55BFD0
02FFFFFF40
007FFFFD00
0006FF9000
0000BC0000
0000FF4000
00006FC000
00000FD000
00005FC000
0000FF8000
0000F90000
ENDCHAR
STARTCHAR Egrave
ENCODING 200
SWIDTH 565 0
DWIDTH 18 0
BBX 16 29 2 0
BITMAP
07FC0000
01FE0000
00BF4000
002FC000
000B9000
00000000
BFFFFFFC
BFFFFFFC
BFFFFFFC
BF555554
BF400000
BF400000
BF400000
BF400000
BF400000
BF400000
BFFFFFE0
BFFFFFE0
BFFFFFE0
BF400000
BF400000
BF400000
BF400000
BF400000
BF400000
BF400000
BFFFFFFD
BFFFFFFD
BFFFFFFD
ENDCHAR
STARTCHAR Eacute
ENCODING 201
SWIDTH 565 0
DWIDTH 18 0
BBX 16 29 2 0
BITMAP
00007F80
0000FF00
0002FC00
0007F400
000AD000
00000000
BFFFFFFC
BFFFFFFC
BFFFFFFC
BF555554
BF400000
BF400000
BF400000
BF400000
BF400000
BF400000
BFFFFFE0
BFFFFFE0
BFFFFFE0
BF400000
BF400000
BF400000
BF400000
BF400000
BF400000
BF400000
BFFFFFFD
BFFFFFFD
BFFFFFFD
ENDCHAR
STARTCHAR Ecircumflex
ENCODING 202
SWIDTH 565 0
DWIDTH 18 0
BBX 16 30 2 0
BITMAP
000BD000
002FF400
00BEFD00
02F87F40
06E01E80
00000000
00000000
BFFFFFFC
BFFFFFFC
BFFFFFFC
BF555554
BF400000
BF400000
BF400000
BF400000
BF400000
BF400000
BFFFFFE0
BFFFFFE0
BFFFFFE0
BF400000
BF400000
BF400000
BF400000
BF400000
BF400000
BF400000
BFFFFFFD
BFFFFFFD
BFFFFFFD
ENDCHAR
STARTCHAR Edieresis
ENCODING 203
SWIDTH 565 0
DWIDTH 18 0
BBX 16 29 2 0
BITMAP
02900640
0BF01FD0
0BF02FD0
07E00B80
00000000
00000000
BFFFFFFC
BFFFFFFC
BFFFFFFC
BF555554
BF400000
BF400000
BF400000
BF400000
BF400000
BF400000
BFFFFFE0
BFFFFFE0
BFFFFFE0
BF400000
BF400000
BF400000
BF400000
BF400000
BF400000
BF400000
BFFFFFFD
BFFFFFFD
BFFFFFFD
ENDCHAR
STARTCHAR Igrave
ENCODING 204
SWIDTH 282 0
DWIDTH 9 0
BBX 8 29 -1 0
BITMAP
7F80
2FD0
0BF4
03F8
00E9
0000
01FD
01FD
01FD
01FD
01FD
01FD
01FD
01FD
01FD
01FD
01FD
01FD
01FD
01FD
01FD
01FD
01FD
01FD
01FD
01FD
01FD
01FD
01FD
ENDCHAR
STARTCHAR Iacute
ENCODING 205
SWIDTH 282 0
DWIDTH 9 0
BBX 8 29 2 0
BITMAP
02FE
07F8
0FE0
2FC0
2B00
0000
7F40
7F40
7F40
7F40
7F40
7F40
7F40
7F40
7F40
7F40
7F40
7F40
7F40
7F40
7F40
7F40
7F40
7F40
7F40
7F40
7F40
7F40
7F40
ENDCHAR
STARTCHAR Icircumflex
ENCODING 206
SWIDTH 282 0
DWIDTH 9 0
BBX 11 30 -1 0
BITMAP
01FD00
03FF40
0FEFD0
3F47F4
6E02E4
000000
000000
01FD00
01FD00
01FD00
01FD00
01FD00
01FD00
01FD00
01FD00
01FD00
01FD00
01FD00
01FD00
01FD00
01FD00
01FD00
01FD00
01FD00
01FD00
01FD00
01FD00
01FD00
01FD00
01FD00
ENDCHAR
STARTCHAR Idieresis
ENCODING 207
SWIDTH 282 0
DWIDTH 9 0
BBX 11 29 -1 0
BITMAP
2800A4
FE02FC
FF02FC
7D01F4
000000
000000
01FD00
01FD00
01FD00
01FD00
01FD00
01FD00
01FD00
01FD00
01FD00
01FD00
01FD00
01FD00
01FD00
01FD00
01FD00
01FD00
01FD00
01FD00
01FD00
01FD00
01FD00
01FD00
01FD00
ENDCHAR
STARTCHAR Eth
ENCODING 208
SWIDTH 667 0
DWIDTH 21 0
BBX 20 23 0 0
BITMAP
07FFFE9000
07FFFFF900
07FFFFFF40
07F955FFD0
07F8002FF0
07F8000BF8
07F80003FC
07F80002FD
07F80001FE
07F80001FE
FFFFF401FE
FFFFF401FE
ABFEA401FE
07F80001FE
07F80001FE
07F80002FD
07F80003FC
07F8000BF8
07F8002FF0
07F815FFD0
07FFFFFF40
07FFFFF900
07FFFE9000
ENDCHAR
STARTCHAR Ntilde
ENCODING 209
SWIDTH 709 0
DWIDTH 23 0
BBX 19 29 2 0
BITMAP
0016406800
007FFAFC00
00FFFFF400
01F46FD000
0000000000
0000000000
BF80000BF4
BFD0000BF4
BFE0000BF4
BFF4000BF4
BFFC000BF4
BFFE000BF4
BFFF400BF4
BFBFC00BF4
BF6FE00BF4
BF4FF40BF4
BF47F80BF4
BF42FD0BF4
BF40FF0BF4
BF40BF8BF4
BF403FDBF4
BF401FFBF4
BF400BFFF4
BF4003FFF4
BF4001FFF4
BF4000BFF4
BF40007FF4
BF40002FF4
BF40000FF4
ENDCHAR
STARTCHAR Ograve
ENCODING 210
SWIDTH 690 0
DWIDTH 22 0
BBX 20 29 1 0
BITMAP
003FD00000
000FF00000
0007F80000
0001FD0000
0000BA0000
0000000000
0006FF9000
007FFFFD00
01FFFFFF40
07FF95FFD0
0FF8002FF0
1FF0000BF4
2FD00007F8
3FC00003FC
7F800002FD
7F800002FD
7F800002FD
7F800001FD
7F800002FD
7F800002FD
7F800002FD
3FC00003FC
2FD00007F8
1FF0000BF4
0FF8002FF0
07FF55BFD0
01FFFFFF40
007FFFFD00
0006FF9000
ENDCHAR
STARTCHAR Oacute
ENCODING 211
SWIDTH 690 0
DWIDTH 22 0
BBX 20 29 1 0
BITMAP
000007FC00
00000BF400
00002FD000
00007F4000
00006E0000
0000000000
0006FF9000
007FFFFD00
01FFFFFF40
07FF95FFD0
0FF8002FF0
1FF0000BF4
2FD00007F8
3FC00003FC
7F800002FD
7F800002FD
7F800002FD
7F800001FD
7F800002FD
7F800002FD
7F800002FD
3FC00003FC
2FD00007F8
1FF0000BF4
0FF8002FF0
07FF55BFD0
01FFFFFF40
007FFFFD00
0006FF9000
ENDCHAR
STARTCHAR Ocircumflex
ENCODING 212
SWIDTH 690 0
DWIDTH 22 0
BBX 20 30 1 0
BITMAP
0000BE0000
0002FF8000
000BEBE000
001FC3F800
002B40E900
0000000000
0000000000
0006FF9000
007FFFFD00
01FFFFFF40
07FF95FFD0
0FF8002FF0
1FF0000BF4
2FD00007F8
3FC00003FC
7F800002FD
7F800002FD
7F800002FD
7F800001FD
7F800002FD
7F800002FD
7F800002FD
3FC00003FC
2FD00007F8
1FF0000BF4
0FF8002FF0
07FF55BFD0
01FFFFFF40
007FFFFD00
0006FF9000
ENDCHAR
STARTCHAR Otilde
ENCODING 213
SWIDTH 690 0
DWIDTH 22 0
BBX 20 29 1 0
BITMAP
0006502900
002FFEBE00
007FFFFC00
00BC1BE400
0000000000
0000000000
0006FF9000
007FFFFD00
01FFFFFF40
07FF95FFD0
0FF8002FF0
1FF0000BF4
2FD00007F8
3FC00003FC
7F800002FD
7F800002FD
7F800002FD
7F800001FD
7F800002FD
7F800002FD
7F800002FD
3FC00003FC
2FD00007F8
1FF0000BF4
0FF8002FF0
07FF55BFD0
01FFFFFF40
007FFFFD00
0006FF9000
ENDCHAR
STARTCHAR Odieresis
ENCODING 214
SWIDTH 690 0
DWIDTH 22 0
BBX 20 29 1 0
BITMAP
0019006400
007F40FD00
007F41FE00
002E00B800
0000000000
0000000000
0006FF9000
007FFFFD00
01FFFFFF40
07FF95FFD0
0FF8002FF0
1FF0000BF4
2FD00007F8
3FC00003FC
7F800002FD
7F800002FD
7F800002FD
7F800001FD
7F800002FD
7F800002FD
7F800002FD
3FC00003FC
2FD00007F8
1FF0000BF4
0FF8002FF0
07FF55BFD0
01FFFFFF40
007FFFFD00
0006FF9000
ENDCHAR
STARTCHAR multiply
ENCODING 215
SWIDTH 533 0
DWIDTH 17 0
BBX 15 15 1 3
BITMAP
08000180
3F0003E0
BFC00FF4
2FE03FE0
0BF8FF80
02FFFE00
00BFF800
003FF000
00BFF800
02FFFE00
0BF9FF80
2FE03FE0
BFC00FF4
3F0003E0
08000180
ENDCHAR
STARTCHAR Oslash
ENCODING 216
SWIDTH 689 0
DWIDTH 22 0
BBX 20 26 1 -2
BITMAP
0000000068
0006FF90F8
007FFFFEF0
01FFFFFFD0
07FF95BFD0
0BF8002FF0
1FF0003FF4
2FD000BFFC
3FC001F7FC
3F8003E2FD
7F800BC2FD
7F801F41FE
7F802F01FE
7F807D01FE
7F80F801FD
3F82F002FD
3FC7D002FC
2FDB8003FC
1FFF400BF8
0BFE002FF0
07FF55BFD0
01FFFFFF80
03FFFFFD00
0BC6FF9000
1F40000000
0500000000
ENDCHAR
STARTCHAR Ugrave
ENCODING 217
SWIDTH 651 0
DWIDTH 21 0
BBX 17 29 2 0
BITMAP
02FE000000
00BF400000
002FC00000
000FE00000
0007A00000
0000000000
FF00003FC0
FF00003FC0
FF00003FC0
FF00003FC0
FF00003FC0
FF00003FC0
FF00003FC0
FF00003FC0
FF00003FC0
FF00003FC0
FF00003FC0
FF00003FC0
FF00003FC0
FF00003FC0
FF00003FC0
FF00003FC0
FF00003FC0
BF40007F80
7FC000FF40
3FF55BFE00
1FFFFFFC00
02FFFFE000
006FFA4000
ENDCHAR
STARTCHAR Uacute
ENCODING 218
SWIDTH 651 0
DWIDTH 21 0
BBX 17 29 2 0
BITMAP
00002FD000
00007F8000
0001FE0000
0002F80000
0006F00000
0000000000
FF00003FC0
FF00003FC0
FF00003FC0
FF00003FC0
FF00003FC0
FF00003FC0
FF00003FC0
FF00003FC0
FF00003FC0
FF00003FC0
FF00003FC0
FF00003FC0
FF00003FC0
FF00003FC0
FF00003FC0
FF00003FC0
FF00003FC0
BF40007F80
7FC000FF40
3FF55BFE00
1FFFFFFC00
02FFFFE000
006FFA4000
ENDCHAR
STARTCHAR Ucircumflex
ENCODING 219
SWIDTH 651 0
DWIDTH 21 0
BBX 17 30 2 0
BITMAP
0007F00000
001FFC0000
007FBF0000
01FD2FC000
01B80B9000
0000000000
0000000000
FF00003FC0
FF00003FC0
FF00003FC0
FF00003FC0
FF00003FC0
FF00003FC0
FF00003FC0
FF00003FC0
FF00003FC0
FF00003FC0
FF00003FC0
FF00003FC0
FF00003FC0
FF00003FC0
FF00003FC0
FF00003FC0
FF00003FC0
BF40007F80
7FC000FF40
3FF55BFE00
1FFFFFFC00
02FFFFE000
006FFA4000
ENDCHAR
STARTCHAR Udieresis
ENCODING 220
SWIDTH 651 0
DWIDTH 21 0
BBX 17 29 2 0
BITMAP
01A0028000
03F80BE000
03F80FF000
01F407D000
0000000000
0000000000
FF00003FC0
FF00003FC0
FF00003FC0
FF00003FC0
FF00003FC0
FF00003FC0
FF00003FC0
FF00003FC0
FF00003FC0
FF00003FC0
FF00003FC0
FF00003FC0
FF00003FC0
FF00003FC0
FF00003FC0
FF00003FC0
FF00003FC0
BF40007F80
7FC000FF40
3FF55BFE00
1FFFFFFC00
02FFFFE000
006FFA4000
ENDCHAR
STARTCHAR Yacute
ENCODING 221
SWIDTH 609 0
DWIDTH 20 0
BBX 19 29 0 0
BITMAP
000007F800
00000FF000
00002FC000
00007F4000
0000AD0000
0000000000
BF800007FC
3FD0000BF8
2FE0001FF0
0FF4002FE0
0BF8007FC0
03FC00BF40
01FE00FF00
00FF02FD00
007F83FC00
003FCBF400
001FEFE000
000FFFD000
0007FF8000
0002FF4000
0001FE0000
0001FE0000
0001FE0000
0001FE0000
0001FE0000
0001FE0000
0001FE0000
0001FE0000
0001FE0000
ENDCHAR
STARTCHAR Thorn
ENCODING 222
SWIDTH 598 0
DWIDTH 19 0
BBX 16 23 2 0
BITMAP
BF000000
BF000000
BF000000
BF000000
BFFFF900
BFFFFFD0
BFFFFFF4
BF001BFC
BF0002FE
BF0000FE
BF0000FF
BF0000FF
BF0000FE
BF0002FE
BF001BFC
BFFFFFF4
BFFFFFD0
BFFFF900
BF000000
BF000000
BF000000
BF000000
BF000000
ENDCHAR
STARTCHAR germandbls
ENCODING 223
SWIDTH 612 0
DWIDTH 20 0
BBX 17 24 2 0
BITMAP
01BFE40000
0BFFFE0000
2FFFFF4000
7FD0BFC000
BF402FC000
BF002FD000
FF002FC000
FF003FC000
FF00BF4000
FF00FE0000
FF01FD0000
FF01FD0000
FF01FF0000
FF00BF8000
FF003FF000
FF000BFC00
FF0002FE00
FF0000BF40
FF00007F40
FF0000BF40
FF0941FF00
FF1FFFFE00
FF1FFFF800
FF06FF9000
ENDCHAR
STARTCHAR agrave
ENCODING 224
SWIDTH 541 0
DWIDTH 17 0
BBX 15 24 1 0
BITMAP
07FC0000
01FE0000
007F4000
002FD000
000B9000
00000000
00000000
006FE800
07FFFF40
1FFFFFD0
2FE02FF0
3F800BF0
15000BF4
00000BF4
01AFFFF4
0BFFFFF4
2FF95BF4
7F800BF4
BF400BF4
BF400BF4
7FD06FF4
3FFFFFF4
1FFFFBF8
02BF83FC
ENDCHAR
STARTCHAR aacute
ENCODING 225
SWIDTH 541 0
DWIDTH 17 0
BBX 15 24 1 0
BITMAP
00007F80
0000FF00
0002FD00
0007F400
000AD000
00000000
00000000
006FE800
07FFFF40
1FFFFFD0
2FE02FF0
3F800BF0
15000BF4
00000BF4
01AFFFF4
0BFFFFF4
2FF95BF4
7F800BF4
BF400BF4
BF400BF4
7FD06FF4
3FFFFFF4
1FFFFBF8
02BF83FC
ENDCHAR
STARTCHAR acircumflex
ENCODING 226
SWIDTH 541 0
DWIDTH 17 0
BBX 15 25 1 0
BITMAP
000BD000
002FF400
00BEFD00
02F83F40
06F01E80
00000000
00000000
00000000
006FE800
07FFFF40
1FFFFFD0
2FE02FF0
3F800BF0
15000BF4
00000BF4
01AFFFF4
0BFFFFF4
2FF95BF4
7F800BF4
BF400BF4
BF400BF4
7FD06FF4
3FFFFFF4
1FFFFBF8
02BF83FC
ENDCHAR
STARTCHAR atilde
ENCODING 227
SWIDTH 541 0
DWIDTH 17 0
BBX 15 24 1 0
BITMAP
00640290
02FFABD0
0BFFFFC0
0B81BE00
00000000
00000000
00000000
006FE800
07FFFF40
1FFFFFD0
2FE02FF0
3F800BF0
15000BF4
00000BF4
01AFFFF4
0BFFFFF4
2FF95BF4
7F800BF4
BF400BF4
BF400BF4
7FD06FF4
3FFFFFF4
1FFFFBF8
02BF83FC
ENDCHAR
STARTCHAR adieresis
ENCODING 228
SWIDTH 541 0
DWIDTH 17 0
BBX 15 24 1 0
BITMAP
02900640
0BF01FD0
0BF41FD0
02E00B80
00000000
00000000
00000000
006FE800
07FFFF40
1FFFFFD0
2FE02FF0
3F800BF0
15000BF4
00000BF4
01AFFFF4
0BFFFFF4
2FF95BF4
7F800BF4
BF400BF4
BF400BF4
7FD06FF4
3FFFFFF4
1FFFFBF8
02BF83FC
ENDCHAR
STARTCHAR aring
ENCODING 229
SWIDTH 541 0
DWIDTH 17 0
BBX 15 26 1 0
BITMAP
00054000
002FF400
00787C00
00B41D00
00742D00
003EB800
000BE000
00000000
00000000
006FE800
07FFFF40
1FFFFFD0
2FE02FF0
3F800BF0
15000BF4
00000BF4
01AFFFF4
0BFFFFF4
2FF95BF4
7F800BF4
BF400BF4
BF400BF4
7FD06FF4
3FFFFFF4
1FFFFBF8
02BF83FC
ENDCHAR
STARTCHAR ae
ENCODING 230
SWIDTH 844 0
DWIDTH 27 0
BBX 25 17 1 0
BITMAP
00AFE802FF9000
07FFFF5FFFF800
1FFFFFFFFFFE00
3FE46FFF41FF40
7F800FFD007F80
15400BF8003FC0
00000BF4002FC0
01BFFFFFFFFFC0
1FFFFFFFFFFFC0
7FFAABFAAAAA80
BF800BF4000000
BF000BF8000000
FF000BFD000100
BF806FFF906F00
7FFFFFBFFFFF40
1FFFFD1FFFFF40
06FF9001BFA400
ENDCHAR
STARTCHAR ccedilla
ENCODING 231
SWIDTH 523 0
DWIDTH 17 0
BBX 15 24 1 -7
BITMAP
006FF900
02FFFF80
0BFFFFE0
2FE41FF4
3FC007F8
7F4003F8
BF400050
BF000000
BF000000
BF000000
BF400000
7F4002A8
3FC007F8
2FE41FF4
0FFFFFD0
02FFFF40
006FE800
000FC000
001FF400
0006FC00
0000FC00
0006FC00
000FF400
000F9000
ENDCHAR
STARTCHAR egrave
ENCODING 232
SWIDTH 536 0
DWIDTH 17 0
BBX 16 24 1 0
BITMAP
07FC0000
01FE0000
00BF4000
002FC000
000F9000
00000000
00000000
006FF900
01FFFF80
0BFFFFE0
1FF41FF0
3FD007F8
7F8002FC
7F4002FC
BFFFFFFC
BFFFFFFD
BFAAAAA8
BF400000
7F800000
3FD00090
1FF806F4
0BFFFFF4
02FFFFD0
002BF900
ENDCHAR
STARTCHAR eacute
ENCODING 233
SWIDTH 536 0
DWIDTH 17 0
BBX 16 24 1 0
BITMAP
0000BF80
0001FE00
0003FC00
000BF000
000AD000
00000000
00000000
006FF900
01FFFF80
0BFFFFE0
1FF41FF0
3FD007F8
7F8002FC
7F4002FC
BFFFFFFC
BFFFFFFD
BFAAAAA8
BF400000
7F800000
3FD00090
1FF806F4
0BFFFFF4
02FFFFD0
002BF900
ENDCHAR
STARTCHAR ecircumflex
ENCODING 234
SWIDTH 536 0
DWIDTH 17 0
BBX 16 25 1 0
BITMAP
000FD000
002FF400
00BEFD00
02F87F40
06E01E80
00000000
00000000
00000000
006FF900
01FFFF80
0BFFFFE0
1FF41FF0
3FD007F8
7F8002FC
7F4002FC
BFFFFFFC
BFFFFFFD
BFAAAAA8
BF400000
7F800000
3FD00090
1FF806F4
0BFFFFF4
02FFFFD0
002BF900
ENDCHAR
STARTCHAR edieresis
ENCODING 235
SWIDTH 536 0
DWIDTH 17 0
BBX 16 24 1 0
BITMAP
02900A40
0BF02FC0
0BF02FC0
07D01F80
00000000
00000000
00000000
006FF900
01FFFF80
0BFFFFE0
1FF41FF0
3FD007F8
7F8002FC
7F4002FC
BFFFFFFC
BFFFFFFD
BFAAAAA8
BF400000
7F800000
3FD00090
1FF806F4
0BFFFFF4
02FFFFD0
002BF900
ENDCHAR
STARTCHAR igrave
ENCODING 236
SWIDTH 262 0
DWIDTH 8 0
BBX 7 24 -1 0
BITMAP
BF40
3FD0
0FE0
07F8
01E8
0000
0000
02FC
02FC
02FC
02FC
02FC
02FC
02FC
02FC
02FC
02FC
02FC
02FC
02FC
02FC
02FC
02FC
02FC
ENDCHAR
STARTCHAR iacute
ENCODING 237
SWIDTH 262 0
DWIDTH 8 0
BBX 8 24 2 0
BITMAP
03FD
0BF4
1FD0
3F80
6E00
0000
0000
BF00
BF00
BF00
BF00
BF00
BF00
BF00
BF00
BF00
BF00
BF00
BF00
BF00
BF00
BF00
BF00
BF00
ENDCHAR
STARTCHAR icircumflex
ENCODING 238
SWIDTH 262 0
DWIDTH 8 0
BBX 11 25 -1 0
BITMAP
01F800
07FE00
1FEF80
7F4BE0
AD02E4
000000
000000
000000
02FC00
02FC00
02FC00
02FC00
02FC00
02FC00
02FC00
02FC00
02FC00
02FC00
02FC00
02FC00
02FC00
02FC00
02FC00
02FC00
02FC00
ENDCHAR
STARTCHAR idieresis
ENCODING 239
SWIDTH 262 0
DWIDTH 8 0
BBX 12 24 -2 0
BITMAP
190068
7F40FE
7F80FE
2E00BD
000000
000000
000000
00BF00
00BF00
00BF00
00BF00
00BF00
00BF00
00BF00
00BF00
00BF00
00BF00
00BF00
00BF00
00BF00
00BF00
00BF00
00BF00
00BF00
ENDCHAR
STARTCHAR eth
ENCODING 240
SWIDTH 581 0
DWIDTH 19 0
BBX 16 24 1 0
BITMAP
01E40000
02FF40A0
03FFE7F4
01BFFF90
0007FF40
000BFFD0
007F6FF0
00280BF4
000003FC
006FE6FD
02FFFFFE
0BFFFFFE
1FF406FF
2FD000FF
3F8000BF
7F8000BF
7F4000FF
7F4000FE
3F8001FD
2FD003FC
1FF41BF8
0BFFFFE0
01FFFF80
001BF900
ENDCHAR
STARTCHAR ntilde
ENCODING 241
SWIDTH 556 0
DWIDTH 18 0
BBX 14 24 2 0
BITMAP
01940A40
0BFFAF40
1FFFFF00
2E06F900
00000000
00000000
00000000
FD1BF900
FEBFFF40
FFFFFFC0
FFD47FE0
FF401FE0
FE000FF0
FE000FF0
FE000FF0
FE000FF0
FE000FF0
FE000FF0
FE000FF0
FE000FF0
FE000FF0
FE000FF0
FE000FF0
FE000FF0
ENDCHAR
STARTCHAR ograve
ENCODING 242
SWIDTH 569 0
DWIDTH 18 0
BBX 16 24 1 0
BITMAP
03FD0000
01FF0000
007F8000
001FD000
000B9000
00000000
00000000
006FF900
02FFFF80
0BFFFFF0
1FF41FF8
3FD003FD
7F8001FE
BF4000FE
BF0000FF
BF0000FF
BF0000FF
BF4000FE
7F8001FE
3FC003FC
1FF41BF8
0BFFFFF0
02FFFF80
006FF900
ENDCHAR
STARTCHAR oacute
ENCODING 243
SWIDTH 569 0
DWIDTH 18 0
BBX 16 24 1 0
BITMAP
00007FC0
0000FF40
0002FD00
0007F400
0006E000
00000000
00000000
006FF900
02FFFF80
0BFFFFF0
1FF41FF8
3FD003FD
7F8001FE
BF4000FE
BF0000FF
BF0000FF
BF0000FF
BF4000FE
7F8001FE
3FC003FC
1FF41BF8
0BFFFFF0
02FFFF80
006FF900
ENDCHAR
STARTCHAR ocircumflex
ENCODING 244
SWIDTH 569 0
DWIDTH 18 0
BBX 16 25 1 0
BITMAP
000BE000
002FF800
00BEBE00
02FC3F80
02B00E80
00000000
00000000
00000000
006FF900
02FFFF80
0BFFFFF0
1FF41FF8
3FD003FD
7F8001FE
BF4000FE
BF0000FF
BF0000FF
BF0000FF
BF4000FE
7F8001FE
3FC003FC
1FF41BF8
0BFFFFF0
02FFFF80
006FF900
ENDCHAR
STARTCHAR otilde
ENCODING 245
SWIDTH 569 0
DWIDTH 18 0
BBX 16 24 1 0
BITMAP
00650290
02FFEBE0
07FFFFC0
0B81BE40
00000000
00000000
00000000
006FF900
02FFFF80
0BFFFFF0
1FF41FF8
3FD003FD
7F8001FE
BF4000FE
BF0000FF
BF0000FF
BF0000FF
BF4000FE
7F8001FE
3FC003FC
1FF41BF8
0BFFFFF0
02FFFF80
006FF900
ENDCHAR
STARTCHAR odieresis
ENCODING 246
SWIDTH 569 0
DWIDTH 18 0
BBX 16 24 1 0
BITMAP
01900640
07F41FD0
07F41FD0
02E00B80
00000000
00000000
00000000
006FF900
02FFFF80
0BFFFFF0
1FF41FF8
3FD003FD
7F8001FE
BF4000FE
BF0000FF
BF0000FF
BF0000FF
BF4000FE
7F8001FE
3FC003FC
1FF41BF8
0BFFFFF0
02FFFF80
006FF900
ENDCHAR
STARTCHAR divide
ENCODING 247
SWIDTH 570 0
DWIDTH 18 0
BBX 16 17 1 2
BITMAP
00069000
000FF000
000FF000
000BE000
00014000
00000000
00000000
FFFFFFFF
FFFFFFFF
FFFFFFFF
55555555
00000000
00000000
0007D000
000FF000
000FF000
000BE000
ENDCHAR
STARTCHAR oslash
ENCODING 248
SWIDTH 566 0
DWIDTH 18 0
BBX 16 21 1 -2
BITMAP
000000A4
000001F0
006FFBD0
02FFFFC0
0BFFFFE0
1FF42FF8
3FD03FFD
7F807DFD
BF40F4FE
BF01F0FF
BF03D0FF
BF0780FF
BF4F40FE
7F9E01FE
3FFD03FC
1FFC1BF8
0BFFFFF0
02FFFF80
03EFF900
07800000
0A400000
ENDCHAR
STARTCHAR ugrave
ENCODING 249
SWIDTH 555 0
DWIDTH 18 0
BBX 14 24 2 0
BITMAP
0FF40000
07F80000
01FE0000
00BF4000
002E4000
00000000
00000000
FE000FF0
FE000FF0
FE000FF0
FE000FF0
FE000FF0
FE000FF0
FE000FF0
FE000FF0
FE000FF0
FE000FF0
FE000FF0
FE000FF0
FF001FF0
BF91BFF0
7FFFFFF0
2FFFEBF0
06FE4BF0
ENDCHAR
STARTCHAR uacute
ENCODING 250
SWIDTH 555 0
DWIDTH 18 0
BBX 14 24 2 0
BITMAP
0001FF00
0003FC00
000BF400
001FD000
002B4000
00000000
00000000
FE000FF0
FE000FF0
FE000FF0
FE000FF0
FE000FF0
FE000FF0
FE000FF0
FE000FF0
FE000FF0
FE000FF0
FE000FF0
FE000FF0
FF001FF0
BF91BFF0
7FFFFFF0
2FFFEBF0
06FE4BF0
ENDCHAR
STARTCHAR ucircumflex
ENCODING 251
SWIDTH 555 0
DWIDTH 18 0
BBX 14 25 2 0
BITMAP
002F8000
00BFD000
02FBF400
0BE0FD00
1AC07A00
00000000
00000000
00000000
FE000FF0
FE000FF0
FE000FF0
FE000FF0
FE000FF0
FE000FF0
FE000FF0
FE000FF0
FE000FF0
FE000FF0
FE000FF0
FE000FF0
FF001FF0
BF91BFF0
7FFFFFF0
2FFFEBF0
06FE4BF0
ENDCHAR
STARTCHAR udieresis
ENCODING 252
SWIDTH 555 0
DWIDTH 18 0
BBX 14 24 2 0
BITMAP
06401900
1FC07F40
2FD07F40
0B802E00
00000000
00000000
00000000
FE000FF0
FE000FF0
FE000FF0
FE000FF0
FE000FF0
FE000FF0
FE000FF0
FE000FF0
FE000FF0
FE000FF0
FE000FF0
FE000FF0
FF001FF0
BF91BFF0
7FFFFFF0
2FFFEBF0
06FE4BF0
ENDCHAR
STARTCHAR yacute
ENCODING 253
SWIDTH 486 0
DWIDTH 16 0
BBX 16 31 0 -7
BITMAP
00007FC0
0000FF40
0002FD00
0007F400
0006E000
00000000
00000000
BF4003FD
7F8003F8
3FC007F4
2FD00BF0
1FE00FE0
0FF01FD0
0BF42FC0
07F83F80
03FC7F40
02FDBF00
00FEBE00
00BFFD00
007FFC00
003FF800
002FF400
001FF000
000FE000
000FD000
001FC000
003F8000
05BF4000
1FFE0000
1FFC0000
1FE00000
ENDCHAR
STARTCHAR thorn
ENCODING 254
SWIDTH 573 0
DWIDTH 18 0
BBX 15 31 2 -7
BITMAP
FE000000
FE000000
FE000000
FE000000
FE000000
FE000000
FE000000
FE1BF800
FFBFFF40
FFFFFFD0
FFD47FF0
FF400FF4
FE0007F8
FE0003F8
FE0003F8
FE0003FC
FE0003F8
FE0003F8
FE0007F8
FF000FF4
FFD06FE0
FFFFFFD0
FFBFFF40
FE1BF800
FE000000
FE000000
FE000000
FE000000
FE000000
FE000000
FE000000
ENDCHAR
STARTCHAR ydieresis
ENCODING 255
SWIDTH 486 0
DWIDTH 16 0
BBX 16 31 0 -7
BITMAP
01900640
07F41FD0
07F41FE0
02E00B80
00000000
00000000
00000000
BF4003FD
7F8003F8
3FC007F4
2FD00BF0
1FE00FE0
0FF01FD0
0BF42FC0
07F83F80
03FC7F40
02FDBF00
00FEBE00
00BFFD00
007FFC00
003FF800
002FF400
001FF000
000FE000
000FD000
001FC000
003F8000
05BF4000
1FFE0000
1FFC0000
1FE00000
ENDCHAR
STARTCHAR Amacron
ENCODING 256
SWIDTH 665 0
DWIDTH 21 0
BBX 21 29 0 0
BITMAP
001555550000
002FFFFF0000
002FFFFF0000
000000000000
000000000000
000000000000
00007F800000
0000BFC00000
0000FFD00000
0001FFE00000
0002FFF00000
0007FBF40000
000BF2FC0000
000FE1FD0000
001FD0FE0000
002FC0BF0000
003F807F4000
007F403F8000
00BF002FC000
01FE001FD000
02FFFFFFF000
03FFFFFFF400
07FFFFFFF800
0BF55557FC00
0FE00002FD00
1FD00001FE00
2FD00000FF00
3FC00000BF40
BF8000007FC0
ENDCHAR
STARTCHAR amacron
ENCODING 257
SWIDTH 541 0
DWIDTH 17 0
BBX 15 24 1 0
BITMAP
05555540
07FFFFD0
07FFFFD0
00000000
00000000
00000000
00000000
006FE800
07FFFF40
1FFFFFD0
2FE02FF0
3F800BF0
15000BF4
00000BF4
01AFFFF4
0BFFFFF4
2FF95BF4
7F800BF4
BF400BF4
BF400BF4
7FD06FF4
3FFFFFF4
1FFFFBF8
02BF83FC
ENDCHAR
STARTCHAR Abreve
ENCODING 258
SWIDTH 665 0
DWIDTH 21 0
BBX 21 28 0 0
BITMAP
001F807E0000
000FE5FD0000
0007FFF80000
0001BF900000
000000000000
00007F800000
0000BFC00000
0000FFD00000
0001FFE00000
0002FFF00000
0007FBF40000
000BF2FC0000
000FE1FD0000
001FD0FE0000
002FC0BF0000
003F807F4000
007F403F8000
00BF002FC000
01FE001FD000
02FFFFFFF000
03FFFFFFF400
07FFFFFFF800
0BF55557FC00
0FE00002FD00
1FD00001FE00
2FD00000FF00
3FC00000BF40
BF8000007FC0
ENDCHAR
STARTCHAR abreve
ENCODING 259
SWIDTH 541 0
DWIDTH 17 0
BBX 15 23 1 0
BITMAP
03E00FC0
03F96F80
01FFFF00
002FE400
00000000
00000000
006FE800
07FFFF40
1FFFFFD0
2FE02FF0
3F800BF0
15000BF4
00000BF4
01AFFFF4
0BFFFFF4
2FF95BF4
7F800BF4
BF400BF4
BF400BF4
7FD06FF4
3FFFFFF4
1FFFFBF8
02BF83FC
ENDCHAR
STARTCHAR Aogonek
ENCODING 260
SWIDTH 665 0
DWIDTH 21 0
BBX 21 30 0 -7
BITMAP
00007F800000
0000BFC00000
0000FFD00000
0001FFE00000
0002FFF00000
0007FBF40000
000BF2FC0000
000FE1FD0000
001FD0FE0000
002FC0BF0000
003F807F4000
007F403F8000
00BF002FC000
01FE001FD000
02FFFFFFF000
03FFFFFFF400
07FFFFFFF800
0BF55557FC00
0FE00002FD00
1FD00001FE00
2FD00000FF00
3FC00000BF40
BF8000007FC0
00000000BD00
00000002F400
00000007E000
00000007E000
00000007FA00
00000003FF40
00000001BE00
ENDCHAR
STARTCHAR aogonek
ENCODING 261
SWIDTH 541 0
DWIDTH 17 0
BBX 15 24 1 -7
BITMAP
006FE800
07FFFF40
1FFFFFD0
2FE02FF0
3F800BF0
15000BF4
00000BF4
01AFFFF4
0BFFFFF4
2FF95BF4
7F800BF4
BF400BF4
BF400BF4
7FD06FF4
3FFFFFF4
1FFFFBF8
02BF83FC
00000BE0
00002F80
00003F00
00007E00
00003FA4
00002FF4
00000BE4
ENDCHAR
STARTCHAR Cacute
ENCODING 262
SWIDTH 652 0
DWIDTH 21 0
BBX 19 29 1 0
BITMAP
00000BF800
00001FE000
00003FC000
0000BF0000
0000AD0000
0000000000
0006FF9000
007FFFFD00
01FFFFFF40
07FE55BFD0
0FF8002FE0
1FE0000FF0
2FD0000BF4
3FC00006A4
7F80000000
7F80000000
7F80000000
7F80000000
7F80000000
7F80000000
7F80000000
3FC00006A4
3FD0000BF4
1FE0000FF4
0FF4002FE0
07FE55BFD0
02FFFFFF40
007FFFFD00
0006FF9000
ENDCHAR
STARTCHAR cacute
ENCODING 263
SWIDTH 523 0
DWIDTH 17 0
BBX 15 24 1 0
BITMAP
0000FF40
0002FD00
0007F800
000FE000
001B8000
00000000
00000000
006FF900
02FFFF80
0BFFFFE0
2FE41FF4
3FC007F8
7F4003F8
BF400050
BF000000
BF000000
BF000000
BF400000
7F4002A8
3FC007F8
2FE41FF4
0FFFFFD0
02FFFF40
006FE800
ENDCHAR
STARTCHAR Ccircumflex
ENCODING 264
SWIDTH 652 0
DWIDTH 21 0
BBX 19 30 1 0
BITMAP
0000FD0000
0002FF4000
000BEFD000
002F87F400
006E01E800
0000000000
0000000000
0006FF9000
007FFFFD00
01FFFFFF40
07FE55BFD0
0FF8002FE0
1FE0000FF0
2FD0000BF4
3FC00006A4
7F80000000
7F80000000
7F80000000
7F80000000
7F80000000
7F80000000
7F80000000
3FC00006A4
3FD0000BF4
1FE0000FF4
0FF4002FE0
07FE55BFD0
02FFFFFF40
007FFFFD00
0006FF9000
ENDCHAR
STARTCHAR ccircumflex
ENCODING 265
SWIDTH 523 0
DWIDTH 17 0
BBX 15 25 1 0
BITMAP
001FC000
007FE000
01FEF800
07F4BE00
0AD02E40
00000000
00000000
00000000
006FF900
02FFFF80
0BFFFFE0
2FE41FF4
3FC007F8
7F4003F8
BF400050
BF000000
BF000000
BF000000
BF400000
7F4002A8
3FC007F8
2FE41FF4
0FFFFFD0
02FFFF40
006FE800
ENDCHAR
STARTCHAR Cdotaccent
ENCODING 266
SWIDTH 652 0
DWIDTH 21 0
BBX 19 28 1 0
BITMAP
0000680000
0001FE0000
0001FE0000
0000B80000
0000000000
0006FF9000
007FFFFD00
01FFFFFF40
07FE55BFD0
0FF8002FE0
1FE0000FF0
2FD0000BF4
3FC00006A4
7F80000000
7F80000000
7F80000000
7F80000000
7F80000000
7F80000000
7F80000000
3FC00006A4
3FD0000BF4
1FE0000FF4
0FF4002FE0
07FE55BFD0
02FFFFFF40
007FFFFD00
0006FF9000
ENDCHAR
STARTCHAR cdotaccent
ENCODING 267
SWIDTH 523 0
DWIDTH 17 0
BBX 15 23 1 0
BITMAP
000A4000
002FD000
002FD000
001B8000
00000000
00000000
006FF900
02FFFF80
0BFFFFE0
2FE41FF4
3FC007F8
7F4003F8
BF400050
BF000000
BF000000
BF000000
BF400000
7F4002A8
3FC007F8
2FE41FF4
0FFFFFD0
02FFFF40
006FE800
ENDCHAR
STARTCHAR Ccaron
ENCODING 268
SWIDTH 652 0
DWIDTH 21 0
BBX 19 30 1 0
BITMAP
00BE01F800
002F87F000
000BEFC000
0002FF4000
0000FD0000
0000000000
0000000000
0006FF9000
007FFFFD00
01FFFFFF40
07FE55BFD0
0FF8002FE0
1FE0000FF0
2FD0000BF4
3FC00006A4
7F80000000
7F80000000
7F80000000
7F80000000
7F80000000
7F80000000
7F80000000
3FC00006A4
3FD0000BF4
1FE0000FF4
0FF4002FE0
07FE55BFD0
02FFFFFF40
007FFFFD00
0006FF9000
ENDCHAR
STARTCHAR ccaron
ENCODING 269
SWIDTH 523 0
DWIDTH 17 0
BBX 15 25 1 0
BITMAP
0BD02F80
03F4BE00
01FEF800
007FE000
001FC000
00000000
00000000
00000000
006FF900
02FFFF80
0BFFFFE0
2FE41FF4
3FC007F8
7F4003F8
BF400050
BF000000
BF000000
BF000000
BF400000
7F4002A8
3FC007F8
2FE41FF4
0FFFFFD0
02FFFF40
006FE800
ENDCHAR
STARTCHAR Dcaron
ENCODING 270
SWIDTH 653 0
DWIDTH 21 0
BBX 18 30 2 0
BITMAP
1FC07F4000
07E0FD0000
02FBF40000
00BFD00000
002F800000
0000000000
0000000000
BFFFE40000
BFFFFF8000
BFFFFFE000
BF556FF800
BF4003FE00
BF4000FF00
BF4000BF80
BF40003FC0
BF40003FC0
BF40002FD0
BF40002FD0
BF40002FD0
BF40002FD0
BF40002FD0
BF40003FC0
BF40003FC0
BF4000BF80
BF4001FF00
BF4007FE00
BF416FF800
BFFFFFE000
BFFFFF8000
BFFFE40000
ENDCHAR
STARTCHAR dcaron
ENCODING 271
SWIDTH 637 0
DWIDTH 20 0
BBX 21 24 1 0
BITMAP
000002FC2F40
000002FC2F40
000002FC3F40
000002FC7F00
000002FCBD00
000002FC2800
000002FC0000
00BF92FC0000
07FFFAFC0000
0FFFFFFC0000
2FF45FFC0000
3FC007FC0000
7F8002FC0000
BF4002FC0000
BF0002FC0000
BF0002FC0000
BF0002FC0000
BF4002FC0000
7F4002FC0000
3FC007FC0000
2FF41FFC0000
0FFFFFFC0000
07FFFAFC0000
00BF91FC0000
ENDCHAR
STARTCHAR Dcroat
ENCODING 272
SWIDTH 667 0
DWIDTH 21 0
BBX 20 23 0 0
BITMAP
07FFFE9000
07FFFFF900
07FFFFFF40
07F955FFD0
07F8002FF0
07F8000BF8
07F80003FC
07F80002FD
07F80001FE
07F80001FE
FFFFF401FE
FFFFF401FE
ABFEA401FE
07F80001FE
07F80001FE
07F80002FD
07F80003FC
07F8000BF8
07F8002FF0
07F815FFD0
07FFFFFF40
07FFFFF900
07FFFE9000
ENDCHAR
STARTCHAR dcroat
ENCODING 273
SWIDTH 615 0
DWIDTH 20 0
BBX 18 24 1 0
BITMAP
000002FC00
000002FC00
0002FFFFE0
0002FFFFE0
0001ABFEA0
000002FC00
000002FC00
00BF92FC00
07FFFAFC00
0FFFFFFC00
2FF45FFC00
3FC007FC00
7F8002FC00
BF4002FC00
BF0002FC00
BF0002FC00
BF0002FC00
BF4002FC00
7F4002FC00
3FC007FC00
2FF41FFC00
0FFFFFFC00
07FFFAFC00
00BF91FC00
ENDCHAR
STARTCHAR Emacron
ENCODING 274
SWIDTH 565 0
DWIDTH 18 0
BBX 16 29 2 0
BITMAP
05555540
0BFFFFD0
0BFFFFD0
00000000
00000000
00000000
BFFFFFFC
BFFFFFFC
BFFFFFFC
BF555554
BF400000
BF400000
BF400000
BF400000
BF400000
BF400000
BFFFFFE0
BFFFFFE0
BFFFFFE0
BF400000
BF400000
BF400000
BF400000
BF400000
BF400000
BF400000
BFFFFFFD
BFFFFFFD
BFFFFFFD
ENDCHAR
STARTCHAR emacron
ENCODING 275
SWIDTH 536 0
DWIDTH 17 0
BBX 16 24 1 0
BITMAP
05555540
0BFFFFC0
0BFFFFC0
00000000
00000000
00000000
00000000
006FF900
01FFFF80
0BFFFFE0
1FF41FF0
3FD007F8
7F8002FC
7F4002FC
BFFFFFFC
BFFFFFFD
BFAAAAA8
BF400000
7F800000
3FD00090
1FF806F4
0BFFFFF4
02FFFFD0
002BF900
ENDCHAR
STARTCHAR Ebreve
ENCODING 276
SWIDTH 565 0
DWIDTH 18 0
BBX 16 28 2 0
BITMAP
07E00F80
03F96F80
01FFFE00
002FE400
00000000
BFFFFFFC
BFFFFFFC
BFFFFFFC
BF555554
BF400000
BF400000
BF400000
BF400000
BF400000
BF400000
BFFFFFE0
BFFFFFE0
BFFFFFE0
BF400000
BF400000
BF400000
BF400000
BF400000
BF400000
BF400000
BFFFFFFD
BFFFFFFD
BFFFFFFD
ENDCHAR
STARTCHAR ebreve
ENCODING 277
SWIDTH 536 0
DWIDTH 17 0
BBX 16 23 1 0
BITMAP
07E01F80
03F57F40
01FFFE00
006FE400
00000000
00000000
006FF900
01FFFF80
0BFFFFE0
1FF41FF0
3FD007F8
7F8002FC
7F4002FC
BFFFFFFC
BFFFFFFD
BFAAAAA8
BF400000
7F800000
3FD00090
1FF806F4
0BFFFFF4
02FFFFD0
002BF900
ENDCHAR
STARTCHAR Edotaccent
ENCODING 278
SWIDTH 565 0
DWIDTH 18 0
BBX 16 28 2 0
BITMAP
00068000
000FE000
001FE000
000BD000
00000000
BFFFFFFC
BFFFFFFC
BFFFFFFC
BF555554
BF400000
BF400000
BF400000
BF400000
BF400000
BF400000
BFFFFFE0
BFFFFFE0
BFFFFFE0
BF400000
BF400000
BF400000
BF400000
BF400000
BF400000
BF400000
BFFFFFFD
BFFFFFFD
BFFFFFFD
ENDCHAR
STARTCHAR edotaccent
ENCODING 279
SWIDTH 536 0
DWIDTH 17 0
BBX 16 23 1 0
BITMAP
00068000
001FE000
001FE000
000B8000
00000000
00000000
006FF900
01FFFF80
0BFFFFE0
1FF41FF0
3FD007F8
7F8002FC
7F4002FC
BFFFFFFC
BFFFFFFD
BFAAAAA8
BF400000
7F800000
3FD00090
1FF806F4
0BFFFFF4
02FFFFD0
002BF900
ENDCHAR
STARTCHAR Eogonek
ENCODING 280
SWIDTH 565 0
DWIDTH 18 0
BBX 16 30 2 -7
BITMAP
BFFFFFFC
BFFFFFFC
BFFFFFFC
BF555554
BF400000
BF400000
BF400000
BF400000
BF400000
BF400000
BFFFFFE0
BFFFFFE0
BFFFFFE0
BF400000
BF400000
BF400000
BF400000
BF400000
BF400000
BF400000
BFFFFFFD
BFFFFFFD
BFFFFFFD
00002F80
00007E00
0000FC00
0000FC00
0000FE90
0000BFE0
00002F90
ENDCHAR
STARTCHAR eogonek
ENCODING 281
SWIDTH 536 0
DWIDTH 17 0
BBX 16 24 1 -7
BITMAP
006FF900
01FFFF80
0BFFFFE0
1FF41FF0
3FD007F8
7F8002FC
7F4002FC
BFFFFFFC
BFFFFFFD
BFAAAAA8
BF400000
7F800000
3FD00090
2FF406F4
0BFFFFF4
02FFFFD0
006BFE00
0002F800
0007F000
0007E000
000BE000
0007FA00
0003FF40
0000BE00
ENDCHAR
STARTCHAR Ecaron
ENCODING 282
SWIDTH 565 0
DWIDTH 18 0
BBX 16 30 2 0
BITMAP
07F01FC0
02F87F00
00BEFD00
002FF400
000BD000
00000000
00000000
BFFFFFFC
BFFFFFFC
BFFFFFFC
BF555554
BF400000
BF400000
BF400000
BF400000
BF400000
BF400000
BFFFFFE0
BFFFFFE0
BFFFFFE0
BF400000
BF400000
BF400000
BF400000
BF400000
BF400000
BF400000
BFFFFFFD
BFFFFFFD
BFFFFFFD
ENDCHAR
STARTCHAR ecaron
ENCODING 283
SWIDTH 536 0
DWIDTH 17 0
BBX 16 25 1 0
BITMAP
0BE01F80
02F87F00
00BEFC00
002FF400
000FD000
00000000
00000000
00000000
006FF900
01FFFF80
0BFFFFE0
1FF41FF0
3FD007F8
7F8002FC
7F4002FC
BFFFFFFC
BFFFFFFD
BFAAAAA8
BF400000
7F800000
3FD00090
1FF806F4
0BFFFFF4
02FFFFD0
002BF900
ENDCHAR
STARTCHAR Gcircumflex
ENCODING 284
SWIDTH 680 0
DWIDTH 22 0
BBX 19 30 1 0
BITMAP
0000FD0000
0003FF4000
000FEFD000
003F87F400
006E01E800
0000000000
0000000000
0006FF9000
007FFFFD00
01FFFFFF80
07FE55BFD0
0FF8001FF0
1FE0000BF4
2FD00007F8
3FC0000154
7F80000000
7F80000000
7F80000000
7F800FFFF8
7F800FFFF8
7F800FFFF8
7F800007F8
3FC00007F8
2FD00007F8
1FF00007F8
0FF80007F8
07FF956FF8
01FFFFFFF0
006FFFFF80
0006FFA400
ENDCHAR
STARTCHAR gcircumflex
ENCODING 285
SWIDTH 566 0
DWIDTH 18 0
BBX 16 32 1 -7
BITMAP
000FD000
003FF400
00BEFD00
02F87F40
06E01E80
00000000
00000000
00000000
006FA1FD
07FFFEFD
0FFFFFFD
2FF41FFD
3FD003FD
7F8002FD
BF4002FD
BF0002FD
BF0002FD
BF0002FD
BF4002FD
7F8002FD
3FC003FD
2FF41FFD
0FFFFFFD
03FFFEFD
006FA2FD
000002FC
000003FC
0A0007F8
1FD02FF4
1FFFFFE0
07FFFF80
006FE800
ENDCHAR
STARTCHAR Gbreve
ENCODING 286
SWIDTH 680 0
DWIDTH 22 0
BBX 19 28 1 0
BITMAP
007E01F800
003F57F400
001FFFE000
0006FE4000
0000000000
0006FF9000
007FFFFD00
01FFFFFF80
07FE55BFD0
0FF8001FF0
1FE0000BF4
2FD00007F8
3FC0000154
7F80000000
7F80000000
7F80000000
7F800FFFF8
7F800FFFF8
7F800FFFF8
7F800007F8
3FC00007F8
2FD00007F8
1FF00007F8
0FF80007F8
07FF956FF8
01FFFFFFF0
006FFFFF80
0006FFA400
ENDCHAR
STARTCHAR gbreve
ENCODING 287
SWIDTH 566 0
DWIDTH 18 0
BBX 16 30 1 -7
BITMAP
07E01F80
03F57F40
01FFFE00
006FE400
00000000
00000000
006FA1FD
07FFFEFD
0FFFFFFD
2FF41FFD
3FD003FD
7F8002FD
BF4002FD
BF0002FD
BF0002FD
BF0002FD
BF4002FD
7F8002FD
3FC003FD
2FF41FFD
0FFFFFFD
03FFFEFD
006FA2FD
000002FC
000003FC
0A0007F8
1FD02FF4
1FFFFFE0
07FFFF80
006FE800
ENDCHAR
STARTCHAR Gdotaccent
ENCODING 288
SWIDTH 680 0
DWIDTH 22 0
BBX 19 28 1 0
BITMAP
0000A80000
0001FE0000
0001FE0000
0000B80000
0000000000
0006FF9000
007FFFFD00
01FFFFFF80
07FE55BFD0
0FF8001FF0
1FE0000BF4
2FD00007F8
3FC0000154
7F80000000
7F80000000
7F80000000
7F800FFFF8
7F800FFFF8
7F800FFFF8
7F800007F8
3FC00007F8
2FD00007F8
1FF00007F8
0FF80007F8
07FF956FF8
01FFFFFFF0
006FFFFF80
0006FFA400
ENDCHAR
STARTCHAR gdotaccent
ENCODING 289
SWIDTH 566 0
DWIDTH 18 0
BBX 16 30 1 -7
BITMAP
00068000
001FE000
001FE000
000B8000
00000000
00000000
006FA1FD
07FFFEFD
0FFFFFFD
2FF41FFD
3FD003FD
7F8002FD
BF4002FD
BF0002FD
BF0002FD
BF0002FD
BF4002FD
7F8002FD
3FC003FD
2FF41FFD
0FFFFFFD
03FFFEFD
006FA2FD
000002FC
000003FC
0A0007F8
1FD02FF4
1FFFFFE0
07FFFF80
006FE800
ENDCHAR
STARTCHAR uni0122
ENCODING 290
SWIDTH 680 0
DWIDTH 22 0
BBX 19 31 1 -8
BITMAP
0006FF9000
007FFFFD00
01FFFFFF80
07FE55BFD0
0FF8001FF0
1FE0000BF4
2FD00007F8
3FC0000154
7F80000000
7F80000000
7F80000000
7F800FFFF8
7F800FFFF8
7F800FFFF8
7F800007F8
3FC00007F8
2FD00007F8
1FF00007F8
0FF80007F8
07FF956FF8
01FFFFFFF0
006FFFFF80
0006FFA400
0000000000
0000000000
00007F0000
00007F0000
00007E0000
0000BD0000
0000FC0000
0000640000
ENDCHAR
STARTCHAR uni0123
ENCODING 291
SWIDTH 566 0
DWIDTH 18 0
BBX 16 33 1 -7
BITMAP
00019000
0003F000
000BE000
000FD000
000FD000
000FD000
000FD000
00000000
00000000
006FA1FD
07FFFEFD
0FFFFFFD
2FF41FFD
3FD003FD
7F8002FD
BF4002FD
BF0002FD
BF0002FD
BF0002FD
BF4002FD
7F8002FD
3FC003FD
2FF41FFD
0FFFFFFD
03FFFEFD
006FA2FD
000002FC
000003FC
0A0007F8
1FD02FF4
1FFFFFE0
07FFFF80
006FE800
ENDCHAR
STARTCHAR Hcircumflex
ENCODING 292
SWIDTH 710 0
DWIDTH 23 0
BBX 19 30 2 0
BITMAP
0001F80000
0007FE0000
001FEF8000
007F4BE000
00AD02E400
0000000000
0000000000
BF40000BF4
BF40000BF4
BF40000BF4
BF40000BF4
BF40000BF4
BF40000BF4
BF40000BF4
BF40000BF4
BF40000BF4
BF40000BF4
BFFFFFFFF4
BFFFFFFFF4
BFFFFFFFF4
BF55555BF4
BF40000BF4
BF40000BF4
BF40000BF4
BF40000BF4
BF40000BF4
BF40000BF4
BF40000BF4
BF40000BF4
BF40000BF4
ENDCHAR
STARTCHAR hcircumflex
ENCODING 293
SWIDTH 555 0
DWIDTH 18 0
BBX 14 30 2 0
BITMAP
00BE0000
02FF8000
0BEBE000
2FC3F800
2B40E800
00000000
FE000000
FE000000
FE000000
FE000000
FE000000
FE000000
FE000000
FE1BF900
FEBFFF40
FFFFFFC0
FFD57FD0
FF401FE0
FE000FE0
FE000FF0
FE000FF0
FE000FF0
FE000FF0
FE000FF0
FE000FF0
FE000FF0
FE000FF0
FE000FF0
FE000FF0
FE000FF0
ENDCHAR
STARTCHAR Hbar
ENCODING 294
SWIDTH 710 0
DWIDTH 23 0
BBX 23 23 0 0
BITMAP
0BF400007F40
0BF400007F40
0BF400007F40
0BF400007F40
BFFFFFFFFFF4
BFFFFFFFFFF4
6BFAAAAABFA4
0BF400007F40
0BF400007F40
0BF400007F40
0BFFFFFFFF40
0BFFFFFFFF40
0BFFFFFFFF40
0BF55555BF40
0BF400007F40
0BF400007F40
0BF400007F40
0BF400007F40
0BF400007F40
0BF400007F40
0BF400007F40
0BF400007F40
0BF400007F40
ENDCHAR
STARTCHAR hbar
ENCODING 295
SWIDTH 569 0
DWIDTH 18 0
BBX 18 24 -1 0
BITMAP
02FC000000
02FC000000
BFFFF80000
BFFFF80000
6BFEA80000
02FC000000
02FC000000
02FC2FE400
02FDFFFE00
02FFFFFF80
02FF91BFC0
02FE002FD0
02FC002FD0
02FC001FD0
02FC001FD0
02FC001FD0
02FC001FD0
02FC001FD0
02FC001FD0
02FC001FD0
02FC001FD0
02FC001FD0
02FC001FD0
02FC001FD0
ENDCHAR
STARTCHAR Itilde
ENCODING 296
SWIDTH 282 0
DWIDTH 9 0
BBX 11 29 -1 0
BITMAP
064028
7FFAFC
FFFFF8
F42FE0
000000
000000
01FD00
01FD00
01FD00
01FD00
01FD00
01FD00
01FD00
01FD00
01FD00
01FD00
01FD00
01FD00
01FD00
01FD00
01FD00
01FD00
01FD00
01FD00
01FD00
01FD00
01FD00
01FD00
01FD00
ENDCHAR
STARTCHAR itilde
ENCODING 297
SWIDTH 262 0
DWIDTH 8 0
BBX 12 24 -2 0
BITMAP
05901A
2FFEBE
7FFFFD
7D1BF4
000000
000000
000000
00BF00
00BF00
00BF00
00BF00
00BF00
00BF00
00BF00
00BF00
00BF00
00BF00
00BF00
00BF00
00BF00
00BF00
00BF00
00BF00
00BF00
ENDCHAR
STARTCHAR Imacron
ENCODING 298
SWIDTH 282 0
DWIDTH 9 0
BBX 11 29 -1 0
BITMAP
555554
BFFFFC
BFFFFC
000000
000000
000000
01FD00
01FD00
01FD00
01FD00
01FD00
01FD00
01FD00
01FD00
01FD00
01FD00
01FD00
01FD00
01FD00
01FD00
01FD00
01FD00
01FD00
01FD00
01FD00
01FD00
01FD00
01FD00
01FD00
ENDCHAR
STARTCHAR imacron
ENCODING 299
SWIDTH 262 0
DWIDTH 8 0
BBX 11 24 -1 0
BITMAP
555554
FFFFF8
FFFFF8
000000
000000
000000
000000
02FC00
02FC00
02FC00
02FC00
02FC00
02FC00
02FC00
02FC00
02FC00
02FC00
02FC00
02FC00
02FC00
02FC00
02FC00
02FC00
02FC00
ENDCHAR
STARTCHAR Ibreve
ENCODING 300
SWIDTH 282 0
DWIDTH 9 0
BBX 11 28 -1 0
BITMAP
7D01F8
7F57F4
2FFFE0
06FE40
000000
01FD00
01FD00
01FD00
01FD00
01FD00
01FD00
01FD00
01FD00
01FD00
01FD00
01FD00
01FD00
01FD00
01FD00
01FD00
01FD00
01FD00
01FD00
01FD00
01FD00
01FD00
01FD00
01FD00
ENDCHAR
STARTCHAR ibreve
ENCODING 301
SWIDTH 262 0
DWIDTH 8 0
BBX 11 23 -1 0
BITMAP
BC02F4
BE5BF0
2FFFD0
06FE40
000000
000000
02FC00
02FC00
02FC00
02FC00
02FC00
02FC00
02FC00
02FC00
02FC00
02FC00
02FC00
02FC00
02FC00
02FC00
02FC00
02FC00
02FC00
ENDCHAR
STARTCHAR Iogonek
ENCODING 302
SWIDTH 282 0
DWIDTH 9 0
BBX 7 30 0 -7
BITMAP
07F4
07F4
07F4
07F4
07F4
07F4
07F4
07F4
07F4
07F4
07F4
07F4
07F4
07F4
07F4
07F4
07F4
07F4
07F4
07F4
07F4
07F4
07F4
0BD0
2F40
7E00
BD00
BFA0
7FF0
1BE0
ENDCHAR
STARTCHAR iogonek
ENCODING 303
SWIDTH 255 0
DWIDTH 8 0
BBX 6 30 0 -7
BITMAP
07E0
0FF0
0FF0
07E0
0000
0000
0BF0
0BF0
0BF0
0BF0
0BF0
0BF0
0BF0
0BF0
0BF0
0BF0
0BF0
0BF0
0BF0
0BF0
0BF0
0BF0
0FF0
1FD0
7F00
BD00
FC00
FE90
BFE0
2FD0
ENDCHAR
STARTCHAR Idotaccent
ENCODING 304
SWIDTH 282 0
DWIDTH 9 0
BBX 5 28 2 0
BITMAP
2A00
7F40
7F40
2E00
0000
7F40
7F40
7F40
7F40
7F40
7F40
7F40
7F40
7F40
7F40
7F40
7F40
7F40
7F40
7F40
7F40
7F40
7F40
7F40
7F40
7F40
7F40
7F40
ENDCHAR
STARTCHAR dotlessi
ENCODING 305
SWIDTH 262 0
DWIDTH 8 0
BBX 4 17 2 0
BITMAP
BF
BF
BF
BF
BF
BF
BF
BF
BF
BF
BF
BF
BF
BF
BF
BF
BF
ENDCHAR
STARTCHAR IJ
ENCODING 306
SWIDTH 837 0
DWIDTH 27 0
BBX 23 23 2 0
BITMAP
7F40000007F8
7F40000007F8
7F40000007F8
7F40000007F8
7F40000007F8
7F40000007F8
7F40000007F8
7F40000007F8
7F40000007F8
7F40000007F8
7F40000007F8
7F40000007F8
7F40000007F8
7F40000007F8
7F40000007F8
7F40000007F8
7F41AA0007F8
7F40FF000BF4
7F40FF400FF4
7F40BFE57FE0
7F403FFFFFC0
7F400BFFFF40
7F4001BFE400
ENDCHAR
STARTCHAR ij
ENCODING 307
SWIDTH 505 0
DWIDTH 16 0
BBX 12 30 2 -7
BITMAP
7E007E
FF00FF
FF00FF
7E007E
000000
000000
BF00BF
BF00BF
BF00BF
BF00BF
BF00BF
BF00BF
BF00BF
BF00BF
BF00BF
BF00BF
BF00BF
BF00BF
BF00BF
BF00BF
BF00BF
BF00BF
BF00BF
0000BF
0000BF
0000FF
0012FF
003FFD
003FF8
003FA0
ENDCHAR
STARTCHAR Jcircumflex
ENCODING 308
SWIDTH 555 0
DWIDTH 18 0
BBX 19 30 0 0
BITMAP
000001F800
000007FE00
00001FEF80
00007F4BE0
0000AD02E4
0000000000
0000000000
000001FE00
000001FE00
000001FE00
000001FE00
000001FE00
000001FE00
000001FE00
000001FE00
000001FE00
000001FE00
000001FE00
000001FE00
000001FE00
000001FE00
000001FE00
000001FE00
6A8001FE00
7F8002FD00
3FD007FC00
2FF55FF800
0FFFFFF000
02FFFF8000
006FF90000
ENDCHAR
STARTCHAR jcircumflex
ENCODING 309
SWIDTH 268 0
DWIDTH 9 0
BBX 11 31 -1 -7
BITMAP
01F800
07FE00
1FEF80
7F4BE0
AD02E4
000000
000000
01FD00
01FD00
01FD00
01FD00
01FD00
01FD00
01FD00
01FD00
01FD00
01FD00
01FD00
01FD00
01FD00
01FD00
01FD00
01FD00
01FD00
01FD00
02FD00
02FD00
07FC00
FFF800
FFE000
FE4000
ENDCHAR
STARTCHAR uni0136
ENCODING 310
SWIDTH 630 0
DWIDTH 20 0
BBX 18 30 2 -7
BITMAP
BF40007FD0
BF4001FF80
BF4003FE00
BF400BFC00
BF402FF400
BF407FD000
BF41FF4000
BF43FE0000
BF4FF80000
BF6FF00000
BFBFE00000
BFFFF40000
BFFFFC0000
BFF6FE0000
BFE1FF4000
BF807FD000
BF402FE000
BF400FF800
BF4007FD00
BF4002FF00
BF4000FF80
BF40007FD0
BF40002FF0
0000000000
0007F00000
0007E00000
0007E00000
000BD00000
001F800000
0006000000
ENDCHAR
STARTCHAR uni0137
ENCODING 311
SWIDTH 521 0
DWIDTH 17 0
BBX 15 31 2 -7
BITMAP
FE000000
FE000000
FE000000
FE000000
FE000000
FE000000
FE000000
FE002FE0
FE00BF80
FE02FF00
FE07FC00
FE1FF400
FE7FD000
FFFF4000
FFFF4000
FFFFC000
FFFFE000
FF8FF400
FE07FC00
FE02FE00
FE00FF40
FE007FC0
FE002FE0
FE000FF4
00000000
003F0000
003F0000
007F0000
007E0000
00FC0000
00640000
ENDCHAR
STARTCHAR kgreenlandic
ENCODING 312
SWIDTH 574 0
DWIDTH 18 0
BBX 16 17 2 0
BITMAP
BF000BFC
BF002FF0
BF007FD0
BF00FF80
BF02FE00
BF0BFC00
BF1FF400
BFFFE000
BFFFC000
BFFFE000
BF6FF400
BF07FD00
BF02FF00
BF00FF80
BF003FE0
BF001FF4
BF000BFD
ENDCHAR
STARTCHAR Lacute
ENCODING 313
SWIDTH 541 0
DWIDTH 17 0
BBX 15 29 2 0
BITMAP
03FD0000
0BF40000
1FE00000
3F800000
6E000000
00000000
BF400000
BF400000
BF400000
BF400000
BF400000
BF400000
BF400000
BF400000
BF400000
BF400000
BF400000
BF400000
BF400000
BF400000
BF400000
BF400000
BF400000
BF400000
BF400000
BF400000
BFFFFFF8
BFFFFFF8
BFFFFFF8
ENDCHAR
STARTCHAR lacute
ENCODING 314
SWIDTH 255 0
DWIDTH 8 0
BBX 7 30 2 0
BITMAP
03FC
0BF4
1FD0
7F80
6E00
0000
BF00
BF00
BF00
BF00
BF00
BF00
BF00
BF00
BF00
BF00
BF00
BF00
BF00
BF00
BF00
BF00
BF00
BF00
BF00
BF00
BF00
BF00
BF00
BF00
ENDCHAR
STARTCHAR uni013B
ENCODING 315
SWIDTH 541 0
DWIDTH 17 0
BBX 15 31 2 -8
BITMAP
BF400000
BF400000
BF400000
BF400000
BF400000
BF400000
BF400000
BF400000
BF400000
BF400000
BF400000
BF400000
BF400000
BF400000
BF400000
BF400000
BF400000
BF400000
BF400000
BF400000
BFFFFFF8
BFFFFFF8
BFFFFFF8
00000000
00000000
000FC000
000FC000
001FC000
001F8000
003F0000
00190000
ENDCHAR
STARTCHAR uni013C
ENCODING 316
SWIDTH 255 0
DWIDTH 8 0
BBX 5 32 1 -8
BITMAP
2FC0
2FC0
2FC0
2FC0
2FC0
2FC0
2FC0
2FC0
2FC0
2FC0
2FC0
2FC0
2FC0
2FC0
2FC0
2FC0
2FC0
2FC0
2FC0
2FC0
2FC0
2FC0
2FC0
2FC0
0000
0000
1F80
2F80
2F40
3F00
7E00
2800
ENDCHAR
STARTCHAR Lcaron
ENCODING 317
SWIDTH 541 0
DWIDTH 17 0
BBX 15 23 2 0
BITMAP
BF40BE00
BF40BE00
BF40BD00
BF40FC00
BF42F400
BF40A000
BF400000
BF400000
BF400000
BF400000
BF400000
BF400000
BF400000
BF400000
BF400000
BF400000
BF400000
BF400000
BF400000
BF400000
BFFFFFF8
BFFFFFF8
BFFFFFF8
ENDCHAR
STARTCHAR lcaron
ENCODING 318
SWIDTH 328 0
DWIDTH 11 0
BBX 10 24 2 0
BITMAP
BF0BE0
BF0BE0
BF0BD0
BF0FC0
BF1F80
BF0A00
BF0000
BF0000
BF0000
BF0000
BF0000
BF0000
BF0000
BF0000
BF0000
BF0000
BF0000
BF0000
BF0000
BF0000
BF0000
BF0000
BF0000
BF0000
ENDCHAR
STARTCHAR Ldot
ENCODING 319
SWIDTH 541 0
DWIDTH 17 0
BBX 15 23 2 0
BITMAP
BF400000
BF400000
BF400000
BF400000
BF400000
BF400000
BF400000
BF400000
BF400000
BF40A400
BF42FC00
BF42FD00
BF41F800
BF400000
BF400000
BF400000
BF400000
BF400000
BF400000
BF400000
BFFFFFF8
BFFFFFF8
BFFFFFF8
ENDCHAR
STARTCHAR ldot
ENCODING 320
SWIDTH 362 0
DWIDTH 12 0
BBX 10 24 2 0
BITMAP
BF0000
BF0000
BF0000
BF0000
BF0000
BF0000
BF0000
BF0000
BF0000
BF0000
BF0A80
BF1FE0
BF1FE0
BF0B80
BF0000
BF0000
BF0000
BF0000
BF0000
BF0000
BF0000
BF0000
BF0000
BF0000
ENDCHAR
STARTCHAR Lslash
ENCODING 321
SWIDTH 548 0
DWIDTH 18 0
BBX 17 23 0 0
BITMAP
07F8000000
07F8000000
07F8000000
07F8000000
07F8000000
07F8000000
07F8000000
07F8000000
07F9600000
07FFF40000
1BFFA00000
7FF8000000
7BF8000000
07F8000000
07F8000000
07F8000000
07F8000000
07F8000000
07F8000000
07F8000000
07FFFFFFC0
07FFFFFFC0
07FFFFFFC0
ENDCHAR
STARTCHAR lslash
ENCODING 322
SWIDTH 288 0
DWIDTH 9 0
BBX 9 24 0 0
BITMAP
07F400
07F400
07F400
07F400
07F400
07F400
07F400
07F400
07F400
07FA80
07FF80
1BFE40
7FF400
7BF400
07F400
07F400
07F400
07F400
07F400
07F400
07F400
07F400
07F400
07F400
ENDCHAR
STARTCHAR Nacute
ENCODING 323
SWIDTH 709 0
DWIDTH 23 0
BBX 19 29 2 0
BITMAP
00000FF400
00002FD000
00007F8000
0000FE0000
0001B80000
0000000000
BF80000BF4
BFD0000BF4
BFE0000BF4
BFF4000BF4
BFFC000BF4
BFFE000BF4
BFFF400BF4
BFBFC00BF4
BF6FE00BF4
BF4FF40BF4
BF47F80BF4
BF42FD0BF4
BF40FF0BF4
BF40BF8BF4
BF403FDBF4
BF401FFBF4
BF400BFFF4
BF4003FFF4
BF4001FFF4
BF4000BFF4
BF40007FF4
BF40002FF4
BF40000FF4
ENDCHAR
STARTCHAR nacute
ENCODING 324
SWIDTH 556 0
DWIDTH 18 0
BBX 14 24 2 0
BITMAP
0001FF00
0003FD00
000BF400
001FD000
001B8000
00000000
00000000
FD1BF900
FEBFFF40
FFFFFFC0
FFD47FE0
FF401FE0
FE000FF0
FE000FF0
FE000FF0
FE000FF0
FE000FF0
FE000FF0
FE000FF0
FE000FF0
FE000FF0
FE000FF0
FE000FF0
FE000FF0
ENDCHAR
STARTCHAR uni0145
ENCODING 325
SWIDTH 709 0
DWIDTH 23 0
BBX 19 31 2 -8
BITMAP
BF80000BF4
BFD0000BF4
BFE0000BF4
BFF4000BF4
BFFC000BF4
BFFE000BF4
BFFF400BF4
BFBFC00BF4
BF6FE00BF4
BF4FF40BF4
BF47F80BF4
BF42FD0BF4
BF40FF0BF4
BF40BF8BF4
BF403FDBF4
BF401FFBF4
BF400BFFF4
BF4003FFF4
BF4001FFF4
BF4000BFF4
BF40007FF4
BF40002FF4
BF40000FF4
0000000000
0000000000
0001FC0000
0001F80000
0001F80000
0002F40000
0007E00000
0001800000
ENDCHAR
STARTCHAR uni0146
ENCODING 326
SWIDTH 556 0
DWIDTH 18 0
BBX 14 25 2 -8
BITMAP
FD1BF900
FEBFFF40
FFFFFFC0
FFD47FE0
FF401FE0
FE000FF0
FE000FF0
FE000FF0
FE000FF0
FE000FF0
FE000FF0
FE000FF0
FE000FF0
FE000FF0
FE000FF0
FE000FF0
FE000FF0
00000000
00000000
002F4000
002F4000
003F4000
007F0000
00BD0000
00280000
ENDCHAR
STARTCHAR Ncaron
ENCODING 327
SWIDTH 709 0
DWIDTH 23 0
BBX 19 30 2 0
BITMAP
00BD02F800
003F4BE000
000FEF8000
0007FE0000
0001FC0000
0000000000
0000000000
BF80000BF4
BFD0000BF4
BFE0000BF4
BFF4000BF4
BFFC000BF4
BFFE000BF4
BFFF400BF4
BFBFC00BF4
BF6FE00BF4
BF4FF40BF4
BF47F80BF4
BF42FD0BF4
BF40FF0BF4
BF40BF8BF4
BF403FDBF4
BF401FFBF4
BF400BFFF4
BF4003FFF4
BF4001FFF4
BF4000BFF4
BF40007FF4
BF40002FF4
BF40000FF4
ENDCHAR
STARTCHAR ncaron
ENCODING 328
SWIDTH 556 0
DWIDTH 18 0
BBX 14 25 2 0
BITMAP
1FC07F40
07F0FD00
01FBF400
00BFD000
002F8000
00000000
00000000
00000000
FD1BF900
FEBFFF40
FFFFFFC0
FFD47FE0
FF401FE0
FE000FF0
FE000FF0
FE000FF0
FE000FF0
FE000FF0
FE000FF0
FE000FF0
FE000FF0
FE000FF0
FE000FF0
FE000FF0
FE000FF0
ENDCHAR
STARTCHAR napostrophe
ENCODING 329
SWIDTH 556 0
DWIDTH 18 0
BBX 18 24 -2 0
BITMAP
1FC0000000
1FC0000000
1F80000000
2F40000000
7E00000000
1800000000
0000000000
00FD1BF900
00FEBFFF40
00FFFFFFC0
00FFD47FE0
00FF401FE0
00FE000FF0
00FE000FF0
00FE000FF0
00FE000FF0
00FE000FF0
00FE000FF0
00FE000FF0
00FE000FF0
00FE000FF0
00FE000FF0
00FE000FF0
00FE000FF0
ENDCHAR
STARTCHAR Eng
ENCODING 330
SWIDTH 696 0
DWIDTH 22 0
BBX 18 30 2 -7
BITMAP
BF40000BF0
BFC0000BF0
BFE0000BF0
BFF4000BF0
BFFC000BF0
BFFE000BF0
BFFF000BF0
BF7F800BF0
BF6FD00BF0
BF4FF00BF0
BF47F80BF0
BF42FD0BF0
BF41FE0BF0
BF40BF4BF0
BF403FCBF0
BF401FEBF0
BF400BFFF0
BF4007FFF0
BF4002FFF0
BF4000FFF0
BF40007FF0
BF40002FF0
BF40000FF0
0000000BF0
0000000FF0
0000000FF0
0000016FE0
000007FFD0
000007FF80
000007F900
ENDCHAR
STARTCHAR eng
ENCODING 331
SWIDTH 566 0
DWIDTH 18 0
BBX 14 24 2 -7
BITMAP
FD1BF900
FE7FFF40
FFFFFFD0
FFD47FE0
FF001FF0
FE000FF0
FE000BF0
FE000BF0
FE000BF0
FE000BF0
FE000BF0
FE000BF0
FE000BF0
FE000BF0
FE000BF0
FE000BF0
FE000BF0
00000BF0
00000BF0
00000FF0
00016FE0
0007FFD0
0007FF80
0007F900
ENDCHAR
STARTCHAR Omacron
ENCODING 332
SWIDTH 690 0
DWIDTH 22 0
BBX 20 29 1 0
BITMAP
0015555500
007FFFFD00
007FFFFD00
0000000000
0000000000
0000000000
0006FF9000
007FFFFD00
01FFFFFF40
07FF95FFD0
0FF8002FF0
1FF0000BF4
2FD00007F8
3FC00003FC
7F800002FD
7F800002FD
7F800002FD
7F800001FD
7F800002FD
7F800002FD
7F800002FD
3FC00003FC
2FD00007F8
1FF0000BF4
0FF8002FF0
07FF55BFD0
01FFFFFF40
007FFFFD00
0006FF9000
ENDCHAR
STARTCHAR omacron
ENCODING 333
SWIDTH 569 0
DWIDTH 18 0
BBX 16 24 1 0
BITMAP
01555550
07FFFFD0
07FFFFD0
00000000
00000000
00000000
00000000
006FF900
02FFFF80
0BFFFFF0
1FF41FF8
3FD003FD
7F8001FE
BF4000FE
BF0000FF
BF0000FF
BF0000FF
BF4000FE
7F8001FE
3FC003FC
1FF41BF8
0BFFFFF0
02FFFF80
006FF900
ENDCHAR
STARTCHAR Obreve
ENCODING 334
SWIDTH 690 0
DWIDTH 22 0
BBX 20 28 1 0
BITMAP
003F00FC00
002F96F800
000FFFF400
0002BF8000
0000000000
0006FF9000
007FFFFD00
01FFFFFF40
07FF95FFD0
0FF8002FF0
1FF0000BF4
2FD00007F8
3FC00003FC
7F800002FD
7F800002FD
7F800002FD
7F800001FD
7F800002FD
7F800002FD
7F800002FD
3FC00003FC
2FD00007F8
1FF0000BF4
0FF8002FF0
07FF55BFD0
01FFFFFF40
007FFFFD00
0006FF9000
ENDCHAR
STARTCHAR obreve
ENCODING 335
SWIDTH 569 0
DWIDTH 18 0
BBX 16 23 1 0
BITMAP
03F00FC0
02F96F80
00FFFF00
002FF800
00000000
00000000
006FF900
02FFFF80
0BFFFFF0
1FF41FF8
3FD003FD
7F8001FE
BF4000FE
BF0000FF
BF0000FF
BF0000FF
BF4000FE
7F8001FE
3FC003FC
1FF41BF8
0BFFFFF0
02FFFF80
006FF900
ENDCHAR
STARTCHAR Ohungarumlaut
ENCODING 336
SWIDTH 690 0
DWIDTH 22 0
BBX 20 29 1 0
BITMAP
0000FE1FD0
0002FC3F80
0003F4BE00
000BE2FC00
000AC2B400
0000000000
0006FF9000
007FFFFD00
01FFFFFF40
07FF95FFD0
0FF8002FF0
1FF0000BF4
2FD00007F8
3FC00003FC
7F800002FD
7F800002FD
7F800002FD
7F800001FD
7F800002FD
7F800002FD
7F800002FD
3FC00003FC
2FD00007F8
1FF0000BF4
0FF8002FF0
07FF55BFD0
01FFFFFF40
007FFFFD00
0006FF9000
ENDCHAR
STARTCHAR ohungarumlaut
ENCODING 337
SWIDTH 569 0
DWIDTH 18 0
BBX 16 24 1 0
BITMAP
000FE1FD
002FC3F8
007F4BE0
00BE2FC0
00A82B00
00000000
00000000
006FF900
02FFFF80
0BFFFFF0
1FF41FF8
3FD003FD
7F8001FE
BF4000FE
BF0000FF
BF0000FF
BF0000FF
BF4000FE
7F8001FE
3FC003FC
1FF41BF8
0BFFFFF0
02FFFF80
006FF900
ENDCHAR
STARTCHAR OE
ENCODING 338
SWIDTH 962 0
DWIDTH 31 0
BBX 28 23 1 0
BITMAP
000AFFFFFFFFFE
00BFFFFFFFFFFE
02FFFFFFFFFFFE
0BFD007F955554
1FE0007F800000
2FD0007F800000
3F80007F800000
7F80007F800000
7F40007F800000
7F40007F800000
7F40007FFFFFF0
7F40007FFFFFF0
7F40007FFFFFF0
7F40007F800000
7F40007F800000
7F80007F800000
3F80007F800000
2FD0007F800000
1FE0007F800000
0BFD007F800000
02FFFFFFFFFFFE
00BFFFFFFFFFFE
000AFFFFFFFFFE
ENDCHAR
STARTCHAR oe
ENCODING 339
SWIDTH 903 0
DWIDTH 29 0
BBX 27 17 1 0
BITMAP
002BF9006FE800
02FFFF82FFFF40
0BFFFFFBFFFFD0
1FF41BFFF46FF0
3FD003FFD00BF4
7F8001FF8003F8
7F4000FF4003F8
BF4000FFFFFFF8
BF4000FFFFFFF8
BF4000FFAAAAA8
7F4000FF400000
7F8001FF800000
3FD003FFD00000
1FF41BFFF406E0
0BFFFFFBFFFFF0
02FFFF82FFFFE0
006FF9006FFA00
ENDCHAR
STARTCHAR Racute
ENCODING 340
SWIDTH 624 0
DWIDTH 20 0
BBX 18 29 2 0
BITMAP
0000BF4000
0001FE0000
0003F80000
000BE00000
001AC00000
0000000000
BFFFFA4000
BFFFFFE000
BFFFFFFC00
BF555BFE00
BF4001FF00
BF4000BF40
BF40007F40
BF40007F40
BF4000BF40
BF4001FF00
BF4007FE00
BFFFFFF800
BFFFFFE000
BFFFFF8000
BF557FC000
BF402FE000
BF400FF000
BF400BF800
BF4003FD00
BF4002FE00
BF4000FF40
BF4000BF80
BF40003FD0
ENDCHAR
STARTCHAR racute
ENCODING 341
SWIDTH 351 0
DWIDTH 11 0
BBX 10 24 2 0
BITMAP
002FD0
00BF80
01FE00
03F800
06F000
000000
000000
FE2F80
FEBF80
FFFF80
FFFA80
FF8000
FF0000
FE0000
FE0000
FE0000
FE0000
FE0000
FE0000
FE0000
FE0000
FE0000
FE0000
FE0000
ENDCHAR
STARTCHAR uni0156
ENCODING 342
SWIDTH 624 0
DWIDTH 20 0
BBX 18 31 2 -8
BITMAP
BFFFFA4000
BFFFFFE000
BFFFFFFC00
BF555BFE00
BF4001FF00
BF4000BF40
BF40007F40
BF40007F40
BF4000BF40
BF4001FF00
BF4007FE00
BFFFFFF800
BFFFFFE000
BFFFFF8000
BF557FC000
BF402FE000
BF400FF000
BF400BF800
BF4003FD00
BF4002FE00
BF4000FF40
BF4000BF80
BF40003FD0
0000000000
0000000000
000FC00000
000FC00000
000FC00000
001F800000
003F000000
0019000000
ENDCHAR
STARTCHAR uni0157
ENCODING 343
SWIDTH 351 0
DWIDTH 11 0
BBX 10 25 1 -8
BITMAP
3F8BE0
3FAFE0
3FFFE0
3FFEA0
3FE000
3FC000
3F8000
3F8000
3F8000
3F8000
3F8000
3F8000
3F8000
3F8000
3F8000
3F8000
3F8000
000000
000000
2F8000
2F8000
2F4000
3F0000
BD0000
280000
ENDCHAR
STARTCHAR Rcaron
ENCODING 344
SWIDTH 624 0
DWIDTH 20 0
BBX 18 30 2 0
BITMAP
0BE02F8000
02F4BE0000
00FEF80000
003FF00000
001FC00000
0000000000
0000000000
BFFFFA4000
BFFFFFE000
BFFFFFFC00
BF555BFE00
BF4001FF00
BF4000BF40
BF40007F40
BF40007F40
BF4000BF40
BF4001FF00
BF4007FE00
BFFFFFF800
BFFFFFE000
BFFFFF8000
BF557FC000
BF402FE000
BF400FF000
BF400BF800
BF4003FD00
BF4002FE00
BF4000FF40
BF4000BF80
BF40003FD0
ENDCHAR
STARTCHAR rcaron
ENCODING 345
SWIDTH 351 0
DWIDTH 11 0
BBX 11 25 1 0
BITMAP
BE02F8
3F4BE0
0FEF80
07FF00
01FC00
000000
000000
000000
3F8BE0
3FAFE0
3FFFE0
3FFEA0
3FE000
3FC000
3F8000
3F8000
3F8000
3F8000
3F8000
3F8000
3F8000
3F8000
3F8000
3F8000
3F8000
ENDCHAR
STARTCHAR Sacute
ENCODING 346
SWIDTH 603 0
DWIDTH 19 0
BBX 17 29 1 0
BITMAP
00001FF000
00003FC000
0000BF4000
0001FD0000
0002B40000
0000000000
001BFE4000
02FFFFF400
0BFFFFFD00
1FF956FF40
3FD000BF80
3FC0003FC0
3FC0002FC0
3FD0000000
2FF4000000
0FFF900000
03FFFE4000
00BFFFE000
0006FFFD00
00001BFF00
000001FF80
0000003FC0
BF00003FC0
BF40003FC0
7FC0007FC0
2FF906FF80
0BFFFFFE00
02FFFFF800
001BFE9000
ENDCHAR
STARTCHAR sacute
ENCODING 347
SWIDTH 516 0
DWIDTH 17 0
BBX 14 24 1 0
BITMAP
0000BF80
0001FE00
0003F800
000BF000
000AD000
00000000
00000000
00AFE400
07FFFF40
1FFFFFD0
3FD02FE0
7F800FF0
7F800550
3FE40000
1FFFE400
06FFFF40
006BFFD0
00006FF0
69000BF0
BF000BF0
7FD01FF0
2FFFFFD0
0BFFFF40
01AFE800
ENDCHAR
STARTCHAR Scircumflex
ENCODING 348
SWIDTH 603 0
DWIDTH 19 0
BBX 17 30 1 0
BITMAP
0002F80000
000BFD0000
002FBF4000
00BE0FD000
01AC07A000
0000000000
0000000000
001BFE4000
02FFFFF400
0BFFFFFD00
1FF956FF40
3FD000BF80
3FC0003FC0
3FC0002FC0
3FD0000000
2FF4000000
0FFF900000
03FFFE4000
00BFFFE000
0006FFFD00
00001BFF00
000001FF80
0000003FC0
BF00003FC0
BF40003FC0
7FC0007FC0
2FF906FF80
0BFFFFFE00
02FFFFF800
001BFE9000
ENDCHAR
STARTCHAR scircumflex
ENCODING 349
SWIDTH 516 0
DWIDTH 17 0
BBX 14 25 1 0
BITMAP
000FD000
003FF400
00FEFD00
03F87F40
06E02E80
00000000
00000000
00000000
00AFE400
07FFFF40
1FFFFFD0
3FD02FE0
7F800FF0
7F800550
3FE40000
1FFFE400
06FFFF40
006BFFD0
00006FF0
69000BF0
BF000BF0
7FD01FF0
2FFFFFD0
0BFFFF40
01AFE800
ENDCHAR
STARTCHAR Scedilla
ENCODING 350
SWIDTH 603 0
DWIDTH 19 0
BBX 17 30 1 -7
BITMAP
001BFE4000
02FFFFF400
0BFFFFFD00
1FF956FF40
3FD000BF80
3FC0003FC0
3FC0002FC0
3FD0000000
2FF4000000
0FFF900000
03FFFE4000
00BFFFE000
0006FFFD00
00001BFF00
000001FF80
0000003FC0
BF00003FC0
BF40003FC0
7FC0007FC0
2FF906FF80
0BFFFFFE00
02FFFFF800
001BFE9000
0001F40000
0002FE0000
00017F4000
00002F8000
00007F4000
0002FE0000
0002E40000
ENDCHAR
STARTCHAR scedilla
ENCODING 351
SWIDTH 516 0
DWIDTH 17 0
BBX 14 24 1 -7
BITMAP
00AFE400
07FFFF40
1FFFFFD0
3FD02FE0
7F800FF0
7F800550
3FE40000
1FFFE400
06FFFF40
006BFFD0
00006FF0
69000BF0
BF000BF0
7FD01FF0
2FFFFFD0
0BFFFF40
01AFE800
000FC000
000FF400
0006FC00
0000FD00
0006FC00
000FF400
000F9000
ENDCHAR
STARTCHAR Scaron
ENCODING 352
SWIDTH 603 0
DWIDTH 19 0
BBX 17 30 1 0
BITMAP
01FC07F000
007E1FD000
002FBF4000
000BFD0000
0002F40000
0000000000
0000000000
001BFE4000
02FFFFF400
0BFFFFFD00
1FF956FF40
3FD000BF80
3FC0003FC0
3FC0002FC0
3FD0000000
2FF4000000
0FFF900000
03FFFE4000
00BFFFE000
0006FFFD00
00001BFF00
000001FF80
0000003FC0
BF00003FC0
BF40003FC0
7FC0007FC0
2FF906FF80
0BFFFFFE00
02FFFFF800
001BFE9000
ENDCHAR
STARTCHAR scaron
ENCODING 353
SWIDTH 516 0
DWIDTH 17 0
BBX 14 25 1 0
BITMAP
0BE02F80
02F87E00
00BEFC00
003FF000
000FD000
00000000
00000000
00000000
00AFE400
07FFFF40
1FFFFFD0
3FD02FE0
7F800FF0
7F800550
3FE40000
1FFFE400
06FFFF40
006BFFD0
00006FF0
69000BF0
BF000BF0
7FD01FF0
2FFFFFD0
0BFFFF40
01AFE800
ENDCHAR
STARTCHAR uni0162
ENCODING 354
SWIDTH 606 0
DWIDTH 19 0
BBX 19 30 0 -7
BITMAP
7FFFFFFFF8
7FFFFFFFF8
7FFFFFFFF8
1555FE5550
0001FE0000
0001FE0000
0001FE0000
0001FE0000
0001FE0000
0001FE0000
0001FE0000
0001FE0000
0001FE0000
0001FE0000
0001FE0000
0001FE0000
0001FE0000
0001FE0000
0001FE0000
0001FE0000
0001FE0000
0001FE0000
0001FE0000
0000BC0000
0000FF4000
00005FC000
00000BD000
00001FC000
0000FF8000
0000B90000
ENDCHAR
STARTCHAR uni0163
ENCODING 355
SWIDTH 332 0
DWIDTH 11 0
BBX 11 28 0 -7
BITMAP
03F800
03F800
03F800
03F800
FFFFE0
FFFFE0
ABFEA0
03F800
03F800
03F800
03F800
03F800
03F800
03F800
03F800
03F800
03F800
03FD50
02FFE0
01FFE0
006FE0
001F40
002FE0
0017F4
0002F8
0007F4
002FE0
002E40
ENDCHAR
STARTCHAR Tcaron
ENCODING 356
SWIDTH 606 0
DWIDTH 19 0
BBX 19 30 0 0
BITMAP
00BE01F800
002F87F000
000BEFC000
0002FF4000
0000FD0000
0000000000
0000000000
7FFFFFFFF8
7FFFFFFFF8
7FFFFFFFF8
1555FE5550
0001FE0000
0001FE0000
0001FE0000
0001FE0000
0001FE0000
0001FE0000
0001FE0000
0001FE0000
0001FE0000
0001FE0000
0001FE0000
0001FE0000
0001FE0000
0001FE0000
0001FE0000
0001FE0000
0001FE0000
0001FE0000
0001FE0000
ENDCHAR
STARTCHAR tcaron
ENCODING 357
SWIDTH 352 0
DWIDTH 11 0
BBX 13 26 0 0
BITMAP
00002F80
00002F80
00002F40
00003F00
00007E00
03F82800
03F80000
03F80000
03F80000
FFFFE000
FFFFE000
ABFEA000
03F80000
03F80000
03F80000
03F80000
03F80000
03F80000
03F80000
03F80000
03F80000
03F80000
03FD5000
02FFE000
01FFE000
006FE000
ENDCHAR
STARTCHAR Tbar
ENCODING 358
SWIDTH 606 0
DWIDTH 19 0
BBX 19 23 0 0
BITMAP
7FFFFFFFF8
7FFFFFFFF8
7FFFFFFFF8
1555FE5550
0001FE0000
0001FE0000
0001FE0000
0001FE0000
00BFFFFC00
00BFFFFC00
006AFFA800
0001FE0000
0001FE0000
0001FE0000
0001FE0000
0001FE0000
0001FE0000
0001FE0000
0001FE0000
0001FE0000
0001FE0000
0001FE0000
0001FE0000
ENDCHAR
STARTCHAR tbar
ENCODING 359
SWIDTH 332 0
DWIDTH 11 0
BBX 11 21 -1 0
BITMAP
00FE00
00FE00
00FE00
00FE00
3FFFF8
3FFFF8
2AFFA8
00FE00
00FE00
7FFFFC
7FFFFC
6AFFA8
00FE00
00FE00
00FE00
00FE00
00FE00
00FF54
00BFF8
007FF8
001BF8
ENDCHAR
STARTCHAR Utilde
ENCODING 360
SWIDTH 651 0
DWIDTH 21 0
BBX 17 29 2 0
BITMAP
001901A000
01FFEBF000
03FFFFD000
07D1BF4000
0000000000
0000000000
FF00003FC0
FF00003FC0
FF00003FC0
FF00003FC0
FF00003FC0
FF00003FC0
FF00003FC0
FF00003FC0
FF00003FC0
FF00003FC0
FF00003FC0
FF00003FC0
FF00003FC0
FF00003FC0
FF00003FC0
FF00003FC0
FF00003FC0
BF40007F80
7FC000FF40
3FF55BFE00
1FFFFFFC00
02FFFFE000
006FFA4000
ENDCHAR
STARTCHAR utilde
ENCODING 361
SWIDTH 555 0
DWIDTH 18 0
BBX 14 24 2 0
BITMAP
01900A40
0BFEAF40
2FFFFF00
2E06F800
00000000
00000000
00000000
FE000FF0
FE000FF0
FE000FF0
FE000FF0
FE000FF0
FE000FF0
FE000FF0
FE000FF0
FE000FF0
FE000FF0
FE000FF0
FE000FF0
FF001FF0
BF91BFF0
7FFFFFF0
2FFFEBF0
06FE4BF0
ENDCHAR
STARTCHAR Umacron
ENCODING 362
SWIDTH 651 0
DWIDTH 21 0
BBX 17 29 2 0
BITMAP
0155555000
03FFFFF000
03FFFFF000
0000000000
0000000000
0000000000
FF00003FC0
FF00003FC0
FF00003FC0
FF00003FC0
FF00003FC0
FF00003FC0
FF00003FC0
FF00003FC0
FF00003FC0
FF00003FC0
FF00003FC0
FF00003FC0
FF00003FC0
FF00003FC0
FF00003FC0
FF00003FC0
FF00003FC0
BF40007F80
7FC000FF40
3FF55BFE00
1FFFFFFC00
02FFFFE000
006FFA4000
ENDCHAR
STARTCHAR umacron
ENCODING 363
SWIDTH 555 0
DWIDTH 18 0
BBX 14 24 2 0
BITMAP
15555500
1FFFFF40
1FFFFF40
00000000
00000000
00000000
00000000
FE000FF0
FE000FF0
FE000FF0
FE000FF0
FE000FF0
FE000FF0
FE000FF0
FE000FF0
FE000FF0
FE000FF0
FE000FF0
FE000FF0
FF001FF0
BF91BFF0
7FFFFFF0
2FFFEBF0
06FE4BF0
ENDCHAR
STARTCHAR Ubreve
ENCODING 364
SWIDTH 651 0
DWIDTH 21 0
BBX 17 28 2 0
BITMAP
02F407D000
01FD5FC000
00BFFF4000
001BF90000
0000000000
FF00003FC0
FF00003FC0
FF00003FC0
FF00003FC0
FF00003FC0
FF00003FC0
FF00003FC0
FF00003FC0
FF00003FC0
FF00003FC0
FF00003FC0
FF00003FC0
FF00003FC0
FF00003FC0
FF00003FC0
FF00003FC0
FF00003FC0
BF40007F80
7FC000FF40
3FF55BFE00
1FFFFFFC00
02FFFFE000
006FFA4000
ENDCHAR
STARTCHAR ubreve
ENCODING 365
SWIDTH 555 0
DWIDTH 18 0
BBX 14 23 2 0
BITMAP
0F803F00
0BE5BE00
07FFFC00
00BFA000
00000000
00000000
FE000FF0
FE000FF0
FE000FF0
FE000FF0
FE000FF0
FE000FF0
FE000FF0
FE000FF0
FE000FF0
FE000FF0
FE000FF0
FE000FF0
FF001FF0
BF91BFF0
7FFFFFF0
2FFFEBF0
06FE4BF0
ENDCHAR
STARTCHAR Uring
ENCODING 366
SWIDTH 651 0
DWIDTH 21 0
BBX 17 31 2 0
BITMAP
0001500000
000FF80000
002D1E0000
00380E0000
003C0E0000
001E6D0000
0007E40000
0000000000
FF00003FC0
FF00003FC0
FF00003FC0
FF00003FC0
FF00003FC0
FF00003FC0
FF00003FC0
FF00003FC0
FF00003FC0
FF00003FC0
FF00003FC0
FF00003FC0
FF00003FC0
FF00003FC0
FF00003FC0
FF00003FC0
FF00003FC0
BF40007F80
7FC000FF40
3FF55BFE00
1FFFFFFC00
02FFFFE000
006FFA4000
ENDCHAR
STARTCHAR uring
ENCODING 367
SWIDTH 555 0
DWIDTH 18 0
BBX 14 26 2 0
BITMAP
00150000
00BFD000
01E0F000
01D07400
01D0B400
00FAE000
002F8000
00000000
00000000
FE000FF0
FE000FF0
FE000FF0
FE000FF0
FE000FF0
FE000FF0
FE000FF0
FE000FF0
FE000FF0
FE000FF0
FE000FF0
FE000FF0
FF001FF0
BF91BFF0
7FFFFFF0
2FFFEBF0
06FE4BF0
ENDCHAR
STARTCHAR Uhungarumlaut
ENCODING 368
SWIDTH 651 0
DWIDTH 21 0
BBX 17 29 2 0
BITMAP
000BF0BE00
000FD2FC00
002F87F400
007F1FD000
006D1B8000
0000000000
FF00003FC0
FF00003FC0
FF00003FC0
FF00003FC0
FF00003FC0
FF00003FC0
FF00003FC0
FF00003FC0
FF00003FC0
FF00003FC0
FF00003FC0
FF00003FC0
FF00003FC0
FF00003FC0
FF00003FC0
FF00003FC0
FF00003FC0
BF40007F80
7FC000FF40
3FF55BFE00
1FFFFFFC00
02FFFFE000
006FFA4000
ENDCHAR
STARTCHAR uhungarumlaut
ENCODING 369
SWIDTH 555 0
DWIDTH 18 0
BBX 15 24 2 0
BITMAP
003F87F4
00BE1FD0
01FD3F80
03F4BE00
06E1AC00
00000000
00000000
FE000FF0
FE000FF0
FE000FF0
FE000FF0
FE000FF0
FE000FF0
FE000FF0
FE000FF0
FE000FF0
FE000FF0
FE000FF0
FE000FF0
FF001FF0
BF91BFF0
7FFFFFF0
2FFFEBF0
06FE4BF0
ENDCHAR
STARTCHAR Uogonek
ENCODING 370
SWIDTH 651 0
DWIDTH 21 0
BBX 17 29 2 -6
BITMAP
FF00003FC0
FF00003FC0
FF00003FC0
FF00003FC0
FF00003FC0
FF00003FC0
FF00003FC0
FF00003FC0
FF00003FC0
FF00003FC0
FF00003FC0
FF00003FC0
FF00003FC0
FF00003FC0
FF00003FC0
FF00003FC0
FF00003FC0
BF40007F80
7FC000FF40
3FF55BFE00
1FFFFFFC00
02FFFFE000
006BFF4000
0000BD0000
0000FC0000
0001F80000
0000FE9000
0000BFD000
00002F9000
ENDCHAR
STARTCHAR uogonek
ENCODING 371
SWIDTH 555 0
DWIDTH 18 0
BBX 14 24 2 -7
BITMAP
FE000FF0
FE000FF0
FE000FF0
FE000FF0
FE000FF0
FE000FF0
FE000FF0
FE000FF0
FE000FF0
FE000FF0
FE000FF0
FE000FF0
FF001FF0
BF91BFF0
7FFFFFF0
2FFFFFF0
06FE4BF0
00001F80
00007E00
0000BD00
0000FC00
0000FE90
0000BFE0
00002F90
ENDCHAR
STARTCHAR Wcircumflex
ENCODING 372
SWIDTH 879 0
DWIDTH 28 0
BBX 27 30 1 0
BITMAP
000001F8000000
000007FE000000
00001FEF800000
00007F4BE00000
0000AD02E40000
00000000000000
00000000000000
FE0002FC0007F4
FF0003FD000BF4
BF4003FD000FF0
7F4007FE000FE0
7F800BFF001FE0
3F800FFF401FD0
2FC00FFF402FC0
2FD01FDF803FC0
1FD02F9FC03F80
0FE03F4FD07F40
0FE03F0BD07F40
0BF07E07E0BF00
07F4BE03F0FE00
07F4FD03F4FD00
03F8FC02F5FD00
02FDF801F9FC00
01FEF800FEF800
01FFF400FFF800
00FFF000BFF400
00BFE0007FF000
00BFD0003FF000
007FD0003FE000
003FC0002FD000
ENDCHAR
STARTCHAR wcircumflex
ENCODING 373
SWIDTH 743 0
DWIDTH 24 0
BBX 23 25 0 0
BITMAP
00000BD00000
00002FF40000
0000BEFD0000
0002F87F4000
0006E01E8000
000000000000
000000000000
000000000000
7F400BD002FC
3F800FE003F8
2F801FF003F8
2FC02FF407F4
1FD03FF80BF0
0FE07FFC0BE0
0BE0BDBD0FD0
07F0BCBE1FC0
07F4FC7E1FC0
03F5F83F2F80
02FAF42F7F40
01FFF01FFF00
00FFE00FFE00
00BFD00BFE00
00BFC007FD00
007F8003FC00
003F4002F800
ENDCHAR
STARTCHAR Ycircumflex
ENCODING 374
SWIDTH 609 0
DWIDTH 20 0
BBX 19 30 0 0
BITMAP
0000BD0000
0002FF4000
000BEFD000
002F87F400
006E01E800
0000000000
0000000000
BF800007FC
3FD0000BF8
2FE0001FF0
0FF4002FE0
0BF8007FC0
03FC00BF40
01FE00FF00
00FF02FD00
007F83FC00
003FCBF400
001FEFE000
000FFFD000
0007FF8000
0002FF4000
0001FE0000
0001FE0000
0001FE0000
0001FE0000
0001FE0000
0001FE0000
0001FE0000
0001FE0000
0001FE0000
ENDCHAR
STARTCHAR ycircumflex
ENCODING 375
SWIDTH 486 0
DWIDTH 16 0
BBX 16 32 0 -7
BITMAP
000BE000
002FF800
00BEBE00
02FC3F80
02B40E80
00000000
00000000
00000000
BF4003FD
7F8003F8
3FC007F4
2FD00BF0
1FE00FE0
0FF01FD0
0BF42FC0
07F83F80
03FC7F40
02FDBF00
00FEBE00
00BFFD00
007FFC00
003FF800
002FF400
001FF000
000FE000
000FD000
001FC000
003F8000
05BF4000
1FFE0000
1FFC0000
1FE00000
ENDCHAR
STARTCHAR Ydieresis
ENCODING 376
SWIDTH 609 0
DWIDTH 20 0
BBX 19 29 0 0
BITMAP
0029006400
00BF01FD00
00BF02FD00
007E00B800
0000000000
0000000000
BF800007FC
3FD0000BF8
2FE0001FF0
0FF4002FE0
0BF8007FC0
03FC00BF40
01FE00FF00
00FF02FD00
007F83FC00
003FCBF400
001FEFE000
000FFFD000
0007FF8000
0002FF4000
0001FE0000
0001FE0000
0001FE0000
0001FE0000
0001FE0000
0001FE0000
0001FE0000
0001FE0000
0001FE0000
ENDCHAR
STARTCHAR Zacute
ENCODING 377
SWIDTH 602 0
DWIDTH 19 0
BBX 18 29 1 0
BITMAP
00001FE000
00007F8000
0000BF0000
0002FD0000
0002B40000
0000000000
BFFFFFFF80
BFFFFFFF80
BFFFFFFF80
155555FF00
000003FD00
00000BF800
00001FF000
00003FD000
0000BF8000
0001FF0000
0003FD0000
000BF80000
001FF00000
003FD00000
00BF800000
01FF000000
03FD000000
0BF8000000
1FF0000000
3FD0000000
BFFFFFFFD0
BFFFFFFFD0
BFFFFFFFD0
ENDCHAR
STARTCHAR zacute
ENCODING 378
SWIDTH 502 0
DWIDTH 16 0
BBX 14 24 1 0
BITMAP
0000FF40
0002FD00
0007F400
001FE000
001B8000
00000000
00000000
BFFFFFE0
BFFFFFE0
BFFFFFE0
0000BF80
0001FF00
0003FD00
000BF800
001FE000
007FC000
00FF4000
02FE0000
07F80000
1FF00000
3FD00000
BFFFFFF0
BFFFFFF0
BFFFFFF0
ENDCHAR
STARTCHAR Zdotaccent
ENCODING 379
SWIDTH 602 0
DWIDTH 19 0
BBX 18 28 1 0
BITMAP
0001A00000
0007F80000
0007F80000
0002F40000
0000000000
BFFFFFFF80
BFFFFFFF80
BFFFFFFF80
155555FF00
000003FD00
00000BF800
00001FF000
00003FD000
0000BF8000
0001FF0000
0003FD0000
000BF80000
001FF00000
003FD00000
00BF800000
01FF000000
03FD000000
0BF8000000
1FF0000000
3FD0000000
BFFFFFFFD0
BFFFFFFFD0
BFFFFFFFD0
ENDCHAR
STARTCHAR zdotaccent
ENCODING 380
SWIDTH 502 0
DWIDTH 16 0
BBX 14 23 1 0
BITMAP
001A4000
002FC000
003FC000
001F4000
00000000
00000000
BFFFFFE0
BFFFFFE0
BFFFFFE0
0000BF80
0001FF00
0003FD00
000BF800
001FE000
007FC000
00FF4000
02FE0000
07F80000
1FF00000
3FD00000
BFFFFFF0
BFFFFFF0
BFFFFFF0
ENDCHAR
STARTCHAR Zcaron
ENCODING 381
SWIDTH 602 0
DWIDTH 19 0
BBX 18 30 1 0
BITMAP
01F807F000
00BE1FC000
002FBF4000
000BFD0000
0003F40000
0000000000
0000000000
BFFFFFFF80
BFFFFFFF80
BFFFFFFF80
155555FF00
000003FD00
00000BF800
00001FF000
00003FD000
0000BF8000
0001FF0000
0003FD0000
000BF80000
001FF00000
003FD00000
00BF800000
01FF000000
03FD000000
0BF8000000
1FF0000000
3FD0000000
BFFFFFFFD0
BFFFFFFFD0
BFFFFFFFD0
ENDCHAR
STARTCHAR zcaron
ENCODING 382
SWIDTH 502 0
DWIDTH 16 0
BBX 14 25 1 0
BITMAP
0FD03F40
07F0FD00
01FEF800
007FE000
002F8000
00000000
00000000
00000000
BFFFFFE0
BFFFFFE0
BFFFFFE0
0000BF80
0001FF00
0003FD00
000BF800
001FE000
007FC000
00FF4000
02FE0000
07F80000
1FF00000
3FD00000
BFFFFFF0
BFFFFFF0
BFFFFFF0
ENDCHAR
STARTCHAR longs
ENCODING 383
SWIDTH 255 0
DWIDTH 8 0
BBX 9 24 2 0
BITMAP
02FE40
1FFF40
3FFF00
7F9000
BF4000
BF0000
BF0000
BF0000
BF0000
BF0000
BF0000
BF0000
BF0000
BF0000
BF0000
BF0000
BF0000
BF0000
BF0000
BF0000
BF0000
BF0000
BF0000
BF0000
ENDCHAR
STARTCHAR uni018F
ENCODING 399
SWIDTH 691 0
DWIDTH 22 0
BBX 20 23 1 0
BITMAP
006FFE4000
0BFFFFF800
0BFFFFFF40
07E95AFFC0
0100007FF0
0000000FF4
00000007F8
00000003FC
00000002FD
00000002FD
BFFFFFFFFD
BFFFFFFFFD
BFFFFFFFFD
BF400002FD
BF400002FD
7F400003FC
3F800007F8
2FD0000FF4
1FF4002FE0
0BFE56FFD0
02FFFFFF40
00BFFFF800
0006FF9000
ENDCHAR
STARTCHAR florin
ENCODING 402
SWIDTH 351 0
DWIDTH 11 0
BBX 13 31 -1 -7
BITMAP
0006FE40
001FFF00
003FFF00
00BF9100
00BF0000
00FF0000
00FF0000
1FFFFC00
1FFFFC00
1AFFA800
00FF0000
00FF0000
00FF0000
00FF0000
00FF0000
00FF0000
00FF0000
00FF0000
00FF0000
00FF0000
00FF0000
00FF0000
00FF0000
00FF0000
00FF0000
00FF0000
00FE0000
02FE0000
7FFD0000
7FF40000
7F900000
ENDCHAR
STARTCHAR Ohorn
ENCODING 416
SWIDTH 692 0
DWIDTH 22 0
BBX 22 25 1 0
BITMAP
000000000150
0000000007E0
0006FE9007D0
007FFFF80BD0
02FFFFFE2FC0
07FE56FFFF40
0FF8002FFD00
2FE0000FF000
3FC00007F400
7F800003F800
7F800003FC00
BF400002FC00
BF400002FD00
BF400002FD00
BF400002FD00
BF400002FD00
7F800003FC00
7F800003FC00
3FC00007F800
2FE0000FF400
0FF4002FE000
07FE56FFD000
02FFFFFF4000
007FFFF90000
0006FF900000
ENDCHAR
STARTCHAR ohorn
ENCODING 417
SWIDTH 577 0
DWIDTH 18 0
BBX 18 19 1 0
BITMAP
00000002A0
00000002E0
006FF903E0
02FFFFDBD0
0BFFFFFF80
1FF41FFD00
3FC003FD00
7F8001FE00
BF4000FE00
BF0000FF00
BF0000FF00
BF0000FF00
BF4000FE00
7F8001FD00
3FC003FC00
2FF41BF800
0BFFFFF000
02FFFF8000
006FF90000
ENDCHAR
STARTCHAR Uhorn
ENCODING 431
SWIDTH 705 0
DWIDTH 23 0
BBX 23 25 2 0
BITMAP
0000000000A8
0000000000FC
FF00003FC0F8
FF00003FC1F8
FF00003FC7F0
FF00003FFFD0
FF00003FFF40
FF00003FD000
FF00003FC000
FF00003FC000
FF00003FC000
FF00003FC000
FF00003FC000
FF00003FC000
FF00003FC000
FF00003FC000
FF00003FC000
FF00003FC000
FF00003F8000
BF40007F8000
7FC000FF4000
3FF55BFE0000
1FFFFFFC0000
02FFFFE00000
006FFA400000
ENDCHAR
STARTCHAR uhorn
ENCODING 432
SWIDTH 618 0
DWIDTH 20 0
BBX 19 19 2 0
BITMAP
0000000064
00000000F8
FE000FF0F4
FE000FF2F0
FE000FFFD0
FE000FFE40
FE000FF000
FE000FF000
FE000FF000
FE000FF000
FE000FF000
FE000FF000
FE000FF000
FE000FF000
FF001FF000
BF91BFF000
7FFFFFF000
2FFFEBF000
06FE4BF000
ENDCHAR
STARTCHAR uni01F0
ENCODING 496
SWIDTH 268 0
DWIDTH 9 0
BBX 11 31 -1 -7
BITMAP
FD02F4
3F4BE0
1FEF80
07FE00
01F800
000000
000000
01FD00
01FD00
01FD00
01FD00
01FD00
01FD00
01FD00
01FD00
01FD00
01FD00
01FD00
01FD00
01FD00
01FD00
01FD00
01FD00
01FD00
01FD00
02FD00
02FD00
07FC00
FFF800
FFE000
FE4000
ENDCHAR
STARTCHAR Aringacute
ENCODING 506
SWIDTH 665 0
DWIDTH 21 0
BBX 21 30 0 0
BITMAP
000001FD0000
000007F40000
00000B800000
000005000000
00007F800000
0000E1D00000
0000D0E00000
0000FFD00000
0000FFC00000
0000FFD00000
0001FFE00000
0002FFF00000
0007FBF40000
000BF2FC0000
000FE1FD0000
001FD0FE0000
002FC0BF0000
003F807F4000
007F403F8000
00BF002FC000
01FE001FD000
02FFFFFFF000
03FFFFFFF400
07FFFFFFF800
0BF55557FC00
0FE00002FD00
1FD00001FE00
2FD00000FF00
3FC00000BF40
BF8000007FC0
ENDCHAR
STARTCHAR aringacute
ENCODING 507
SWIDTH 541 0
DWIDTH 17 0
BBX 15 26 1 0
BITMAP
00003F80
0000FD00
0001A000
00014000
001FF000
00387800
00383800
002DB400
000BE000
006FE800
07FFFF40
1FFFFFD0
2FE02FF0
3F800BF0
15000BF4
00000BF4
01AFFFF4
0BFFFFF4
2FF95BF4
7F800BF4
BF400BF4
BF400BF4
7FD06FF4
3FFFFFF4
1FFFFBF8
02BF83FC
ENDCHAR
STARTCHAR AEacute
ENCODING 508
SWIDTH 939 0
DWIDTH 30 0
BBX 30 29 0 0
BITMAP
00000002FE000000
00000007F8000000
0000000FE0000000
0000002FC0000000
0000002B40000000
0000000000000000
0000007FFFFFFF40
000000FFFFFFFF40
000002FFFFFFFF40
000003FFF4000000
00000BFBF4000000
00001FE7F4000000
00002FD7F4000000
00007F87F4000000
0000FF07F8000000
0002FE07F8000000
0003FC07FFFFFC00
000BF403FFFFFC00
001FF003FFFFFC00
002FD003F8000000
007FFFFFF8000000
00FFFFFFF8000000
01FFFFFFFC000000
03FD5557FC000000
0BF80003FC000000
1FF00002FC000000
2FE00002FFFFFFD0
7FC00002FFFFFFD0
FF800002FFFFFFD0
ENDCHAR
STARTCHAR aeacute
ENCODING 509
SWIDTH 844 0
DWIDTH 27 0
BBX 25 24 1 0
BITMAP
0000002FD00000
0000007F800000
000000FE000000
000002F8000000
000006B0000000
00000000000000
00000000000000
00AFE802FF9000
07FFFF5FFFF800
1FFFFFFFFFFE00
3FE46FFF41FF40
7F800FFD007F80
15400BF8003FC0
00000BF4002FC0
01BFFFFFFFFFC0
1FFFFFFFFFFFC0
7FFAABFAAAAA80
BF800BF4000000
BF000BF8000000
FF000BFD000100
BF806FFF906F00
7FFFFFBFFFFF40
1FFFFD1FFFFF40
06FF9001BFA400
ENDCHAR
STARTCHAR Oslashacute
ENCODING 510
SWIDTH 689 0
DWIDTH 22 0
BBX 20 32 1 -2
BITMAP
000003FD00
00000BF400
00001FD000
00003F8000
00006E0000
0000000000
0000000068
0006FF90F8
007FFFFEF0
01FFFFFFD0
07FF95BFD0
0BF8002FF0
1FF0003FF4
2FD000BFFC
3FC001F7FC
3F8003E2FD
7F800BC2FD
7F801F41FE
7F802F01FE
7F807D01FE
7F80F801FD
3F82F002FD
3FC7D002FC
2FDB8003FC
1FFF400BF8
0BFE002FF0
07FF55BFD0
01FFFFFF80
03FFFFFD00
0BC6FF9000
1F40000000
0500000000
ENDCHAR
STARTCHAR oslashacute
ENCODING 511
SWIDTH 566 0
DWIDTH 18 0
BBX 16 26 1 -2
BITMAP
0000BF40
0001FE00
0007F800
000BE000
001BC000
000000A4
000001F0
006FFBD0
02FFFFC0
0BFFFFE0
1FF42FF8
3FD03FFD
7F807DFD
BF40F4FE
BF01F0FF
BF03D0FF
BF0780FF
BF4F40FE
7F9E01FE
3FFD03FC
1FFC1BF8
0BFFFFF0
02FFFF80
03EFF900
07800000
0A400000
ENDCHAR
STARTCHAR uni0218
ENCODING 536
SWIDTH 603 0
DWIDTH 19 0
BBX 17 31 1 -8
BITMAP
001BFE4000
02FFFFF400
0BFFFFFD00
1FF956FF40
3FD000BF80
3FC0003FC0
3FC0002FC0
3FD0000000
2FF4000000
0FFF900000
03FFFE4000
00BFFFE000
0006FFFD00
00001BFF00
000001FF80
0000003FC0
BF00003FC0
BF40003FC0
7FC0007FC0
2FF906FF80
0BFFFFFE00
02FFFFF800
001BFE9000
0000000000
0000000000
0002F80000
0002F40000
0002F40000
0003F00000
000BD00000
0002800000
ENDCHAR
STARTCHAR uni0219
ENCODING 537
SWIDTH 516 0
DWIDTH 17 0
BBX 14 25 1 -8
BITMAP
00AFE400
07FFFF40
1FFFFFD0
3FD02FE0
7F800FF0
7F800550
3FE40000
1FFFE400
06FFFF40
006BFFD0
00006FF0
69000BF0
BF000BF0
7FD01FF0
2FFFFFD0
0BFFFF40
01AFE800
00000000
00000000
000FC000
000FC000
000FC000
001F8000
003F0000
00190000
ENDCHAR
STARTCHAR uni021A
ENCODING 538
SWIDTH 606 0
DWIDTH 19 0
BBX 19 31 0 -8
BITMAP
7FFFFFFFF8
7FFFFFFFF8
7FFFFFFFF8
1555FE5550
0001FE0000
0001FE0000
0001FE0000
0001FE0000
0001FE0000
0001FE0000
0001FE0000
0001FE0000
0001FE0000
0001FE0000
0001FE0000
0001FE0000
0001FE0000
0001FE0000
0001FE0000
0001FE0000
0001FE0000
0001FE0000
0001FE0000
0000000000
0000000000
0000FD0000
0000FD0000
0000FC0000
0001F80000
0002F40000
0001900000
ENDCHAR
STARTCHAR uni021B
ENCODING 539
SWIDTH 332 0
DWIDTH 11 0
BBX 10 29 0 -8
BITMAP
03F800
03F800
03F800
03F800
FFFFE0
FFFFE0
ABFEA0
03F800
03F800
03F800
03F800
03F800
03F800
03F800
03F800
03F800
03F800
03FD50
02FFE0
01FFE0
006FE0
000000
000000
002F80
002F40
002F40
003F00
00BD00
002800
ENDCHAR
STARTCHAR uni0237
ENCODING 567
SWIDTH 268 0
DWIDTH 9 0
BBX 8 24 -1 -7
BITMAP
01FD
01FD
01FD
01FD
01FD
01FD
01FD
01FD
01FD
01FD
01FD
01FD
01FD
01FD
01FD
01FD
01FD
01FD
02FD
02FD
07FC
FFF8
FFE0
FE40
ENDCHAR
STARTCHAR uni0259
ENCODING 601
SWIDTH 529 0
DWIDTH 17 0
BBX 15 17 1 0
BITMAP
01BFE400
1FFFFE00
3FFFFF80
1E407FE0
04000FF0
000007F4
000003F8
BFFFFFF8
BFFFFFFC
BFAAABF8
BF4007F8
7F400BF4
3F800FF0
2FE47FE0
0FFFFF80
07FFFE00
006FE400
ENDCHAR
STARTCHAR uni02BC
ENCODING 700
SWIDTH 216 0
DWIDTH 7 0
BBX 5 8 1 16
BITMAP
2F80
2F80
2F80
3F40
3F00
7E00
FC00
6400
ENDCHAR
STARTCHAR circumflex
ENCODING 710
SWIDTH 487 0
DWIDTH 16 0
BBX 11 5 2 20
BITMAP
00FD00
03FF40
0BEFD0
2F87F4
6E01E8
ENDCHAR
STARTCHAR caron
ENCODING 711
SWIDTH 460 0
DWIDTH 15 0
BBX 11 5 2 20
BITMAP
FD02F8
3F4BE0
1FEF80
07FE00
01FC00
ENDCHAR
STARTCHAR uni02C9
ENCODING 713
SWIDTH 482 0
DWIDTH 15 0
BBX 11 3 2 20
BITMAP
BFFFFC
BFFFFC
555554
ENDCHAR
STARTCHAR breve
ENCODING 728
SWIDTH 435 0
DWIDTH 14 0
BBX 10 4 2 19
BITMAP
F803F0
FE5BE0
7FFFC0
0BF900
ENDCHAR
STARTCHAR dotaccent
ENCODING 729
SWIDTH 255 0
DWIDTH 8 0
BBX 4 4 2 19
BITMAP
69
FF
FF
7D
ENDCHAR
STARTCHAR ring
ENCODING 730
SWIDTH 336 0
DWIDTH 11 0
BBX 7 7 2 18
BITMAP
0540
7FE0
B4B4
E038
E038
BAF4
1F90
ENDCHAR
STARTCHAR ogonek
ENCODING 731
SWIDTH 287 0
DWIDTH 9 0
BBX 7 8 0 -7
BITMAP
0080
07E0
1F80
3F00
7E00
7FA4
3FF4
0BE4
ENDCHAR
STARTCHAR tilde
ENCODING 732
SWIDTH 480 0
DWIDTH 15 0
BBX 12 4 2 20
BITMAP
064029
7FFAFC
BFFFF8
F81BE0
ENDCHAR
STARTCHAR hungarumlaut
ENCODING 733
SWIDTH 390 0
DWIDTH 12 0
BBX 12 5 1 19
BITMAP
07F4BF
0FD2FC
2F87F4
7F0FD0
6D1B80
ENDCHAR
STARTCHAR uni02F3
ENCODING 755
SWIDTH 302 0
DWIDTH 10 0
BBX 6 6 2 -7
BITMAP
2F40
B6D0
E0E0
B1E0
7FC0
0500
ENDCHAR
STARTCHAR gravecomb
ENCODING 768
SWIDTH 0 0
DWIDTH 0 0
BBX 8 5 -14 19
BITMAP
7FC0
2FE0
0BF4
02FC
00F9
ENDCHAR
STARTCHAR acutecomb
ENCODING 769
SWIDTH 0 0
DWIDTH 0 0
BBX 8 5 -11 19
BITMAP
02FD
0BF8
1FE0
2F80
6F00
ENDCHAR
STARTCHAR tildecomb
ENCODING 771
SWIDTH 0 0
DWIDTH 0 0
BBX 11 4 -14 20
BITMAP
064028
7FFAFC
FFFFF8
F42FE0
ENDCHAR
STARTCHAR hookabovecomb
ENCODING 777
SWIDTH 0 0
DWIDTH 0 0
BBX 6 6 -11 20
BITMAP
F900
FF80
1FD0
1FD0
BF40
BC00
ENDCHAR
STARTCHAR uni030F
ENCODING 783
SWIDTH 0 0
DWIDTH 0 0
BBX 13 4 -16 20
BITMAP
7F8BF400
1FE2FD00
02FCBF00
00BA2E40
ENDCHAR
STARTCHAR dotbelowcomb
ENCODING 803
SWIDTH 0 0
DWIDTH 0 0
BBX 5 4 -12 -6
BITMAP
2E00
7F80
7F80
2A00
ENDCHAR
STARTCHAR tonos
ENCODING 900
SWIDTH 295 0
DWIDTH 9 0
BBX 5 5 3 20
BITMAP
3F40
7F00
7D00
BC00
A800
ENDCHAR
STARTCHAR dieresistonos
ENCODING 901
SWIDTH 529 0
DWIDTH 17 0
BBX 14 8 1 19
BITMAP
0007F000
000BE000
000BD000
000FC000
190B4680
7F400FE0
7F400FF0
2E0007D0
ENDCHAR
STARTCHAR Alphatonos
ENCODING 902
SWIDTH 665 0
DWIDTH 21 0
BBX 21 25 0 0
BITMAP
03F400000000
07F000000000
0BD07F800000
0BC0BFC00000
0A80FFD00000
0001FFE00000
0002FFF00000
0007FBF40000
000BF2FC0000
000FE1FD0000
001FD0FE0000
002FC0BF0000
003F807F4000
007F403F8000
00BF002FC000
01FE001FD000
02FFFFFFF000
03FFFFFFF400
07FFFFFFF800
0BF55557FC00
0FE00002FD00
1FD00001FE00
2FD00000FF00
3FC00000BF40
BF8000007FC0
ENDCHAR
STARTCHAR anoteleia
ENCODING 903
SWIDTH 282 0
DWIDTH 9 0
BBX 5 4 2 9
BITMAP
2E00
BF80
BF80
7F00
ENDCHAR
STARTCHAR Epsilontonos
ENCODING 904
SWIDTH 565 0
DWIDTH 18 0
BBX 23 25 -5 0
BITMAP
2F8000000000
2F4000000000
3F02FFFFFFF0
7E02FFFFFFF0
6C02FFFFFFF0
0002FD555550
0002FD000000
0002FD000000
0002FD000000
0002FD000000
0002FD000000
0002FD000000
0002FFFFFF80
0002FFFFFF80
0002FFFFFF80
0002FD000000
0002FD000000
0002FD000000
0002FD000000
0002FD000000
0002FD000000
0002FD000000
0002FFFFFFF4
0002FFFFFFF4
0002FFFFFFF4
ENDCHAR
STARTCHAR Etatonos
ENCODING 905
SWIDTH 710 0
DWIDTH 23 0
BBX 25 25 -4 0
BITMAP
7F000000000000
BE000000000000
BC0BF40000BF40
F80BF40000BF40
B40BF40000BF40
000BF40000BF40
000BF40000BF40
000BF40000BF40
000BF40000BF40
000BF40000BF40
000BF40000BF40
000BF40000BF40
000BFFFFFFFF40
000BFFFFFFFF40
000BFFFFFFFF40
000BF55555BF40
000BF40000BF40
000BF40000BF40
000BF40000BF40
000BF40000BF40
000BF40000BF40
000BF40000BF40
000BF40000BF40
000BF40000BF40
000BF40000BF40
ENDCHAR
STARTCHAR Iotatonos
ENCODING 906
SWIDTH 282 0
DWIDTH 9 0
BBX 11 25 -4 0
BITMAP
7F0000
BE0000
BC07F4
F807F4
B407F4
0007F4
0007F4
0007F4
0007F4
0007F4
0007F4
0007F4
0007F4
0007F4
0007F4
0007F4
0007F4
0007F4
0007F4
0007F4
0007F4
0007F4
0007F4
0007F4
0007F4
ENDCHAR
STARTCHAR Omicrontonos
ENCODING 908
SWIDTH 700 0
DWIDTH 22 0
BBX 23 25 -2 0
BITMAP
2F8000000000
2F4000000000
3F001AFE4000
7E00BFFFF800
6C03FFFFFE00
000FFE56FF80
002FF4007FD0
003FD0001FE0
007F80000FF0
00BF40000BF4
00FF000007F8
00FF000007F8
00FF000007F8
00FF000007F8
00FF000007F8
00FF000007F8
00FF000007F8
00BF40000BF4
007F80000FF0
003FD0001FE0
002FF0007FD0
000FFE56FF80
0003FFFFFE00
0000BFFFF800
00001AFE4000
ENDCHAR
STARTCHAR Upsilontonos
ENCODING 910
SWIDTH 658 0
DWIDTH 21 0
BBX 26 25 -5 0
BITMAP
2F800000000000
3F400000000000
3F03FD00002FE0
7D02FE00007FC0
6C00FF4000BF80
00007F8000FF00
00003FD002FE00
00001FE003FC00
00000FF40BF400
000007F80FF000
000003FC2FD000
000001FE3FC000
000000BFBF4000
0000007FFF0000
0000002FFD0000
0000001FF80000
0000000BF40000
0000000BF40000
0000000BF40000
0000000BF40000
0000000BF40000
0000000BF40000
0000000BF40000
0000000BF40000
0000000BF40000
ENDCHAR
STARTCHAR Omegatonos
ENCODING 911
SWIDTH 679 0
DWIDTH 22 0
BBX 21 25 -1 0
BITMAP
7F0000000000
BE0000000000
BC006FF90000
F807FFFF8000
B41FFFFFF000
003FF56FF800
00BF8003FD00
01FF0001FF00
02FE0000FF40
02FD0000BF80
03FD0000BF80
03FD00007F80
03FD00007F80
03FD00007F80
03FD00007F80
02FD0000BF80
02FD0000BF40
01FE0000FF00
00BF0001FE00
007F4002FC00
002FC007F400
005FF42FE500
03FFFC7FFF80
03FFFC7FFF80
03FFFC7FFF80
ENDCHAR
STARTCHAR iotadieresistonos
ENCODING 912
SWIDTH 333 0
DWIDTH 11 0
BBX 14 27 -2 0
BITMAP
000FE000
000FD000
001F8000
001F4000
291B0640
BF001FD0
BF001FD0
7D000B80
00000000
00000000
007F4000
007F4000
007F4000
007F4000
007F4000
007F4000
007F4000
007F4000
007F4000
007F4000
007F4000
007F4000
007F4000
007FD400
003FFE00
001FFE00
0006FD00
ENDCHAR
STARTCHAR Alpha
ENCODING 913
SWIDTH 665 0
DWIDTH 21 0
BBX 21 23 0 0
BITMAP
00007F800000
0000BFC00000
0000FFD00000
0001FFE00000
0002FFF00000
0007FBF40000
000BF2FC0000
000FE1FD0000
001FD0FE0000
002FC0BF0000
003F807F4000
007F403F8000
00BF002FC000
01FE001FD000
02FFFFFFF000
03FFFFFFF400
07FFFFFFF800
0BF55557FC00
0FE00002FD00
1FD00001FE00
2FD00000FF00
3FC00000BF40
BF8000007FC0
ENDCHAR
STARTCHAR Beta
ENCODING 914
SWIDTH 630 0
DWIDTH 20 0
BBX 17 23 2 0
BITMAP
BFFFFA4000
BFFFFFE000
BFFFFFF800
BF555BFD00
BF4002FE00
BF4000FF00
BF4000FF00
BF4000FF00
BF4001FE00
BF401BFC00
BFFFFFE000
BFFFFFD000
BFFFFFF800
BF4006FE00
BF4000FF40
BF4000BF40
BF40007F80
BF4000BF40
BF4000FF40
BF4017FF00
BFFFFFFD00
BFFFFFF400
BFFFFE4000
ENDCHAR
STARTCHAR Gamma
ENCODING 915
SWIDTH 557 0
DWIDTH 18 0
BBX 15 23 2 0
BITMAP
BFFFFFFC
BFFFFFFC
BFFFFFFC
BF555550
BF400000
BF400000
BF400000
BF400000
BF400000
BF400000
BF400000
BF400000
BF400000
BF400000
BF400000
BF400000
BF400000
BF400000
BF400000
BF400000
BF400000
BF400000
BF400000
ENDCHAR
STARTCHAR uni0394
ENCODING 916
SWIDTH 718 0
DWIDTH 23 0
BBX 23 23 0 0
BITMAP
00001FE00000
00003FF00000
00007FF80000
0000BFFC0000
0000FFFD0000
0002FDFE0000
0003FCBF0000
0007F87F4000
000BF03FC000
000FE02FD000
002FD01FE000
003FC00FF000
007F800BF400
00BF4003F800
00FE0002FD00
02FD0001FE00
03FC0000FF00
07F80000BF40
0BF400007F80
1FF000007FC0
2FFFFFFFFFE0
3FFFFFFFFFF0
7FFFFFFFFFF4
ENDCHAR
STARTCHAR Epsilon
ENCODING 917
SWIDTH 565 0
DWIDTH 18 0
BBX 16 23 2 0
BITMAP
BFFFFFFC
BFFFFFFC
BFFFFFFC
BF555554
BF400000
BF400000
BF400000
BF400000
BF400000
BF400000
BFFFFFE0
BFFFFFE0
BFFFFFE0
BF400000
BF400000
BF400000
BF400000
BF400000
BF400000
BF400000
BFFFFFFD
BFFFFFFD
BFFFFFFD
ENDCHAR
STARTCHAR Zeta
ENCODING 918
SWIDTH 602 0
DWIDTH 19 0
BBX 18 23 1 0
BITMAP
BFFFFFFF80
BFFFFFFF80
BFFFFFFF80
155555FF00
000003FD00
00000BF800
00001FF000
00003FD000
0000BF8000
0001FF0000
0003FD0000
000BF80000
001FF00000
003FD00000
00BF800000
01FF000000
03FD000000
0BF8000000
1FF0000000
3FD0000000
BFFFFFFFD0
BFFFFFFFD0
BFFFFFFFD0
ENDCHAR
STARTCHAR Eta
ENCODING 919
SWIDTH 710 0
DWIDTH 23 0
BBX 19 23 2 0
BITMAP
BF40000BF4
BF40000BF4
BF40000BF4
BF40000BF4
BF40000BF4
BF40000BF4
BF40000BF4
BF40000BF4
BF40000BF4
BF40000BF4
BFFFFFFFF4
BFFFFFFFF4
BFFFFFFFF4
BF55555BF4
BF40000BF4
BF40000BF4
BF40000BF4
BF40000BF4
BF40000BF4
BF40000BF4
BF40000BF4
BF40000BF4
BF40000BF4
ENDCHAR
STARTCHAR Theta
ENCODING 920
SWIDTH 684 0
DWIDTH 22 0
BBX 20 23 1 0
BITMAP
0006FF9000
007FFFF900
02FFFFFF40
07FF56FFD0
0FF8002FE0
2FE0000FF4
3FC00007F8
7F800003FC
7F800003FC
BF47FFE2FD
BF47FFE2FD
BF47FFE2FD
BF400002FD
BF400002FD
7F800003FC
7F800003FC
3FC00007F8
2FE0000FF4
0FF8002FE0
07FE55FFD0
02FFFFFF40
007FFFF900
0006FF9000
ENDCHAR
STARTCHAR Iota
ENCODING 921
SWIDTH 282 0
DWIDTH 9 0
BBX 5 23 2 0
BITMAP
7F40
7F40
7F40
7F40
7F40
7F40
7F40
7F40
7F40
7F40
7F40
7F40
7F40
7F40
7F40
7F40
7F40
7F40
7F40
7F40
7F40
7F40
7F40
ENDCHAR
STARTCHAR Kappa
ENCODING 922
SWIDTH 630 0
DWIDTH 20 0
BBX 18 23 2 0
BITMAP
BF40007FD0
BF4001FF80
BF4003FE00
BF400BFC00
BF402FF400
BF407FD000
BF41FF4000
BF43FE0000
BF4FF80000
BF6FF00000
BFBFE00000
BFFFF40000
BFFFFC0000
BFF6FE0000
BFE1FF4000
BF807FD000
BF402FE000
BF400FF800
BF4007FD00
BF4002FF00
BF4000FF80
BF40007FD0
BF40002FF0
ENDCHAR
STARTCHAR Lambda
ENCODING 923
SWIDTH 652 0
DWIDTH 21 0
BBX 20 23 0 0
BITMAP
0000BF4000
0000FF8000
0001FFC000
0002FFE000
0003FFF000
0007FFF400
000BFBF800
000FE3FC00
001FD2FD00
002FC1FE00
007F80FF00
00BF40BF40
00FF007F80
01FF003FC0
02FE002FD0
03FD001FE0
07FC000FF0
0BF8000BF4
0FF40007F8
1FF00003FC
2FE00002FD
3FD00001FE
7FC00000FF
ENDCHAR
STARTCHAR Mu
ENCODING 924
SWIDTH 875 0
DWIDTH 28 0
BBX 24 23 2 0
BITMAP
BFE000000BFE
BFF000000FFE
BFF400001FFE
BFF800002FFE
BFFC00003FFE
BFFD00007FFE
BFBF0000FEFE
BF7F4001FDFE
BF3F8002FCFE
BF2FC003F8FE
BF1FD007F0FE
BF0BE00BE0FE
BF07F00FD1FE
BF43F41FC1FE
BF42FC3F81FE
BF41FD7F41FE
BF40FEBF01FE
BF40BFFD01FE
BF403FFC01FE
BF402FF801FE
BF401FF401FE
BF400FF001FE
BF400BE001FE
ENDCHAR
STARTCHAR Nu
ENCODING 925
SWIDTH 709 0
DWIDTH 23 0
BBX 19 23 2 0
BITMAP
BF80000BF4
BFD0000BF4
BFE0000BF4
BFF4000BF4
BFFC000BF4
BFFE000BF4
BFFF400BF4
BFBFC00BF4
BF6FE00BF4
BF4FF40BF4
BF47F80BF4
BF42FD0BF4
BF40FF0BF4
BF40BF8BF4
BF403FDBF4
BF401FFBF4
BF400BFFF4
BF4003FFF4
BF4001FFF4
BF4000BFF4
BF40007FF4
BF40002FF4
BF40000FF4
ENDCHAR
STARTCHAR Xi
ENCODING 926
SWIDTH 570 0
DWIDTH 18 0
BBX 16 23 1 0
BITMAP
3FFFFFFD
3FFFFFFD
3FFFFFFD
15555554
00000000
00000000
00000000
00000000
00000000
00000000
0BFFFFF0
0BFFFFF0
0BFFFFF0
00000000
00000000
00000000
00000000
00000000
00000000
00000000
7FFFFFFE
7FFFFFFE
7FFFFFFE
ENDCHAR
STARTCHAR Omicron
ENCODING 927
SWIDTH 690 0
DWIDTH 22 0
BBX 20 23 1 0
BITMAP
0006FF9000
007FFFFD00
01FFFFFF40
07FF95FFD0
0FF8002FF0
1FF0000BF4
2FD00007F8
3FC00003FC
7F800002FD
7F800002FD
7F800002FD
7F800001FD
7F800002FD
7F800002FD
7F800002FD
3FC00003FC
2FD00007F8
1FF0000BF4
0FF8002FF0
07FF55BFD0
01FFFFFF40
007FFFFD00
0006FF9000
ENDCHAR
STARTCHAR Pi
ENCODING 928
SWIDTH 711 0
DWIDTH 23 0
BBX 19 23 2 0
BITMAP
BFFFFFFFF4
BFFFFFFFF4
BFFFFFFFF4
BF55555BF4
BF40000BF4
BF40000BF4
BF40000BF4
BF40000BF4
BF40000BF4
BF40000BF4
BF40000BF4
BF40000BF4
BF40000BF4
BF40000BF4
BF40000BF4
BF40000BF4
BF40000BF4
BF40000BF4
BF40000BF4
BF40000BF4
BF40000BF4
BF40000BF4
BF40000BF4
ENDCHAR
STARTCHAR Rho
ENCODING 929
SWIDTH 639 0
DWIDTH 20 0
BBX 18 23 2 0
BITMAP
BFFFFE4000
BFFFFFF400
BFFFFFFE00
BF5556FF40
BF4000BF80
BF40003FC0
BF40002FD0
BF40002FD0
BF40003FD0
BF40007FC0
BF4006FF80
BFFFFFFE00
BFFFFFF800
BFFFFF9000
BF55400000
BF40000000
BF40000000
BF40000000
BF40000000
BF40000000
BF40000000
BF40000000
BF40000000
ENDCHAR
STARTCHAR Sigma
ENCODING 931
SWIDTH 570 0
DWIDTH 18 0
BBX 17 23 1 0
BITMAP
FFFFFFFE00
FFFFFFFE00
BFFFFFFE00
3FE5555400
1FF4000000
07FC000000
02FE000000
00BF800000
003FD00000
001FF00000
000BF80000
0003FD0000
000BF80000
001FF00000
003FD00000
00FF800000
02FE000000
07FC000000
1FF4000000
3FE0000000
BFFFFFFF40
FFFFFFFF40
FFFFFFFF40
ENDCHAR
STARTCHAR Tau
ENCODING 932
SWIDTH 606 0
DWIDTH 19 0
BBX 19 23 0 0
BITMAP
7FFFFFFFF8
7FFFFFFFF8
7FFFFFFFF8
1555FE5550
0001FE0000
0001FE0000
0001FE0000
0001FE0000
0001FE0000
0001FE0000
0001FE0000
0001FE0000
0001FE0000
0001FE0000
0001FE0000
0001FE0000
0001FE0000
0001FE0000
0001FE0000
0001FE0000
0001FE0000
0001FE0000
0001FE0000
ENDCHAR
STARTCHAR Upsilon
ENCODING 933
SWIDTH 609 0
DWIDTH 20 0
BBX 19 23 0 0
BITMAP
BF800007FC
3FD0000BF8
2FE0001FF0
0FF4002FE0
0BF8007FC0
03FC00BF40
01FE00FF00
00FF02FD00
007F83FC00
003FCBF400
001FEFE000
000FFFD000
0007FF8000
0002FF4000
0001FE0000
0001FE0000
0001FE0000
0001FE0000
0001FE0000
0001FE0000
0001FE0000
0001FE0000
0001FE0000
ENDCHAR
STARTCHAR Phi
ENCODING 934
SWIDTH 741 0
DWIDTH 24 0
BBX 22 23 1 0
BITMAP
00003FC00000
00003FC00000
00003FC00000
001BFFFE4000
01FFFFFFE000
07FFFFFFFD00
1FFE7FDBFF00
3FE03FC0BF80
7F803FC03FC0
BF403FC01FD0
BF003FC01FE0
BF003FC01FE0
BF003FC01FE0
BF403FC01FE0
7F803FC02FD0
3FD03FC07FC0
1FF93FC6FF40
0BFFFFFFFE00
02FFFFFFF400
006FFFFF8000
00017FD00000
00003FC00000
00003FC00000
ENDCHAR
STARTCHAR Chi
ENCODING 935
SWIDTH 632 0
DWIDTH 20 0
BBX 19 23 1 0
BITMAP
FF80001FF4
7FD0003FE0
2FE000BFC0
0FF400FF40
07FC02FE00
03FE07FD00
01FF0BF800
00BF9FF000
003FFFD000
001FFF8000
000FFF4000
0007FE0000
000FFF4000
002FFFC000
007FFFD000
00BF9FF000
01FF0BF800
03FD07FD00
0BFC02FF00
1FF400FF80
2FE0007FC0
7FC0002FE0
FF80001FF4
ENDCHAR
STARTCHAR Psi
ENCODING 936
SWIDTH 708 0
DWIDTH 23 0
BBX 21 23 1 0
BITMAP
FF00BF40BF40
FF00BF40BF40
FF00BF40BF40
FF00BF40BF40
FF00BF40BF40
FF00BF40BF40
FF00BF40BF40
FF00BF40BF40
FF00BF40BF40
BF00BF40BF40
BF40BF40FF00
7F80BF41FF00
3FE0BF43FD00
1FF9BF5FF800
0BFFFFFFF000
01FFFFFF8000
002FFFF90000
0000BF400000
0000BF400000
0000BF400000
0000BF400000
0000BF400000
0000BF400000
ENDCHAR
STARTCHAR uni03A9
ENCODING 937
SWIDTH 669 0
DWIDTH 21 0
BBX 19 23 1 0
BITMAP
0006FE8000
007FFFF400
02FFFFFE00
07FE56FF80
0FF4007FD0
2FE0002FE0
3FD0001FF0
3FC0000FF4
7FC0000FF4
7FC0000BF4
7FC0000BF4
7FC0000BF4
7FC0000BF4
3FC0000FF4
3FC0000FF0
2FD0001FE0
0FE0002FD0
0BF0003F80
03F800BF00
15FE46FD50
3FFF8BFFF4
3FFF8BFFF4
3FFF8BFFF4
ENDCHAR
STARTCHAR Iotadieresis
ENCODING 938
SWIDTH 282 0
DWIDTH 9 0
BBX 11 29 -1 0
BITMAP
2800A4
FE02FC
FF02FC
7D01F4
000000
000000
01FD00
01FD00
01FD00
01FD00
01FD00
01FD00
01FD00
01FD00
01FD00
01FD00
01FD00
01FD00
01FD00
01FD00
01FD00
01FD00
01FD00
01FD00
01FD00
01FD00
01FD00
01FD00
01FD00
ENDCHAR
STARTCHAR Upsilondieresis
ENCODING 939
SWIDTH 609 0
DWIDTH 20 0
BBX 19 29 0 0
BITMAP
0029006400
00BF01FD00
00BF02FD00
007E00B800
0000000000
0000000000
BF800007FC
3FD0000BF8
2FE0001FF0
0FF4002FE0
0BF8007FC0
03FC00BF40
01FE00FF00
00FF02FD00
007F83FC00
003FCBF400
001FEFE000
000FFFD000
0007FF8000
0002FF4000
0001FE0000
0001FE0000
0001FE0000
0001FE0000
0001FE0000
0001FE0000
0001FE0000
0001FE0000
0001FE0000
ENDCHAR
STARTCHAR alphatonos
ENCODING 940
SWIDTH 564 0
DWIDTH 18 0
BBX 17 25 1 0
BITMAP
0000BE0000
0000FC0000
0001F80000
0001F40000
0001A00000
0000000000
0000000000
0000000000
006F91FC00
03FFFAFC00
0FFFFFFC00
2FF41FFC00
3FD007FC00
7F8003FC00
7F4002FC00
BF4002FC00
BF0002FC00
BF0002FC00
BF4002FC00
7F8002FC00
3FC007FC00
2FF41FFE00
0FFFFFFF80
07FFF8FF80
00BF902F80
ENDCHAR
STARTCHAR epsilontonos
ENCODING 941
SWIDTH 546 0
DWIDTH 18 0
BBX 15 25 1 0
BITMAP
0002F800
0003F400
0003E000
0007D000
0006C000
00000000
00000000
00000000
00AFF900
0BFFFFD0
2FFFFFF0
3FE01BF8
3F8003FC
3F800000
2FE00000
0BFFFC00
06FFFC00
1FFAA800
3FC00000
7F400054
7F4002FC
7FD01BFC
2FFFFFF4
0BFFFFD0
00AFF900
ENDCHAR
STARTCHAR etatonos
ENCODING 942
SWIDTH 566 0
DWIDTH 18 0
BBX 14 32 2 -7
BITMAP
000BF000
000BD000
000FC000
000F8000
001B0000
00000000
00000000
00000000
FD1BF900
FEBFFF80
FFFFFFD0
FFD06FE0
FF000FF0
FE000BF0
FE000BF0
FE000BF0
FE000BF0
FE000BF0
FE000BF0
FE000BF0
FE000BF0
FE000BF0
FE000BF0
FE000BF0
FE000BF0
00000BF0
00000BF0
00000BF0
00000BF0
00000BF0
00000BF0
00000BF0
ENDCHAR
STARTCHAR iotatonos
ENCODING 943
SWIDTH 333 0
DWIDTH 11 0
BBX 8 25 2 0
BITMAP
0BE0
0FC0
1F80
1F40
1A00
0000
0000
0000
7F40
7F40
7F40
7F40
7F40
7F40
7F40
7F40
7F40
7F40
7F40
7F40
7F40
7FD4
3FFE
1FFE
06FD
ENDCHAR
STARTCHAR upsilondieresistonos
ENCODING 944
SWIDTH 546 0
DWIDTH 18 0
BBX 14 27 2 0
BITMAP
000FE000
000FC000
001F8000
001F4000
281B0640
BF001FD0
FF002FD0
7D000B80
00000000
00000000
FE007F80
FE003FC0
FE002FD0
FE001FE0
FE000FE0
FE000FF0
FE000BF0
FE000BF0
FE000BF0
FE000BF0
FE000FF0
FF001FE0
BF403FD0
7FD1FF80
3FFFFF00
1FFFFD00
01BF9000
ENDCHAR
STARTCHAR alpha
ENCODING 945
SWIDTH 564 0
DWIDTH 18 0
BBX 17 17 1 0
BITMAP
006F91FC00
03FFFAFC00
0FFFFFFC00
2FF41FFC00
3FD007FC00
7F8003FC00
7F4002FC00
BF4002FC00
BF0002FC00
BF0002FC00
BF4002FC00
7F8002FC00
3FC007FC00
2FF41FFE00
0FFFFFFF80
07FFF8FF80
00BF902F80
ENDCHAR
STARTCHAR beta
ENCODING 946
SWIDTH 596 0
DWIDTH 19 0
BBX 16 29 2 -6
BITMAP
006FE900
02FFFF80
0FFFFFE0
2FE46FF4
7F800BF4
BF4007F8
BF0007F8
BF0007F4
BF001FE0
BF0BFF80
BF0BFF40
BF0BFFE0
BF000BF8
BF0003FD
BF0001FD
BF0001FE
BF0001FE
BF0001FE
BF4003FD
BFD41FFC
BFFFFFF4
BFFFFFD0
BF1BFA00
BF000000
BF000000
BF000000
BF000000
BF000000
BF000000
ENDCHAR
STARTCHAR gamma
ENCODING 947
SWIDTH 506 0
DWIDTH 16 0
BBX 16 24 0 -7
BITMAP
7F8001FE
3FC002FD
2FD003FC
1FE003F8
0FE007F4
0BF00BF0
07F40FE0
03F81FD0
02FC2FC0
01FD3F80
00FE7F40
00BFBF00
003FFE00
002FFC00
001FF800
000FF400
000BF000
000BF000
000BF000
000BF000
000BF000
000BF000
000BF000
000BF000
ENDCHAR
STARTCHAR delta
ENCODING 948
SWIDTH 566 0
DWIDTH 18 0
BBX 16 24 1 0
BITMAP
002BFA40
01FFFF80
07FFFF80
0BF80640
0BF00000
0BF40000
07FE0000
02FFE400
007FFE40
01BFFFD0
07F97FF4
1FD00BFC
3F8003FD
7F4001FE
BF4000FE
BF0000FF
BF0000FE
BF4000FE
7F8001FD
3FC003FC
2FF41BF8
0BFFFFF0
02FFFF80
006FF900
ENDCHAR
STARTCHAR epsilon
ENCODING 949
SWIDTH 546 0
DWIDTH 18 0
BBX 15 17 1 0
BITMAP
00AFF900
0BFFFFD0
2FFFFFF0
3FE01BF8
3F8003FC
3F800000
2FE00000
0BFFFC00
06FFFC00
1FFAA800
3FC00000
7F400054
7F4002FC
7FD01BFC
2FFFFFF4
0BFFFFD0
00AFF900
ENDCHAR
STARTCHAR zeta
ENCODING 950
SWIDTH 512 0
DWIDTH 16 0
BBX 14 29 1 -6
BITMAP
7FFFFFF0
7FFFFFF0
7FFFFFF0
00003FD0
0000BF40
0002FE00
0007F800
001FF000
003FC000
00BF4000
01FE0000
03F80000
0BF40000
0FE00000
1FE00000
1FD00000
2FD00000
2FD00000
1FE00000
0FF80000
0BFF9400
02FFFE40
006FFFC0
0001BFD0
00001FD0
00001FD0
00002F80
00007F00
00001800
ENDCHAR
STARTCHAR eta
ENCODING 951
SWIDTH 566 0
DWIDTH 18 0
BBX 14 24 2 -7
BITMAP
FD1BF900
FEBFFF80
FFFFFFD0
FFD06FE0
FF000FF0
FE000BF0
FE000BF0
FE000BF0
FE000BF0
FE000BF0
FE000BF0
FE000BF0
FE000BF0
FE000BF0
FE000BF0
FE000BF0
FE000BF0
00000BF0
00000BF0
00000BF0
00000BF0
00000BF0
00000BF0
00000BF0
ENDCHAR
STARTCHAR theta
ENCODING 952
SWIDTH 578 0
DWIDTH 19 0
BBX 16 23 1 0
BITMAP
002BF900
01FFFF80
07FFFFE0
0BF81FF4
1FE007F8
2FC002FC
3FC001FD
3F8001FE
3F8000FE
7F8000FE
7FFFFFFE
7FFFFFFE
7FFFFFFE
7F8000FE
3F8000FE
3F8001FE
3FC001FD
2FC002FC
1FE003F8
0BF81FF4
07FFFFE0
01FFFF80
001BF900
ENDCHAR
STARTCHAR iota
ENCODING 953
SWIDTH 333 0
DWIDTH 11 0
BBX 8 17 2 0
BITMAP
7F40
7F40
7F40
7F40
7F40
7F40
7F40
7F40
7F40
7F40
7F40
7F40
7F40
7FD4
3FFE
1FFE
06FD
ENDCHAR
STARTCHAR kappa
ENCODING 954
SWIDTH 574 0
DWIDTH 18 0
BBX 16 17 2 0
BITMAP
BF000BFC
BF002FF0
BF007FD0
BF00FF80
BF02FE00
BF0BFC00
BF1FF400
BFFFE000
BFFFC000
BFFFE000
BF6FF400
BF07FD00
BF02FF00
BF00FF80
BF003FE0
BF001FF4
BF000BFD
ENDCHAR
STARTCHAR lambda
ENCODING 955
SWIDTH 551 0
DWIDTH 18 0
BBX 17 24 0 0
BITMAP
0BF8000000
0BFE000000
0BFF400000
00BF800000
003FC00000
002FD00000
000FF00000
000BF40000
000FF80000
001FFC0000
002FFD0000
003FFF0000
007FFF4000
00BF7F8000
01FE3FC000
02FD2FD000
03FC1FF000
07F80BF400
0BF407F800
0FF003FC00
1FE002FE40
2FD001FFC0
3FC000BFC0
7F80002FC0
ENDCHAR
STARTCHAR uni03BC
ENCODING 956
SWIDTH 591 0
DWIDTH 19 0
BBX 15 24 2 -7
BITMAP
BF0007F4
BF0007F4
BF0007F4
BF0007F4
BF0007F4
BF0007F4
BF0007F4
BF0007F4
BF0007F4
BF0007F4
BF0007F4
BF4007F4
BF800BF4
BFE46FF4
BFFFFFF4
BFFFFBF4
BF6F93F4
BF000000
BF000000
BF000000
BF000000
BF000000
BF000000
BF000000
ENDCHAR
STARTCHAR nu
ENCODING 957
SWIDTH 494 0
DWIDTH 16 0
BBX 16 17 0 0
BITMAP
7F4002FD
3F8003FC
2FC007F8
1FD00BF4
0FE00FF0
0BF00FE0
07F41FC0
03F82F80
02F83F40
01FC7F00
00FDBE00
00BEFD00
007FFC00
003FF800
002FF400
001FF000
000FE000
ENDCHAR
STARTCHAR xi
ENCODING 958
SWIDTH 509 0
DWIDTH 16 0
BBX 15 29 1 -6
BITMAP
001BFE90
01FFFFD0
07FFFFD0
0FF94580
1FE00000
1FE00000
0FE00000
0BF90000
02FFFF00
007FFF00
02FFFF00
0BF94000
2FE00000
3F800000
7F800000
7F400000
7F400000
7F800000
3FD00000
2FF90000
0BFFE400
02FFFF80
001BFFF0
00006FF4
000007F4
00000BF0
00000FD0
00002F80
00000A00
ENDCHAR
STARTCHAR omicron
ENCODING 959
SWIDTH 569 0
DWIDTH 18 0
BBX 16 17 1 0
BITMAP
006FF900
02FFFF80
0BFFFFF0
1FF41FF8
3FD003FD
7F8001FE
BF4000FE
BF0000FF
BF0000FF
BF0000FF
BF4000FE
7F8001FE
3FC003FC
1FF41BF8
0BFFFFF0
02FFFF80
006FF900
ENDCHAR
STARTCHAR pi
ENCODING 960
SWIDTH 618 0
DWIDTH 20 0
BBX 20 17 0 0
BITMAP
7FFFFFFFF8
7FFFFFFFF8
7FFFFFFFF8
02FD00BF00
02FD00BF00
02FD00BF00
02FD00BF00
02FD00BF00
02FD00BF00
02FD00BF00
02FD00BF00
02FD00BF00
02FD00BF40
02FD00BF94
02FD007FFD
02FD002FFD
02FD000BF8
ENDCHAR
STARTCHAR rho
ENCODING 961
SWIDTH 566 0
DWIDTH 18 0
BBX 15 24 2 -7
BITMAP
006FE400
07FFFE00
1FFFFFC0
2FE47FE0
7F800FF0
BF400BF4
FF0007F8
FF0003F8
FE0003F8
FE0003F8
FE0007F8
FE0007F8
FF000FF4
FFD06FF0
FFFFFFD0
FFBFFF40
FE1BF800
FE000000
FE000000
FE000000
FE000000
FE000000
FE000000
FE000000
ENDCHAR
STARTCHAR sigma1
ENCODING 962
SWIDTH 526 0
DWIDTH 17 0
BBX 15 23 1 -6
BITMAP
006FF800
02FFFF40
0BFFFFD0
1FF41FF0
3FC007F4
7F8003F8
BF400154
BF000000
BF000000
BF000000
BF400000
7F800000
3FE00000
1FFD0000
07FFE400
01FFFF40
001BFFC0
00007FD0
00001FD0
00002FC0
00003F40
00007E00
00001800
ENDCHAR
STARTCHAR sigma
ENCODING 963
SWIDTH 570 0
DWIDTH 18 0
BBX 17 17 1 0
BITMAP
006FFFFFC0
02FFFFFFC0
0BFFFFFFC0
2FF41FD000
3FC003F400
7F8002F800
BF4001FD00
BF0000FE00
BF0000FE00
BF0001FE00
BF4001FE00
7F8002FD00
3FC003FC00
1FF41FF800
0BFFFFE000
02FFFF8000
006FF90000
ENDCHAR
STARTCHAR tau
ENCODING 964
SWIDTH 521 0
DWIDTH 17 0
BBX 15 17 1 0
BITMAP
FFFFFFF8
FFFFFFF8
FFFFFFF8
002FC000
002FC000
002FC000
002FC000
002FC000
002FC000
002FC000
002FC000
002FC000
002FC000
002FE100
001FFF40
000BFF40
0002FE40
ENDCHAR
STARTCHAR upsilon
ENCODING 965
SWIDTH 546 0
DWIDTH 18 0
BBX 14 17 2 0
BITMAP
FE007F80
FE003FC0
FE002FD0
FE001FE0
FE000FE0
FE000FF0
FE000BF0
FE000BF0
FE000BF0
FE000BF0
FE000FF0
FF001FE0
BF403FD0
7FD1FF80
3FFFFF00
1FFFFD00
01BF9000
ENDCHAR
STARTCHAR phi
ENCODING 966
SWIDTH 726 0
DWIDTH 23 0
BBX 21 24 1 -7
BITMAP
024006FE4000
0BD02FFFE000
1FF03FFFF800
3FD07F87FE00
7F807F40FF40
BF407F407F80
BF007F403FC0
FF007F402FC0
FF007F402FC0
BF007F403FC0
BF407F403F80
7F807F40BF80
3FE07F41FF00
1FFDBF5BFD00
07FFFFFFF800
01BFFFFFD000
001AFFF90000
00007F400000
00007F400000
00007F400000
00007F400000
00007F400000
00007F400000
00007F400000
ENDCHAR
STARTCHAR chi
ENCODING 967
SWIDTH 502 0
DWIDTH 16 0
BBX 17 24 0 -7
BITMAP
7F8000BF00
BFE001FE00
7FF802FC00
07FC07F800
01FE0BF000
00BF1FE000
007F6FC000
002FFF8000
001FFF4000
000FFE0000
000BFD0000
0007FC0000
0007FC0000
000FFE0000
001FFF0000
003FFF4000
007F7FC000
00FF1FD000
01FD0FE000
03FC0BF400
07F803FD40
0BF002FFC0
1FE000BF80
2FC0002F40
ENDCHAR
STARTCHAR psi
ENCODING 968
SWIDTH 723 0
DWIDTH 23 0
BBX 21 24 1 -7
BITMAP
BF00BF41FD00
BF00BF40FE00
BF00BF40BF00
BF00BF407F40
BF00BF407F80
BF00BF403F80
BF00BF403FC0
BF00BF403FC0
BF00BF403FC0
BF40BF403FC0
7F40BF407F80
3FC0BF40BF40
2FE0BF42FF00
0FFDBF5FFD00
07FFFFFFF400
01BFFFFF9000
001AFFE90000
0000BF400000
0000BF400000
0000BF400000
0000BF400000
0000BF400000
0000BF400000
0000BF400000
ENDCHAR
STARTCHAR omega
ENCODING 969
SWIDTH 822 0
DWIDTH 26 0
BBX 24 17 1 0
BITMAP
07F400000FE0
0FF000000BF4
1FE0000007F8
2FD0000003FC
3FC00AA002FD
7F800BF001FD
7F800BF001FE
7F400BF000FE
7F400BF000FE
7F400BF000FE
7F800FF401FE
3F800FF402FD
2FD01FF803FC
1FF47FFE0BF8
0BFFFE7FFFF0
03FFF82FFFD0
006F9006FE00
ENDCHAR
STARTCHAR iotadieresis
ENCODING 970
SWIDTH 333 0
DWIDTH 11 0
BBX 12 24 -1 0
BITMAP
290064
BF02FC
BF02FD
7D00B8
000000
000000
000000
01FD00
01FD00
01FD00
01FD00
01FD00
01FD00
01FD00
01FD00
01FD00
01FD00
01FD00
01FD00
01FD00
01FF50
00FFF8
007FF8
001BF4
ENDCHAR
STARTCHAR upsilondieresis
ENCODING 971
SWIDTH 546 0
DWIDTH 18 0
BBX 14 24 2 0
BITMAP
0A402900
2FC0BF00
2FC0BF00
1F407E00
00000000
00000000
00000000
FE007F80
FE003FC0
FE002FD0
FE001FE0
FE000FE0
FE000FF0
FE000BF0
FE000BF0
FE000BF0
FE000BF0
FE000FF0
FF001FE0
BF403FD0
7FD1FF80
3FFFFF00
1FFFFD00
01BF9000
ENDCHAR
STARTCHAR omicrontonos
ENCODING 972
SWIDTH 569 0
DWIDTH 18 0
BBX 16 25 1 0
BITMAP
0002FC00
0002F400
0003F000
0003E000
0006C000
00000000
00000000
00000000
006FF900
02FFFF80
0BFFFFF0
1FF41FF8
3FD003FD
7F8001FE
BF4000FE
BF0000FF
BF0000FF
BF0000FF
BF4000FE
7F8001FE
3FC003FC
1FF41BF8
0BFFFFF0
02FFFF80
006FF900
ENDCHAR
STARTCHAR upsilontonos
ENCODING 973
SWIDTH 546 0
DWIDTH 18 0
BBX 14 25 2 0
BITMAP
000FE000
000FC000
001F8000
001F4000
001A0000
00000000
00000000
00000000
FE007F80
FE003FC0
FE002FD0
FE001FE0
FE000FE0
FE000FF0
FE000BF0
FE000BF0
FE000BF0
FE000BF0
FE000FF0
FF001FE0
BF403FD0
7FD1FF80
3FFFFF00
1FFFFD00
01BF9000
ENDCHAR
STARTCHAR omegatonos
ENCODING 974
SWIDTH 822 0
DWIDTH 26 0
BBX 24 25 1 0
BITMAP
000001FC0000
000002F80000
000002F00000
000003E00000
000002D00000
000000000000
000000000000
000000000000
07F400000FE0
0FF000000BF4
1FE0000007F8
2FD0000003FC
3FC00AA002FD
7F800BF001FD
7F800BF001FE
7F400BF000FE
7F400BF000FE
7F400BF000FE
7F800FF401FE
3F800FF402FD
2FD01FF803FC
1FF47FFE0BF8
0BFFFE7FFFF0
03FFF82FFFD0
006F9006FE00
ENDCHAR
STARTCHAR theta1
ENCODING 977
SWIDTH 587 0
DWIDTH 19 0
BBX 17 23 2 0
BITMAP
000BF90000
007FFF8000
00FFFFE000
01FE6FF000
02FC0BF400
02FC0BF400
02FC07F400
02FC07F400
01FE07F400
00FF47F400
00BFDBF400
A92FFFFF40
FE0BFFFF40
FE01BFFF40
FE000BF800
FE0007F400
FE000BF400
FE000BF400
BF400FF000
7FE57FE000
2FFFFFC000
0BFFFF0000
00BFE40000
ENDCHAR
STARTCHAR Upsilon1
ENCODING 978
SWIDTH 560 0
DWIDTH 18 0
BBX 20 23 -1 0
BITMAP
7F800002FD
7FE0000BFD
3FF4001FFC
1BFC003FE4
02FD007F80
00FE00BF00
00BF41FE00
007F82FD00
002FC3F800
001FD7F400
000FEFE000
0007FFD000
0003FFC000
0002FF4000
0000FF0000
0000FF0000
0000FF0000
0000FF0000
0000FF0000
0000FF0000
0000FF0000
0000FF0000
0000FF0000
ENDCHAR
STARTCHAR omega1
ENCODING 982
SWIDTH 805 0
DWIDTH 26 0
BBX 26 17 0 0
BITMAP
7FFFFFFFFFFFD0
7FFFFFFFFFFFD0
7FFFFFFFFFFFD0
0BF4000001FD00
0FF0000001FE00
0FE0015000FF00
1FE003FC00BF00
1FE003FC00BF00
1FD003FC00BF00
1FE003FC00BF00
0FE003FC00BF00
0FE007FC00FF00
0BF40BFE01FE00
07F82FFF47FD00
02FFFF6FFFF800
00FFFE0BFFE000
002FE401BE4000
ENDCHAR
STARTCHAR uni0400
ENCODING 1024
SWIDTH 565 0
DWIDTH 18 0
BBX 16 29 2 0
BITMAP
07FC0000
01FE0000
00BF4000
002FC000
000B9000
00000000
BFFFFFFC
BFFFFFFC
BFFFFFFC
BF555554
BF400000
BF400000
BF400000
BF400000
BF400000
BF400000
BFFFFFE0
BFFFFFE0
BFFFFFE0
BF400000
BF400000
BF400000
BF400000
BF400000
BF400000
BF400000
BFFFFFFD
BFFFFFFD
BFFFFFFD
ENDCHAR
STARTCHAR uni0401
ENCODING 1025
SWIDTH 565 0
DWIDTH 18 0
BBX 16 29 2 0
BITMAP
02900640
0BF01FD0
0BF02FD0
07E00B80
00000000
00000000
BFFFFFFC
BFFFFFFC
BFFFFFFC
BF555554
BF400000
BF400000
BF400000
BF400000
BF400000
BF400000
BFFFFFE0
BFFFFFE0
BFFFFFE0
BF400000
BF400000
BF400000
BF400000
BF400000
BF400000
BF400000
BFFFFFFD
BFFFFFFD
BFFFFFFD
ENDCHAR
STARTCHAR uni0402
ENCODING 1026
SWIDTH 749 0
DWIDTH 24 0
BBX 23 23 0 0
BITMAP
7FFFFFFFF400
7FFFFFFFF400
7FFFFFFFF400
155BF9555000
0007F8000000
0007F8000000
0007F8000000
0007F8000000
0007F8000000
0007FABFE400
0007FFFFFF40
0007FFFFFFD0
0007FE55BFF0
0007F8000FF8
0007F80007F8
0007F80003FC
0007F80003FC
0007F80007F8
0007F8000BF8
0007F8006FF0
0007F807FFD0
0007F807FF40
0007F807E400
ENDCHAR
STARTCHAR uni0403
ENCODING 1027
SWIDTH 557 0
DWIDTH 18 0
BBX 15 29 2 0
BITMAP
0000BF80
0001FE00
0003FC00
000BF400
000AD000
00000000
BFFFFFFC
BFFFFFFC
BFFFFFFC
BF555550
BF400000
BF400000
BF400000
BF400000
BF400000
BF400000
BF400000
BF400000
BF400000
BF400000
BF400000
BF400000
BF400000
BF400000
BF400000
BF400000
BF400000
BF400000
BF400000
ENDCHAR
STARTCHAR uni0404
ENCODING 1028
SWIDTH 668 0
DWIDTH 21 0
BBX 19 23 1 0
BITMAP
0006FF9000
007FFFFD00
01FFFFFF40
07FE55BFD0
0FF4001FE0
1FE0000BF4
2FC00007F4
3F800007F8
7F80000000
7FFFFF8000
7FFFFF8000
7FFFFF8000
7F80000000
7F80000000
7F80000000
3FC00006A4
2FD00007F8
1FE0000BF4
0FF8001FF0
07FE55BFD0
02FFFFFF40
007FFFFD00
0006FF9000
ENDCHAR
STARTCHAR uni0405
ENCODING 1029
SWIDTH 603 0
DWIDTH 19 0
BBX 17 23 1 0
BITMAP
001BFE4000
02FFFFF400
0BFFFFFD00
1FF956FF40
3FD000BF80
3FC0003FC0
3FC0002FC0
3FD0000000
2FF4000000
0FFF900000
03FFFE4000
00BFFFE000
0006FFFD00
00001BFF00
000001FF80
0000003FC0
BF00003FC0
BF40003FC0
7FC0007FC0
2FF906FF80
0BFFFFFE00
02FFFFF800
001BFE9000
ENDCHAR
STARTCHAR uni0406
ENCODING 1030
SWIDTH 282 0
DWIDTH 9 0
BBX 5 23 2 0
BITMAP
7F40
7F40
7F40
7F40
7F40
7F40
7F40
7F40
7F40
7F40
7F40
7F40
7F40
7F40
7F40
7F40
7F40
7F40
7F40
7F40
7F40
7F40
7F40
ENDCHAR
STARTCHAR uni0407
ENCODING 1031
SWIDTH 282 0
DWIDTH 9 0
BBX 11 29 -1 0
BITMAP
2800A4
FE02FC
FF02FC
7D01F4
000000
000000
01FD00
01FD00
01FD00
01FD00
01FD00
01FD00
01FD00
01FD00
01FD00
01FD00
01FD00
01FD00
01FD00
01FD00
01FD00
01FD00
01FD00
01FD00
01FD00
01FD00
01FD00
01FD00
01FD00
ENDCHAR
STARTCHAR uni0408
ENCODING 1032
SWIDTH 555 0
DWIDTH 18 0
BBX 16 23 0 0
BITMAP
000001FE
000001FE
000001FE
000001FE
000001FE
000001FE
000001FE
000001FE
000001FE
000001FE
000001FE
000001FE
000001FE
000001FE
000001FE
000001FE
6A8001FE
7F8002FD
3FD007FC
2FF55FF8
0FFFFFF0
02FFFF80
006FF900
ENDCHAR
STARTCHAR uni0409
ENCODING 1033
SWIDTH 1066 0
DWIDTH 34 0
BBX 33 23 0 0
BITMAP
001FFFFFFF40000000
002FFFFFFF40000000
002FFFFFFF40000000
002FD555BF40000000
002FD000BF40000000
002FD000BF40000000
002FC000BF40000000
002FC000BF40000000
002FC000BFFFFA4000
003FC000BFFFFFE000
003FC000BFFFFFFD00
003FC000BF5557FF00
003FC000BF4000FF40
003F8000BF40007F80
003F8000BF40003FC0
007F8000BF40003FC0
00BF4000BF40003FC0
00FF4000BF40007F80
01FF0000BF4000FF40
1BFD0000BF4017FF00
7FFC0000BFFFFFFD00
7FF40000BFFFFFF400
7E800000BFFFFE4000
ENDCHAR
STARTCHAR uni040A
ENCODING 1034
SWIDTH 1069 0
DWIDTH 34 0
BBX 31 23 2 0
BITMAP
BF40000BF4000000
BF40000BF4000000
BF40000BF4000000
BF40000BF4000000
BF40000BF4000000
BF40000BF4000000
BF40000BF4000000
BF40000BF4000000
BF40000BF4000000
BF40000BFFFFE400
BFFFFFFFFFFFFF40
BFFFFFFFFFFFFFD0
BFFFFFFFF4016FF4
BF55555BF4000BF8
BF40000BF40003FC
BF40000BF40003FC
BF40000BF40003FC
BF40000BF40003FC
BF40000BF4000BF8
BF40000BF5557FF4
BF40000BFFFFFFD0
BF40000BFFFFFF40
BF40000BFFFFE400
ENDCHAR
STARTCHAR uni040B
ENCODING 1035
SWIDTH 794 0
DWIDTH 25 0
BBX 23 23 0 0
BITMAP
7FFFFFFFF400
7FFFFFFFF400
7FFFFFFFF400
155BF9555000
0007F8000000
0007F8000000
0007F8000000
0007F8000000
0007FAFFE400
0007FFFFFF40
0007FFFFFFE0
0007F9556FF4
0007F8000BF8
0007F80003FC
0007F80003FC
0007F80002FC
0007F80002FC
0007F80002FC
0007F80002FC
0007F80002FC
0007F80002FC
0007F80002FC
0007F80002FC
ENDCHAR
STARTCHAR uni040C
ENCODING 1036
SWIDTH 630 0
DWIDTH 20 0
BBX 18 29 2 0
BITMAP
0000BF4000
0002FE0000
0007F80000
000BE00000
001BC00000
0000000000
BF40007FD0
BF4001FF80
BF4003FE00
BF400BFC00
BF402FF400
BF407FD000
BF41FF4000
BF43FE0000
BF4FF80000
BF6FF00000
BFBFE00000
BFFFF40000
BFFFFC0000
BFF6FE0000
BFE1FF4000
BF807FD000
BF402FE000
BF400FF800
BF4007FD00
BF4002FF00
BF4000FF80
BF40007FD0
BF40002FF0
ENDCHAR
STARTCHAR uni040D
ENCODING 1037
SWIDTH 707 0
DWIDTH 23 0
BBX 19 29 2 0
BITMAP
00BF800000
002FD00000
000FF00000
0007F80000
0001E80000
0000000000
BF40000FF4
BF40002FF4
BF40007FF4
BF4000FFF4
BF4001FFF4
BF4003FFF4
BF400BFFF4
BF401FEBF4
BF403FCBF4
BF40BF4BF4
BF41FF0BF4
BF42FD0BF4
BF47F80BF4
BF4FF00BF4
BF6FD00BF4
BF7F800BF4
BFFF400BF4
BFFE000BF4
BFFC000BF4
BFF4000BF4
BFE0000BF4
BFD0000BF4
BF80000BF4
ENDCHAR
STARTCHAR uni040E
ENCODING 1038
SWIDTH 629 0
DWIDTH 20 0
BBX 19 28 1 0
BITMAP
00BD02F400
007E5BF000
002FFFD000
0006FE4000
0000000000
FF40000FF4
7FC0002FE0
3FD0003FD0
1FE0007FC0
0FF400BF80
0BF800FF00
03FC01FE00
02FE02FD00
00FF07FC00
00BF4BF400
003FCFF000
002FEFE000
001FFFD000
000BFF8000
0007FF4000
0002FF0000
0001FE0000
0002FC0000
0007F80000
005FF40000
03FFE00000
03FF800000
02F9000000
ENDCHAR
STARTCHAR uni040F
ENCODING 1039
SWIDTH 708 0
DWIDTH 23 0
BBX 19 29 2 -6
BITMAP
BF40000BF4
BF40000BF4
BF40000BF4
BF40000BF4
BF40000BF4
BF40000BF4
BF40000BF4
BF40000BF4
BF40000BF4
BF40000BF4
BF40000BF4
BF40000BF4
BF40000BF4
BF40000BF4
BF40000BF4
BF40000BF4
BF40000BF4
BF40000BF4
BF40000BF4
BF40000BF4
BFFFFFFFF4
BFFFFFFFF4
BFFFFFFFF4
0002FD0000
0002FD0000
0002FD0000
0002FD0000
0002FD0000
0002FD0000
ENDCHAR
STARTCHAR uni0410
ENCODING 1040
SWIDTH 665 0
DWIDTH 21 0
BBX 21 23 0 0
BITMAP
00007F800000
0000BFC00000
0000FFD00000
0001FFE00000
0002FFF00000
0007FBF40000
000BF2FC0000
000FE1FD0000
001FD0FE0000
002FC0BF0000
003F807F4000
007F403F8000
00BF002FC000
01FE001FD000
02FFFFFFF000
03FFFFFFF400
07FFFFFFF800
0BF55557FC00
0FE00002FD00
1FD00001FE00
2FD00000FF00
3FC00000BF40
BF8000007FC0
ENDCHAR
STARTCHAR uni0411
ENCODING 1041
SWIDTH 628 0
DWIDTH 20 0
BBX 17 23 2 0
BITMAP
BFFFFFF800
BFFFFFF800
BFFFFFF800
BF55555000
BF40000000
BF40000000
BF40000000
BF40000000
BF40000000
BFFFFE4000
BFFFFFF400
BFFFFFFD00
BF5557FF00
BF4000BF80
BF40007FC0
BF40003FC0
BF40003FC0
BF40007FC0
BF4000BF80
BF4017FF00
BFFFFFFD00
BFFFFFF400
BFFFFE4000
ENDCHAR
STARTCHAR uni0412
ENCODING 1042
SWIDTH 630 0
DWIDTH 20 0
BBX 17 23 2 0
BITMAP
BFFFFA4000
BFFFFFE000
BFFFFFF800
BF555BFD00
BF4002FE00
BF4000FF00
BF4000FF00
BF4000FF00
BF4001FE00
BF401BFC00
BFFFFFE000
BFFFFFD000
BFFFFFF800
BF4006FE00
BF4000FF40
BF4000BF40
BF40007F80
BF4000BF40
BF4000FF40
BF4017FF00
BFFFFFFD00
BFFFFFF400
BFFFFE4000
ENDCHAR
STARTCHAR uni0413
ENCODING 1043
SWIDTH 557 0
DWIDTH 18 0
BBX 15 23 2 0
BITMAP
BFFFFFFC
BFFFFFFC
BFFFFFFC
BF555550
BF400000
BF400000
BF400000
BF400000
BF400000
BF400000
BF400000
BF400000
BF400000
BF400000
BF400000
BF400000
BF400000
BF400000
BF400000
BF400000
BF400000
BF400000
BF400000
ENDCHAR
STARTCHAR uni0414
ENCODING 1044
SWIDTH 752 0
DWIDTH 24 0
BBX 24 29 0 -6
BITMAP
000BFFFFFF80
000FFFFFFF80
000FFFFFFF80
000FF555BF80
000FF0007F80
000FF0007F80
001FE0007F80
001FE0007F80
001FE0007F80
001FE0007F80
001FE0007F80
002FD0007F80
002FD0007F80
003FC0007F80
003FC0007F80
007F80007F80
00BF40007F80
00FF00007F80
02FE00007F80
07FD00007F80
7FFFFFFFFFFD
7FFFFFFFFFFD
7FFFFFFFFFFD
7F80000002FD
7F80000002FD
7F80000002FD
7F80000002FD
7F80000002FD
7F80000002FD
ENDCHAR
STARTCHAR uni0415
ENCODING 1045
SWIDTH 565 0
DWIDTH 18 0
BBX 16 23 2 0
BITMAP
BFFFFFFC
BFFFFFFC
BFFFFFFC
BF555554
BF400000
BF400000
BF400000
BF400000
BF400000
BF400000
BFFFFFE0
BFFFFFE0
BFFFFFE0
BF400000
BF400000
BF400000
BF400000
BF400000
BF400000
BF400000
BFFFFFFD
BFFFFFFD
BFFFFFFD
ENDCHAR
STARTCHAR uni0416
ENCODING 1046
SWIDTH 954 0
DWIDTH 31 0
BBX 30 23 0 0
BITMAP
3FF0002FD0003FE0
1FF4002FD000BFC0
0BFC002FD001FF40
03FE002FD002FE00
01FF002FD007FD00
00BF802FD00BF800
007FC02FD01FF000
002FE02FD03FD000
000FF42FD07F8000
0007F82FD0FF0000
0002FFFFFFFE0000
0002FFFFFFFD0000
0007FFFFFFFF0000
000BF96FE5FF8000
001FF42FD07FD000
003FE02FD02FE000
00BFC02FD01FF400
01FF402FD00BFC00
03FF002FD003FE00
07FD002FD002FF40
0FF8002FD000FFC0
2FF0002FD0007FE0
7FE0002FD0002FF0
ENDCHAR
STARTCHAR uni0417
ENCODING 1047
SWIDTH 604 0
DWIDTH 19 0
BBX 17 23 1 0
BITMAP
006BFE4000
06FFFFF400
1FFFFFFD00
3FF95BFF00
7FC000FF40
7F40007F80
0000007F80
000000BF40
000006FE00
000FFFF800
000FFFE000
000FFFF800
000016FE00
000000BF40
0000007F80
0000003FC0
BF00003FC0
BF40007F80
7FC000FF80
3FF517FF00
1FFFFFFD00
06FFFFE400
006BFA4000
ENDCHAR
STARTCHAR uni0418
ENCODING 1048
SWIDTH 707 0
DWIDTH 23 0
BBX 19 23 2 0
BITMAP
BF40000FF4
BF40002FF4
BF40007FF4
BF4000FFF4
BF4001FFF4
BF4003FFF4
BF400BFFF4
BF401FEBF4
BF403FCBF4
BF40BF4BF4
BF41FF0BF4
BF42FD0BF4
BF47F80BF4
BF4FF00BF4
BF6FD00BF4
BF7F800BF4
BFFF400BF4
BFFE000BF4
BFFC000BF4
BFF4000BF4
BFE0000BF4
BFD0000BF4
BF80000BF4
ENDCHAR
STARTCHAR uni0419
ENCODING 1049
SWIDTH 707 0
DWIDTH 23 0
BBX 19 28 2 0
BITMAP
00BD02F400
007F57F000
002FFFD000
0006FE4000
0000000000
BF40000FF4
BF40002FF4
BF40007FF4
BF4000FFF4
BF4001FFF4
BF4003FFF4
BF400BFFF4
BF401FEBF4
BF403FCBF4
BF40BF4BF4
BF41FF0BF4
BF42FD0BF4
BF47F80BF4
BF4FF00BF4
BF6FD00BF4
BF7F800BF4
BFFF400BF4
BFFE000BF4
BFFC000BF4
BFF4000BF4
BFE0000BF4
BFD0000BF4
BF80000BF4
ENDCHAR
STARTCHAR uni041A
ENCODING 1050
SWIDTH 644 0
DWIDTH 21 0
BBX 19 23 2 0
BITMAP
BF40003FE0
BF4000BFC0
BF4001FF40
BF4003FE00
BF400BFC00
BF401FF400
BF403FE000
BF40BFC000
BF41FF4000
BF43FE0000
BFFFF80000
BFFFF40000
BFFFFC0000
BF97FE0000
BF41FF8000
BF407FD000
BF402FF000
BF400FF800
BF4007FD00
BF4002FF40
BF4000BFC0
BF40003FE0
BF40001FF4
ENDCHAR
STARTCHAR uni041B
ENCODING 1051
SWIDTH 707 0
DWIDTH 23 0
BBX 21 23 0 0
BITMAP
001FFFFFFF40
002FFFFFFF40
002FFFFFFF40
002FD555BF40
002FD000BF40
002FD000BF40
002FC000BF40
002FC000BF40
002FC000BF40
003FC000BF40
003FC000BF40
003FC000BF40
003FC000BF40
003F8000BF40
003F8000BF40
007F8000BF40
00BF4000BF40
00FF4000BF40
01FF0000BF40
1BFD0000BF40
7FFC0000BF40
7FF40000BF40
7E800000BF40
ENDCHAR
STARTCHAR uni041C
ENCODING 1052
SWIDTH 875 0
DWIDTH 28 0
BBX 24 23 2 0
BITMAP
BFE000000BFE
BFF000000FFE
BFF400001FFE
BFF800002FFE
BFFC00003FFE
BFFD00007FFE
BFBF0000FEFE
BF7F4001FDFE
BF3F8002FCFE
BF2FC003F8FE
BF1FD007F0FE
BF0BE00BE0FE
BF07F00FD1FE
BF43F41FC1FE
BF42FC3F81FE
BF41FD7F41FE
BF40FEBF01FE
BF40BFFD01FE
BF403FFC01FE
BF402FF801FE
BF401FF401FE
BF400FF001FE
BF400BE001FE
ENDCHAR
STARTCHAR uni041D
ENCODING 1053
SWIDTH 710 0
DWIDTH 23 0
BBX 19 23 2 0
BITMAP
BF40000BF4
BF40000BF4
BF40000BF4
BF40000BF4
BF40000BF4
BF40000BF4
BF40000BF4
BF40000BF4
BF40000BF4
BF40000BF4
BFFFFFFFF4
BFFFFFFFF4
BFFFFFFFF4
BF55555BF4
BF40000BF4
BF40000BF4
BF40000BF4
BF40000BF4
BF40000BF4
BF40000BF4
BF40000BF4
BF40000BF4
BF40000BF4
ENDCHAR
STARTCHAR uni041E
ENCODING 1054
SWIDTH 690 0
DWIDTH 22 0
BBX 20 23 1 0
BITMAP
0006FF9000
007FFFFD00
01FFFFFF40
07FF95FFD0
0FF8002FF0
1FF0000BF4
2FD00007F8
3FC00003FC
7F800002FD
7F800002FD
7F800002FD
7F800001FD
7F800002FD
7F800002FD
7F800002FD
3FC00003FC
2FD00007F8
1FF0000BF4
0FF8002FF0
07FF55BFD0
01FFFFFF40
007FFFFD00
0006FF9000
ENDCHAR
STARTCHAR uni041F
ENCODING 1055
SWIDTH 711 0
DWIDTH 23 0
BBX 19 23 2 0
BITMAP
BFFFFFFFF4
BFFFFFFFF4
BFFFFFFFF4
BF55555BF4
BF40000BF4
BF40000BF4
BF40000BF4
BF40000BF4
BF40000BF4
BF40000BF4
BF40000BF4
BF40000BF4
BF40000BF4
BF40000BF4
BF40000BF4
BF40000BF4
BF40000BF4
BF40000BF4
BF40000BF4
BF40000BF4
BF40000BF4
BF40000BF4
BF40000BF4
ENDCHAR
STARTCHAR uni0420
ENCODING 1056
SWIDTH 639 0
DWIDTH 20 0
BBX 18 23 2 0
BITMAP
BFFFFE4000
BFFFFFF400
BFFFFFFE00
BF5556FF40
BF4000BF80
BF40003FC0
BF40002FD0
BF40002FD0
BF40003FD0
BF40007FC0
BF4006FF80
BFFFFFFE00
BFFFFFF800
BFFFFF9000
BF55400000
BF40000000
BF40000000
BF40000000
BF40000000
BF40000000
BF40000000
BF40000000
BF40000000
ENDCHAR
STARTCHAR uni0421
ENCODING 1057
SWIDTH 652 0
DWIDTH 21 0
BBX 19 23 1 0
BITMAP
0006FF9000
007FFFFD00
01FFFFFF40
07FE55BFD0
0FF8002FE0
1FE0000FF0
2FD0000BF4
3FC00006A4
7F80000000
7F80000000
7F80000000
7F80000000
7F80000000
7F80000000
7F80000000
3FC00006A4
3FD0000BF4
1FE0000FF4
0FF4002FE0
07FE55BFD0
02FFFFFF40
007FFFFD00
0006FF9000
ENDCHAR
STARTCHAR uni0422
ENCODING 1058
SWIDTH 606 0
DWIDTH 19 0
BBX 19 23 0 0
BITMAP
7FFFFFFFF8
7FFFFFFFF8
7FFFFFFFF8
1555FE5550
0001FE0000
0001FE0000
0001FE0000
0001FE0000
0001FE0000
0001FE0000
0001FE0000
0001FE0000
0001FE0000
0001FE0000
0001FE0000
0001FE0000
0001FE0000
0001FE0000
0001FE0000
0001FE0000
0001FE0000
0001FE0000
0001FE0000
ENDCHAR
STARTCHAR uni0423
ENCODING 1059
SWIDTH 629 0
DWIDTH 20 0
BBX 19 23 1 0
BITMAP
FF40000FF4
7FC0002FE0
3FD0003FD0
1FE0007FC0
0FF400BF80
0BF800FF00
03FC01FE00
02FE02FD00
00FF07FC00
00BF4BF400
003FCFF000
002FEFE000
001FFFD000
000BFF8000
0007FF4000
0002FF0000
0001FE0000
0002FC0000
0007F80000
005FF40000
03FFE00000
03FF800000
02F9000000
ENDCHAR
STARTCHAR uni0424
ENCODING 1060
SWIDTH 796 0
DWIDTH 25 0
BBX 24 25 1 -1
BITMAP
00000FE00000
00000FE00000
00000FE00000
000AFFFF9000
00BFFFFFFD00
02FFFFFFFF40
0BFE5FE5BFD0
1FE00FE01FF0
3FC00FE007F8
7F800FE003FC
BF400FE002FC
BF000FE001FD
BF000FE001FD
BF000FE001FD
BF000FE002FD
7F400FE003FC
3FC00FE007F8
2FE00FE00FF4
0FF90FE07FD0
07FFFFFFFF80
00BFFFFFFD00
001BFFFFE000
00001FE00000
00000FE00000
00000FE00000
ENDCHAR
STARTCHAR uni0425
ENCODING 1061
SWIDTH 632 0
DWIDTH 20 0
BBX 19 23 1 0
BITMAP
FF80001FF4
7FD0003FE0
2FE000BFC0
0FF400FF40
07FC02FE00
03FE07FD00
01FF0BF800
00BF9FF000
003FFFD000
001FFF8000
000FFF4000
0007FE0000
000FFF4000
002FFFC000
007FFFD000
00BF9FF000
01FF0BF800
03FD07FD00
0BFC02FF00
1FF400FF80
2FE0007FC0
7FC0002FE0
FF80001FF4
ENDCHAR
STARTCHAR uni0426
ENCODING 1062
SWIDTH 746 0
DWIDTH 24 0
BBX 21 28 2 -5
BITMAP
BF40000BF400
BF40000BF400
BF40000BF400
BF40000BF400
BF40000BF400
BF40000BF400
BF40000BF400
BF40000BF400
BF40000BF400
BF40000BF400
BF40000BF400
BF40000BF400
BF40000BF400
BF40000BF400
BF40000BF400
BF40000BF400
BF40000BF400
BF40000BF400
BF40000BF400
BF40000BF540
BFFFFFFFFFC0
BFFFFFFFFFC0
BFFFFFFFFFC0
000000003F80
000000003F80
000000003F80
000000003F80
000000003F80
ENDCHAR
STARTCHAR uni0427
ENCODING 1063
SWIDTH 691 0
DWIDTH 22 0
BBX 18 23 2 0
BITMAP
BF00001FE0
BF00001FE0
BF00001FE0
BF00001FE0
BF00001FE0
BF00001FE0
BF00001FE0
BF40001FE0
BF40001FE0
7F80001FE0
3FE4016FE0
1FFFFFFFE0
07FFFFFFE0
00BFFFAFE0
0000001FE0
0000001FE0
0000001FE0
0000001FE0
0000001FE0
0000001FE0
0000001FE0
0000001FE0
0000001FE0
ENDCHAR
STARTCHAR uni0428
ENCODING 1064
SWIDTH 950 0
DWIDTH 30 0
BBX 26 23 2 0
BITMAP
BF4002FD000FF0
BF4002FD000FF0
BF4002FD000FF0
BF4002FD000FF0
BF4002FD000FF0
BF4002FD000FF0
BF4002FD000FF0
BF4002FD000FF0
BF4002FD000FF0
BF4002FD000FF0
BF4002FD000FF0
BF4002FD000FF0
BF4002FD000FF0
BF4002FD000FF0
BF4002FD000FF0
BF4002FD000FF0
BF4002FD000FF0
BF4002FD000FF0
BF4002FD000FF0
BF4002FD000FF0
BFFFFFFFFFFFF0
BFFFFFFFFFFFF0
BFFFFFFFFFFFF0
ENDCHAR
STARTCHAR uni0429
ENCODING 1065
SWIDTH 996 0
DWIDTH 32 0
BBX 29 28 2 -5
BITMAP
BF4002FD000FF000
BF4002FD000FF000
BF4002FD000FF000
BF4002FD000FF000
BF4002FD000FF000
BF4002FD000FF000
BF4002FD000FF000
BF4002FD000FF000
BF4002FD000FF000
BF4002FD000FF000
BF4002FD000FF000
BF4002FD000FF000
BF4002FD000FF000
BF4002FD000FF000
BF4002FD000FF000
BF4002FD000FF000
BF4002FD000FF000
BF4002FD000FF000
BF4002FD000FF000
BF4002FD000FF000
BFFFFFFFFFFFFF80
BFFFFFFFFFFFFF80
BFFFFFFFFFFFFF80
0000000000003F80
0000000000003F80
0000000000003F40
0000000000003F40
0000000000003F40
ENDCHAR
STARTCHAR uni042A
ENCODING 1066
SWIDTH 762 0
DWIDTH 24 0
BBX 24 23 0 0
BITMAP
BFFFF4000000
BFFFF4000000
BFFFF4000000
0007F4000000
0007F4000000
0007F4000000
0007F4000000
0007F4000000
0007F4000000
0007FFFFE400
0007FFFFFF80
0007FFFFFFE0
0007F9556FF4
0007F40007FC
0007F40003FC
0007F40002FD
0007F40002FD
0007F40003FC
0007F4000BFC
0007F8016FF4
0007FFFFFFE0
0007FFFFFF40
0007FFFFE400
ENDCHAR
STARTCHAR uni042B
ENCODING 1067
SWIDTH 871 0
DWIDTH 28 0
BBX 24 23 2 0
BITMAP
BF40000002FD
BF40000002FD
BF40000002FD
BF40000002FD
BF40000002FD
BF40000002FD
BF40000002FD
BF40000002FD
BF40000002FD
BFFFFE4002FD
BFFFFFF402FD
BFFFFFFE02FD
BF5556FF42FD
BF4000BF82FD
BF40003FC2FD
BF40002FC2FD
BF40002FC2FD
BF40003FC2FD
BF4000BF82FD
BF4016FF42FD
BFFFFFFE02FD
BFFFFFF402FD
BFFFFE4002FD
ENDCHAR
STARTCHAR uni042C
ENCODING 1068
SWIDTH 628 0
DWIDTH 20 0
BBX 17 23 2 0
BITMAP
BF40000000
BF40000000
BF40000000
BF40000000
BF40000000
BF40000000
BF40000000
BF40000000
BF40000000
BFFFFE4000
BFFFFFF400
BFFFFFFD00
BF5557FF00
BF4000BF80
BF40007FC0
BF40003FC0
BF40003FC0
BF40007FC0
BF4000BF80
BF4017FF00
BFFFFFFD00
BFFFFFF400
BFFFFE4000
ENDCHAR
STARTCHAR uni042D
ENCODING 1069
SWIDTH 664 0
DWIDTH 21 0
BBX 19 23 1 0
BITMAP
001BFE8000
01FFFFF800
07FFFFFE00
0FF956FF80
2FE0003FD0
3FC0000FE0
7F80000BF4
00000007F4
00000007F8
0007FFFFF8
0007FFFFF8
0007FFFFF8
00015557F8
00000007F8
15000007F8
7F80000BF4
3FC0000FF4
2FD0001FF0
1FF0007FD0
0BFD46FF80
03FFFFFF00
00BFFFF800
001AFE9000
ENDCHAR
STARTCHAR uni042E
ENCODING 1070
SWIDTH 916 0
DWIDTH 29 0
BBX 26 23 2 0
BITMAP
BF40001BFA4000
BF4002FFFFE000
BF400BFFFFFD00
BF402FF95BFF00
BF407FD000FF80
BF40BF80007FC0
BF41FF00002FD0
BF41FE00001FE0
BF42FD00000FF0
BF42FD00000FF0
BFFFFD00000FF0
BFFFFD00000FF0
BFFFFD00000FF0
BF42FD00000FF0
BF42FD00000FF0
BF41FE00001FE0
BF40FF00002FD0
BF40BF80003FC0
BF407FD000FF80
BF401FF95BFF00
BF400BFFFFFD00
BF4001FFFFE000
BF40001BFA4000
ENDCHAR
STARTCHAR uni042F
ENCODING 1071
SWIDTH 620 0
DWIDTH 20 0
BBX 18 23 0 0
BITMAP
001AFFFFD0
00BFFFFFD0
02FFFFFFD0
0BFE556FD0
0FF4001FD0
1FE0001FD0
1FE0001FD0
1FE0001FD0
1FE0001FD0
0BF4001FD0
07FD001FD0
01FFFFFFD0
007FFFFFD0
002FFFFFD0
007FC02FD0
00BF401FD0
01FF001FD0
02FD001FD0
07FC001FD0
0BF4001FD0
1FF0001FD0
2FD0001FD0
7FC0001FD0
ENDCHAR
STARTCHAR uni0430
ENCODING 1072
SWIDTH 541 0
DWIDTH 17 0
BBX 15 17 1 0
BITMAP
006FE800
07FFFF40
1FFFFFD0
2FE02FF0
3F800BF0
15000BF4
00000BF4
01AFFFF4
0BFFFFF4
2FF95BF4
7F800BF4
BF400BF4
BF400BF4
7FD06FF4
3FFFFFF4
1FFFFBF8
02BF83FC
ENDCHAR
STARTCHAR uni0431
ENCODING 1073
SWIDTH 561 0
DWIDTH 18 0
BBX 16 24 1 0
BITMAP
000002F8
000007F4
0006FFF0
006FFFD0
01FFF900
07FE4000
0FE00000
1F800000
2F4BFA00
3F7FFFD0
7FFFFFF4
7FF41BFC
7FC002FD
BF8001FE
BF4000FF
BF4000FF
BF4000FF
7F4000FE
7F8001FE
3FD002FD
1FF41BF8
0BFFFFF0
02FFFFC0
002BF900
ENDCHAR
STARTCHAR uni0432
ENCODING 1074
SWIDTH 569 0
DWIDTH 18 0
BBX 15 17 2 0
BITMAP
BFFFE900
BFFFFF80
BFFFFFE0
BF006FF0
BF000BF0
BF000BF0
BF002FE0
BFFFFF80
BFFFFE40
BFAABFE0
BF0007F4
BF0003F8
BF0003FC
BF001BF8
BFFFFFF4
BFFFFFD0
BFFFFA00
ENDCHAR
STARTCHAR uni0433
ENCODING 1075
SWIDTH 418 0
DWIDTH 13 0
BBX 12 17 2 0
BITMAP
FFFFFD
FFFFFD
FFFFFD
FF0000
FF0000
FF0000
FF0000
FF0000
FF0000
FF0000
FF0000
FF0000
FF0000
FF0000
FF0000
FF0000
FF0000
ENDCHAR
STARTCHAR uni0434
ENCODING 1076
SWIDTH 620 0
DWIDTH 20 0
BBX 19 22 0 -5
BITMAP
003FFFFF80
003FFFFF80
003FFFFF80
003F957F80
003F803F80
007F803F80
007F803F80
007F403F80
007F403F80
00BF403F80
00FF003F80
01FE003F80
02FD003F80
0BF8003F80
7FFFFFFFFC
7FFFFFFFFC
7FFFFFFFFC
7F400002FC
7F400002FC
7F400002FC
7F400002FC
7F400002FC
ENDCHAR
STARTCHAR uni0435
ENCODING 1077
SWIDTH 536 0
DWIDTH 17 0
BBX 16 17 1 0
BITMAP
006FF900
01FFFF80
0BFFFFE0
1FF41FF0
3FD007F8
7F8002FC
7F4002FC
BFFFFFFC
BFFFFFFD
BFAAAAA8
BF400000
7F800000
3FD00090
1FF806F4
0BFFFFF4
02FFFFD0
002BF900
ENDCHAR
STARTCHAR uni0436
ENCODING 1078
SWIDTH 807 0
DWIDTH 26 0
BBX 25 17 0 0
BITMAP
3FE003F800BF80
1FF403F801FF40
0BF803F803FE00
03FD03F807FC00
01FF03F80FF400
00BF43F82FE000
007FC3F83FC000
002FFFFFFF4000
000FFFFFFF0000
002FFFFFFF8000
007FD7FD7FD000
00FF43F82FE000
02FE03F80FF400
07FD03F807FC00
0FF803F802FE00
2FF003F801FF40
7FD003F800BFC0
ENDCHAR
STARTCHAR uni0437
ENCODING 1079
SWIDTH 510 0
DWIDTH 16 0
BBX 14 17 1 0
BITMAP
01BFE800
0BFFFF40
3FFFFFD0
7F902FE0
55000FE0
00002FD0
007FFF40
007FFE00
006AFFC0
00001FE0
00000FF0
AA000BF0
BF400FF0
7FD02FE0
2FFFFFC0
0BFFFF40
01BFE400
ENDCHAR
STARTCHAR uni0438
ENCODING 1080
SWIDTH 574 0
DWIDTH 18 0
BBX 15 17 2 0
BITMAP
FF000BF4
FF001FF4
FF003FF4
FF00BFF4
FF00FFF4
FF02FFF4
FF07FBF4
FF0FDBF4
FF1F8BF4
FF3F4BF4
FFBE0BF4
FFFC0BF4
FFF80BF4
FFF00BF4
FFD00BF4
FF800BF4
FF400BF4
ENDCHAR
STARTCHAR uni0439
ENCODING 1081
SWIDTH 574 0
DWIDTH 18 0
BBX 15 23 2 0
BITMAP
0BC02F40
07E5BF00
02FFFD00
006FE400
00000000
00000000
FF000BF4
FF001FF4
FF003FF4
FF00BFF4
FF00FFF4
FF02FFF4
FF07FBF4
FF0FDBF4
FF1F8BF4
FF3F4BF4
FFBE0BF4
FFFC0BF4
FFF80BF4
FFF00BF4
FFD00BF4
FF800BF4
FF400BF4
ENDCHAR
STARTCHAR uni043A
ENCODING 1082
SWIDTH 553 0
DWIDTH 18 0
BBX 16 17 2 0
BITMAP
BF000FF8
BF002FE0
BF00BFC0
BF01FF40
BF07FD00
BF0FF400
BFFFE000
BFFFC000
BFFFE000
BF5FF400
BF07FC00
BF02FE00
BF01FF40
BF00BFD0
BF003FE0
BF001FF8
BF000BFD
ENDCHAR
STARTCHAR uni043B
ENCODING 1083
SWIDTH 575 0
DWIDTH 18 0
BBX 17 17 0 0
BITMAP
00FFFFFF40
00FFFFFF40
00FFFFFF40
00FE00BF40
00FE007F40
00FE007F40
00FE007F40
01FD007F40
01FD007F40
01FD007F40
01FD007F40
02FC007F40
03FC007F40
1BF8007F40
7FF0007F40
7FD0007F40
7E40007F40
ENDCHAR
STARTCHAR uni043C
ENCODING 1084
SWIDTH 751 0
DWIDTH 24 0
BBX 20 17 2 0
BITMAP
BFD00007FE
BFE0000BFE
BFF0000FFE
BFF4001FFE
BFF8003FFE
BFFD007FFE
BFBE00BEFE
BF7F00FDFE
BF2F41F8FE
BF1FC3F4FE
BF0FD7F0FE
BF0BEBE0FE
BF03FFC0FE
BF02FF80FE
BF01FF40FE
BF00FF00FE
BF00BD00FE
ENDCHAR
STARTCHAR uni043D
ENCODING 1085
SWIDTH 573 0
DWIDTH 18 0
BBX 15 17 2 0
BITMAP
FF000BF4
FF000BF4
FF000BF4
FF000BF4
FF000BF4
FF000BF4
FF000BF4
FFFFFFF4
FFFFFFF4
FFFFFFF4
FF000BF4
FF000BF4
FF000BF4
FF000BF4
FF000BF4
FF000BF4
FF000BF4
ENDCHAR
STARTCHAR uni043E
ENCODING 1086
SWIDTH 569 0
DWIDTH 18 0
BBX 16 17 1 0
BITMAP
006FF900
02FFFF80
0BFFFFF0
1FF41FF8
3FD003FD
7F8001FE
BF4000FE
BF0000FF
BF0000FF
BF0000FF
BF4000FE
7F8001FE
3FC003FC
1FF41BF8
0BFFFFF0
02FFFF80
006FF900
ENDCHAR
STARTCHAR uni043F
ENCODING 1087
SWIDTH 574 0
DWIDTH 18 0
BBX 15 17 2 0
BITMAP
FFFFFFF4
FFFFFFF4
FFFFFFF4
FF000BF4
FF000BF4
FF000BF4
FF000BF4
FF000BF4
FF000BF4
FF000BF4
FF000BF4
FF000BF4
FF000BF4
FF000BF4
FF000BF4
FF000BF4
FF000BF4
ENDCHAR
STARTCHAR uni0440
ENCODING 1088
SWIDTH 562 0
DWIDTH 18 0
BBX 15 24 2 -7
BITMAP
FD1BF800
FEBFFF40
FFFFFFD0
FFD47FE0
FF000FF0
FE000BF4
FE0007F8
FE0003F8
FE0003F8
FE0003F8
FE0007F8
FE000BF4
FF000FF0
FFD07FE0
FFFFFFC0
FEFFFF40
FE1BF800
FE000000
FE000000
FE000000
FE000000
FE000000
FE000000
FE000000
ENDCHAR
STARTCHAR uni0441
ENCODING 1089
SWIDTH 523 0
DWIDTH 17 0
BBX 15 17 1 0
BITMAP
006FF900
02FFFF80
0BFFFFE0
2FE41FF4
3FC007F8
7F4003F8
BF400050
BF000000
BF000000
BF000000
BF400000
7F4002A8
3FC007F8
2FE41FF4
0FFFFFD0
02FFFF40
006FE800
ENDCHAR
STARTCHAR uni0442
ENCODING 1090
SWIDTH 494 0
DWIDTH 16 0
BBX 16 17 0 0
BITMAP
7FFFFFFD
7FFFFFFD
7FFFFFFD
000FE000
000FE000
000FE000
000FE000
000FE000
000FE000
000FE000
000FE000
000FE000
000FE000
000FE000
000FE000
000FE000
000FE000
ENDCHAR
STARTCHAR uni0443
ENCODING 1091
SWIDTH 486 0
DWIDTH 16 0
BBX 16 24 0 -7
BITMAP
BF4003FD
7F8003F8
3FC007F4
2FD00BF0
1FE00FE0
0FF01FD0
0BF42FC0
07F83F80
03FC7F40
02FDBF00
00FEBE00
00BFFD00
007FFC00
003FF800
002FF400
001FF000
000FE000
000FD000
001FC000
003F8000
05BF4000
1FFE0000
1FFC0000
1FE00000
ENDCHAR
STARTCHAR uni0444
ENCODING 1092
SWIDTH 728 0
DWIDTH 23 0
BBX 21 31 1 -7
BITMAP
00007F400000
00007F400000
00007F400000
00007F400000
00007F400000
00007F400000
00007F400000
00BFBFBF9000
07FFFFFFF800
0FFFFFFFFD00
2FE47F86FF00
3FC07F40BF40
7F807F407F80
BF407F403F80
BF007F403FC0
BF007F402FC0
BF007F403FC0
BF407F403FC0
7F407F407F80
7F807F40BF80
2FE47F82FF00
1FFFFFFFFE00
07FFFFFFF800
01BFBFBF9000
00007F400000
00007F400000
00007F400000
00007F400000
00007F400000
00007F400000
00007F400000
ENDCHAR
STARTCHAR uni0445
ENCODING 1093
SWIDTH 502 0
DWIDTH 16 0
BBX 16 17 0 0
BITMAP
3FC003FC
1FE00BF8
0BF41FF0
07F82FD0
02FD7F80
00FFFF00
007FFD00
002FF800
001FF400
003FFC00
007FFE00
00FFBF40
02FD7F80
07F82FD0
0FF00FF0
2FE007F8
7FC003FD
ENDCHAR
STARTCHAR uni0446
ENCODING 1094
SWIDTH 603 0
DWIDTH 19 0
BBX 17 22 2 -5
BITMAP
FF000BF400
FF000BF400
FF000BF400
FF000BF400
FF000BF400
FF000BF400
FF000BF400
FF000BF400
FF000BF400
FF000BF400
FF000BF400
FF000BF400
FF000BF400
FF000BF400
FFFFFFFF80
FFFFFFFF80
FFFFFFFF40
0000007F40
0000007F40
0000007F40
0000007F40
0000007F40
ENDCHAR
STARTCHAR uni0447
ENCODING 1095
SWIDTH 549 0
DWIDTH 18 0
BBX 15 17 1 0
BITMAP
BF4007F8
BF4007F8
BF4007F8
BF4007F8
BF4007F8
7F4007F8
7F8007F8
3FE007F8
2FFFFFF8
0BFFFFF8
01BFFFF8
000007F8
000007F8
000007F8
000007F8
000007F8
000007F8
ENDCHAR
STARTCHAR uni0448
ENCODING 1096
SWIDTH 819 0
DWIDTH 26 0
BBX 22 17 2 0
BITMAP
FF002FC00BF0
FF002FC00BF0
FF002FC00BF0
FF002FC00BF0
FF002FC00BF0
FF002FC00BF0
FF002FC00BF0
FF002FC00BF0
FF002FC00BF0
FF002FC00BF0
FF002FC00BF0
FF002FC00BF0
FF002FC00BF0
FF003FC00BF0
FFFFFFFFFFF0
FFFFFFFFFFF0
FFFFFFFFFFF0
ENDCHAR
STARTCHAR uni0449
ENCODING 1097
SWIDTH 865 0
DWIDTH 28 0
BBX 25 22 2 -5
BITMAP
FE003FC00FF000
FE003FC00FF000
FE003FC00FF000
FE003FC00FF000
FE003FC00FF000
FE003FC00FF000
FE003FC00FF000
FE003FC00FF000
FE003FC00FF000
FE003FC00FF000
FE003FC00FF000
FE003FC00FF000
FE003FC00FF000
FE003FC00FF000
FFFFFFFFFFFF80
FFFFFFFFFFFF80
FFFFFFFFFFFF80
00000000003F80
00000000003F80
00000000003F80
00000000003F80
00000000003F80
ENDCHAR
STARTCHAR uni044A
ENCODING 1098
SWIDTH 636 0
DWIDTH 20 0
BBX 20 17 0 0
BITMAP
BFFFC00000
BFFFC00000
BFFFC00000
002FC00000
002FC00000
002FFFFE40
002FFFFFE0
002FFFFFF8
002FD00BFC
002FC002FD
002FC001FE
002FC001FE
002FC002FD
002FD007FC
002FFFFFF8
002FFFFFE0
002FFFFE40
ENDCHAR
STARTCHAR uni044B
ENCODING 1099
SWIDTH 804 0
DWIDTH 26 0
BBX 21 17 2 0
BITMAP
BF0000002FC0
BF0000002FC0
BF0000002FC0
BF0000002FC0
BF0000002FC0
BFFFE8002FC0
BFFFFF402FC0
BFFFFFD02FC0
BF006FF02FC0
BF000BF42FC0
BF0007F42FC0
BF0007F42FC0
BF000BF42FC0
BF002FF02FC0
BFFFFFD02FC0
BFFFFF402FC0
BFFFE8002FC0
ENDCHAR
STARTCHAR uni044C
ENCODING 1100
SWIDTH 550 0
DWIDTH 18 0
BBX 15 17 2 0
BITMAP
BF000000
BF000000
BF000000
BF000000
BF000000
BFFFE800
BFFFFF40
BFFFFFD0
BF006FF0
BF000BF4
BF0007F4
BF0007F4
BF000BF4
BF002FF0
BFFFFFD0
BFFFFF40
BFFFE800
ENDCHAR
STARTCHAR uni044D
ENCODING 1101
SWIDTH 529 0
DWIDTH 17 0
BBX 15 17 1 0
BITMAP
00AFE400
07FFFE00
1FFFFF80
3FD07FD0
BF401FF0
6A000BF4
000007F4
002FFFF8
002FFFF8
001AABF8
150007F4
BF000BF4
7F401FF0
3FD07FD0
1FFFFF80
07FFFE00
01BFE400
ENDCHAR
STARTCHAR uni044E
ENCODING 1102
SWIDTH 814 0
DWIDTH 26 0
BBX 23 17 2 0
BITMAP
BF0001BFE400
BF001BFFFE00
BF007FFFFF80
BF00FFD07FE0
BF01FF000FF0
BF02FD0007F4
BFFFFD0003F8
BFFFFC0003F8
BFFFFC0003FC
BF02FC0003F8
BF02FC0003F8
BF01FD0007F4
BF00FF000FF0
BF007FD07FE0
BF002FFFFF80
BF000BFFFE00
BF0001BFE400
ENDCHAR
STARTCHAR uni044F
ENCODING 1103
SWIDTH 554 0
DWIDTH 18 0
BBX 15 17 1 0
BITMAP
01BFFFF4
0BFFFFF4
2FFFFFF4
7FD007F4
BF4007F4
BF4007F4
7F4007F4
7FD007F4
2FFFFFF4
0BFFFFF4
02FEAFF4
07F807F4
0BF407F4
1FE007F4
3FC007F4
BF4007F4
FE0007F4
ENDCHAR
STARTCHAR uni0450
ENCODING 1104
SWIDTH 536 0
DWIDTH 17 0
BBX 16 24 1 0
BITMAP
07FC0000
01FE0000
00BF4000
002FC000
000F9000
00000000
00000000
006FF900
01FFFF80
0BFFFFE0
1FF41FF0
3FD007F8
7F8002FC
7F4002FC
BFFFFFFC
BFFFFFFD
BFAAAAA8
BF400000
7F800000
3FD00090
1FF806F4
0BFFFFF4
02FFFFD0
002BF900
ENDCHAR
STARTCHAR uni0451
ENCODING 1105
SWIDTH 536 0
DWIDTH 17 0
BBX 16 24 1 0
BITMAP
02900A40
0BF02FC0
0BF02FC0
07D01F80
00000000
00000000
00000000
006FF900
01FFFF80
0BFFFFE0
1FF41FF0
3FD007F8
7F8002FC
7F4002FC
BFFFFFFC
BFFFFFFD
BFAAAAA8
BF400000
7F800000
3FD00090
1FF806F4
0BFFFFF4
02FFFFD0
002BF900
ENDCHAR
STARTCHAR uni0452
ENCODING 1106
SWIDTH 555 0
DWIDTH 18 0
BBX 17 31 -1 -7
BITMAP
03F8000000
03F8000000
03F8000000
BFFFFC0000
BFFFFC0000
6BFEA80000
03F8000000
03F86FE400
03FAFFFD00
03FFFFFF00
03FF55FF40
03FD007F80
03F8003F80
03F8003FC0
03F8003FC0
03F8003FC0
03F8003FC0
03F8003FC0
03F8003FC0
03F8003FC0
03F8003FC0
03F8003FC0
03F8003FC0
03F8003FC0
0000003FC0
0000003FC0
0000003F80
000000BF80
00001FFF00
00002FFD00
00001FE400
ENDCHAR
STARTCHAR uni0453
ENCODING 1107
SWIDTH 418 0
DWIDTH 13 0
BBX 12 24 2 0
BITMAP
002FE0
007F80
00FF00
02FD00
02B400
000000
000000
FFFFFD
FFFFFD
FFFFFD
FF0000
FF0000
FF0000
FF0000
FF0000
FF0000
FF0000
FF0000
FF0000
FF0000
FF0000
FF0000
FF0000
FF0000
ENDCHAR
STARTCHAR uni0454
ENCODING 1108
SWIDTH 529 0
DWIDTH 17 0
BBX 15 17 1 0
BITMAP
006FF900
02FFFF80
0BFFFFE0
2FE41FF4
3FC007F8
7F4002F8
BF400000
BFFFE000
BFFFE000
BFAA9000
BF400000
7F8002F8
3FC007F8
2FF41FF4
0BFFFFE0
02FFFF40
006FE800
ENDCHAR
STARTCHAR uni0455
ENCODING 1109
SWIDTH 516 0
DWIDTH 17 0
BBX 14 17 1 0
BITMAP
00AFE400
07FFFF40
1FFFFFD0
3FD02FE0
7F800FF0
7F800550
3FE40000
1FFFE400
06FFFF40
006BFFD0
00006FF0
69000BF0
BF000BF0
7FD01FF0
2FFFFFD0
0BFFFF40
01AFE800
ENDCHAR
STARTCHAR uni0456
ENCODING 1110
SWIDTH 255 0
DWIDTH 8 0
BBX 4 23 2 0
BITMAP
7E
FF
FF
7E
00
00
BF
BF
BF
BF
BF
BF
BF
BF
BF
BF
BF
BF
BF
BF
BF
BF
BF
ENDCHAR
STARTCHAR uni0457
ENCODING 1111
SWIDTH 262 0
DWIDTH 8 0
BBX 12 24 -2 0
BITMAP
190068
7F40FE
7F80FE
2E00BD
000000
000000
000000
00BF00
00BF00
00BF00
00BF00
00BF00
00BF00
00BF00
00BF00
00BF00
00BF00
00BF00
00BF00
00BF00
00BF00
00BF00
00BF00
00BF00
ENDCHAR
STARTCHAR uni0458
ENCODING 1112
SWIDTH 250 0
DWIDTH 8 0
BBX 8 30 -2 -7
BITMAP
00BD
00FF
00FF
007D
0000
0000
00FF
00FF
00FF
00FF
00FF
00FF
00FF
00FF
00FF
00FF
00FF
00FF
00FF
00FF
00FF
00FF
00FF
00FF
00FF
00FF
16FE
7FFD
7FF8
3F90
ENDCHAR
STARTCHAR uni0459
ENCODING 1113
SWIDTH 852 0
DWIDTH 27 0
BBX 27 17 0 0
BITMAP
00FFFFFF000000
00FFFFFF000000
00FFFFFF000000
00FE00FF000000
00FE00FF000000
00FE00FF000000
01FE00FFFFE900
01FD00FFFFFF80
01FD00FFFFFFD0
01FD00FF002FF0
02FD00FF000BF4
02FC00FF0007F4
03FC00FF000BF4
1BF800FF002FF0
BFF000FFFFFFD0
BFD000FFFFFF40
BE4000FFFFE800
ENDCHAR
STARTCHAR uni045A
ENCODING 1114
SWIDTH 861 0
DWIDTH 28 0
BBX 25 17 2 0
BITMAP
FF000BF4000000
FF000BF4000000
FF000BF4000000
FF000BF4000000
FF000BF4000000
FF000BF4000000
FFFFFFFFFF9000
FFFFFFFFFFF800
FFFFFFFFFFFE00
FF000BF401FF40
FF000BF4007F80
FF000BF4003F80
FF000BF4007F80
FF000BF401FF40
FF000BFFFFFE00
FF000BFFFFF800
FF000BFFFF9000
ENDCHAR
STARTCHAR uni045B
ENCODING 1115
SWIDTH 566 0
DWIDTH 18 0
BBX 17 24 -1 0
BITMAP
03F8000000
03F8000000
03F8000000
7FFFFD0000
7FFFFD0000
6BFEA80000
03F8000000
03F86FE400
03FAFFFD00
03FFFFFF00
03FF55FF40
03FD007F80
03F8003F80
03F8003FC0
03F8003FC0
03F8003FC0
03F8003FC0
03F8003FC0
03F8003FC0
03F8003FC0
03F8003FC0
03F8003FC0
03F8003FC0
03F8003FC0
ENDCHAR
STARTCHAR uni045C
ENCODING 1116
SWIDTH 553 0
DWIDTH 18 0
BBX 16 24 2 0
BITMAP
0001FE00
0007F800
000BF000
002FD000
002B4000
00000000
00000000
BF000FF8
BF002FE0
BF00BFC0
BF01FF40
BF07FD00
BF0FF400
BFFFE000
BFFFC000
BFFFE000
BF5FF400
BF07FC00
BF02FE00
BF01FF40
BF00BFD0
BF003FE0
BF001FF8
BF000BFD
ENDCHAR
STARTCHAR uni045D
ENCODING 1117
SWIDTH 574 0
DWIDTH 18 0
BBX 15 24 2 0
BITMAP
0BF40000
03FD0000
00FE0000
007F8000
001E8000
00000000
00000000
FF000BF4
FF001FF4
FF003FF4
FF00BFF4
FF00FFF4
FF02FFF4
FF07FBF4
FF0FDBF4
FF1F8BF4
FF3F4BF4
FFBE0BF4
FFFC0BF4
FFF80BF4
FFF00BF4
FFD00BF4
FF800BF4
FF400BF4
ENDCHAR
STARTCHAR uni045E
ENCODING 1118
SWIDTH 486 0
DWIDTH 16 0
BBX 16 30 0 -7
BITMAP
03F00FC0
02F96F80
00FFFF00
002FF800
00000000
00000000
BF4003FD
7F8003F8
3FC007F4
2FD00BF0
1FE00FE0
0FF01FD0
0BF42FC0
07F83F80
03FC7F40
02FDBF00
00FEBE00
00BFFD00
007FFC00
003FF800
002FF400
001FF000
000FE000
000FD000
001FC000
003F8000
05BF4000
1FFE0000
1FFC0000
1FE00000
ENDCHAR
STARTCHAR uni045F
ENCODING 1119
SWIDTH 574 0
DWIDTH 18 0
BBX 15 23 2 -6
BITMAP
FF000BF4
FF000BF4
FF000BF4
FF000BF4
FF000BF4
FF000BF4
FF000BF4
FF000BF4
FF000BF4
FF000BF4
FF000BF4
FF000BF4
FF000BF4
FF000BF4
FFFFFFF4
FFFFFFF4
FFFFFFF4
002FC000
002FC000
002FC000
002FC000
002FC000
002FC000
ENDCHAR
STARTCHAR uni0460
ENCODING 1120
SWIDTH 910 0
DWIDTH 29 0
BBX 25 23 2 0
BITMAP
FF0007F8003FC0
FF0007F8003FC0
FF0007F8003FC0
FF0007F8003FC0
FF0007F8003FC0
FF0007F8003FC0
FF0007F8003FC0
FF0007F8003FC0
FF0007F8003FC0
FF0007F8003FC0
FF0007F8003FC0
FF0007F8003FC0
FF0007F8003FC0
FF0007F8003FC0
FF0007F8003FC0
FF0007F8003FC0
FF0007F8003FC0
BF400BF8003FC0
BF800FFD00BF80
3FE57FFF56FF40
2FFFFFBFFFFE00
0BFFFE1FFFF800
01BFE406FF9000
ENDCHAR
STARTCHAR uni0461
ENCODING 1121
SWIDTH 788 0
DWIDTH 25 0
BBX 23 17 1 0
BITMAP
7F800FE003F8
7F800FE003F8
7F800FE003F8
7F800FE003F8
7F800FE003F8
7F800FE003F8
7F800FE003F8
7F800FE003F8
7F800FE003F8
7F800FE003F8
7F801FE003F8
7F801FE007F8
3FC02FF007F4
2FE07FF91FF0
1FFFFFFFFFE0
07FFFCBFFF80
00BFA01BF900
ENDCHAR
STARTCHAR uni0462
ENCODING 1122
SWIDTH 628 0
DWIDTH 20 0
BBX 20 23 -1 0
BITMAP
02FD000000
02FD000000
02FD000000
BFFFF80000
BFFFF80000
6BFEA40000
02FD000000
02FD000000
02FD000000
02FFFFF900
02FFFFFFD0
02FFFFFFF4
02FD555FFC
02FD0002FE
02FD0001FF
02FD0000FF
02FD0000FF
02FD0001FF
02FD0002FE
02FD005FFC
02FFFFFFF4
02FFFFFFD0
02FFFFF900
ENDCHAR
STARTCHAR uni0463
ENCODING 1123
SWIDTH 550 0
DWIDTH 18 0
BBX 18 24 -1 0
BITMAP
02FC000000
02FC000000
02FC000000
02FC000000
02FC000000
BFFFFE0000
BFFFFE0000
6BFEA90000
02FC000000
02FC000000
02FC000000
02FC000000
02FFFFA000
02FFFFFD00
02FFFFFF40
02FC01BFC0
02FC002FD0
02FC001FD0
02FC001FD0
02FC002FD0
02FC00BFC0
02FFFFFF40
02FFFFFD00
02FFFFA000
ENDCHAR
STARTCHAR uni0464
ENCODING 1124
SWIDTH 894 0
DWIDTH 29 0
BBX 25 23 2 0
BITMAP
BF40002BFA4000
BF4002FFFFE000
BF400BFFFFFC00
BF402FF95BFE00
BF407FC000FF40
BF40BF40007F80
BF41FE00003FC0
BF41FD00001540
BF42FD00000000
BF42FC00000000
BFFFFFFFF80000
BFFFFFFFF80000
BFFFFFFFF80000
BF43FC00000000
BF42FD00000000
BF42FD00002A80
BF41FE00003FC0
BF40FF00007F80
BF40BF8000FF40
BF403FF55BFE00
BF401FFFFFFC00
BF4002FFFFE000
BF40006FFA4000
ENDCHAR
STARTCHAR uni0465
ENCODING 1125
SWIDTH 750 0
DWIDTH 24 0
BBX 21 17 2 0
BITMAP
FF0006FF9000
FF002FFFF800
FF00BFFFFE00
FF02FF41FF40
FF03FC007F80
FF07F4002FC0
FF0BF4000000
FFFFFFFF0000
FFFFFFFF0000
FFAFFAAA0000
FF0BF4000000
FF07F8002F80
FF03FC007F80
FF01FF41FF40
FF00BFFFFE00
FF002FFFF800
FF0006FF8000
ENDCHAR
STARTCHAR uni0466
ENCODING 1126
SWIDTH 630 0
DWIDTH 20 0
BBX 21 23 0 0
BITMAP
0000BF800000
0000FFC00000
0001FFD00000
0002FFE00000
0003FFF00000
0007FFF40000
000BF7F80000
000FE2FC0000
001FD1FD0000
002FC0FE0000
003F80BF0000
00BF407F4000
00FF003F8000
01FFFFFFC000
02FFFFFFD000
03FFFFFFE000
07F87F0BF000
0BF47F07F400
0FF07F03F800
1FE07F03FC00
2FD07F02FD00
3FC07F01FF00
7F807F00FF40
ENDCHAR
STARTCHAR uni0467
ENCODING 1127
SWIDTH 546 0
DWIDTH 18 0
BBX 17 17 0 0
BITMAP
0007F80000
000BFC0000
001FFD0000
002FFE0000
003FFF4000
007F7F8000
00BF2FC000
00FE1FD000
02FD0FE000
03FC0BF000
07FFFFF800
0BFFFFFC00
0FFBFAFD00
1FD3F0FE00
3FC3F0BF00
7F83F07F40
BF43F03FC0
ENDCHAR
STARTCHAR uni0468
ENCODING 1128
SWIDTH 907 0
DWIDTH 29 0
BBX 27 23 2 0
BITMAP
7F800007FC0000
7F80000BFD0000
7F80000FFE0000
7F80001FFF0000
7F80002FFF4000
7F80003FFF8000
7F80007F6FC000
7F8000BF1FD000
7F8000FE0FE000
7F8001FD0BF000
7F8003FC07F400
7F8007F803F800
7F800BF402FC00
7FFFFFFFFFFD00
7FFFFFFFFFFE00
7FFFFFFFFFFF00
7F803FC3F47F40
7F807F83F43FC0
7F80BF43F42FD0
7F80FF03F41FE0
7F81FE03F40FF0
7F82FD03F40BF4
7F83FC03F40BF8
ENDCHAR
STARTCHAR uni0469
ENCODING 1129
SWIDTH 776 0
DWIDTH 25 0
BBX 23 17 2 0
BITMAP
BF4000FF0000
BF4001FF4000
BF4003FF8000
BF4007FFC000
BF400BFFD000
BF400FEBF000
BF401FD7F400
BF402FC3F800
BF407F42FC00
BF40BF01FD00
BFFFFFFFFE00
BFFFFFFFFF40
BFABFEFEBF80
BF43F8BD3FC0
BF4BF4BD1FD0
BF4FF0BD0FE0
BF5FE0BD0BF4
ENDCHAR
STARTCHAR uni046A
ENCODING 1130
SWIDTH 865 0
DWIDTH 28 0
BBX 24 23 2 0
BITMAP
07FFFFFFFFE0
02FFFFFFFFC0
01FFFFFFFF40
00BF9556FE00
003FC003FD00
001FE00BF800
000FF40FF000
0007F82FD000
0002FD7F8000
0000FEBF4000
00AFFFFFF900
0BFFFFFFFFD0
2FFFFFFFFFF4
7FE55FF55FFC
BF800FF003FD
FF000FF001FE
FF000FF001FE
FF000FF001FE
FF000FF001FE
FF000FF001FE
FF000FF001FE
FF000FF001FE
FF000FF001FE
ENDCHAR
STARTCHAR uni046B
ENCODING 1131
SWIDTH 737 0
DWIDTH 24 0
BBX 20 17 2 0
BITMAP
0BFFFFFFE0
03FFFFFFC0
01FFAAFF40
00BF00FE00
007F42FC00
002FC7F400
000FDBE000
01BFFFFA00
0BFFFFFFD0
2FFFFFFFF4
7FD0FE07FC
BF40FE02FD
FF00FE01FD
FF00FE01FE
FE00FE01FE
FE00FE01FE
FE00FE01FE
ENDCHAR
STARTCHAR uni046C
ENCODING 1132
SWIDTH 1149 0
DWIDTH 37 0
BBX 33 23 2 0
BITMAP
7F4001FFFFFFFFF800
7F4000BFFFFFFFF000
7F40007FFFFFFFD000
7F40002FE555BFC000
7F40000FF400FF4000
7F400007F801FE0000
7F400002FD03FC0000
7F400001FE0BF40000
7F400000BF4FF00000
7F4000003FEFD00000
7FFFFFFFFFFFFE4000
7FFFFFFFFFFFFFF400
7FFFFFFFFFFFFFFD00
7F801FF957FD57FF00
7F402FE003FC00BF40
7F402FD003FC007F80
7F403FC003FC007F80
7F403FC003FC003F80
7F403FC003FC003F80
7F403FC003FC003F80
7F403FC003FC003F80
7F403FC003FC003F80
7F403FC003FC003F80
ENDCHAR
STARTCHAR uni046D
ENCODING 1133
SWIDTH 996 0
DWIDTH 32 0
BBX 28 17 2 0
BITMAP
BF0007FFFFFFE0
BF0002FFFFFFD0
BF0001FFAAFF80
BF0000BF40FF00
BF00003F81FD00
BF00001FD3F800
BF00000BE7F000
BFFFFFFFFFFE40
BFFFFFFFFFFFE0
BFFFFFFFFFFFF8
BF003FD0BF07FC
BF007F80BF01FE
BF00BF40BF00FE
BF00BF00BF00FE
BF00BF00BF00FF
BF00BF00BF00FF
BF00BF00BF00FF
ENDCHAR
STARTCHAR uni046E
ENCODING 1134
SWIDTH 515 0
DWIDTH 17 0
BBX 15 38 0 -7
BITMAP
07F40FD0
01FC3F40
007EBD00
001FF800
000BE000
00000000
00000000
00000000
0FFFA400
0FFFFE00
0FFFFFC0
0001BFE0
00000FF0
00000BF0
00000BF0
00000FE0
00007FD0
00FFFF40
00FFFC00
00FFFF40
00017FD0
00000FF0
000007F4
000007F8
000007F8
000007F8
00000FF4
00007FE0
06FFFFD0
1FFFFF40
3FFFE400
7F800000
7F400000
7F400000
3FC00000
1FF40000
07F00000
01900000
ENDCHAR
STARTCHAR uni046F
ENCODING 1135
SWIDTH 492 0
DWIDTH 16 0
BBX 14 32 0 -7
BITMAP
0BD02F80
03F4BE00
01FEF800
007FE000
001FC000
00000000
00000000
00000000
0FFFA400
0FFFFE00
0FFFFFC0
00007FD0
00001FE0
00001FD0
00007FC0
00FFFF40
00FFFD00
00AAFFC0
00001FE0
00000BF0
00000FF0
00002FF0
01BFFFD0
1FFFFF40
2FFFE400
3F800000
7F400000
3F400000
2FC00000
1FF40000
07F00000
00900000
ENDCHAR
STARTCHAR uni0470
ENCODING 1136
SWIDTH 708 0
DWIDTH 23 0
BBX 21 23 1 0
BITMAP
FF00BF40BF40
FF00BF40BF40
FF00BF40BF40
FF00BF40BF40
FF00BF40BF40
FF00BF40BF40
FF00BF40BF40
FF00BF40BF40
FF00BF40BF40
BF00BF40BF40
BF40BF40FF00
7F80BF41FF00
3FE0BF43FD00
1FF9BF5FF800
0BFFFFFFF000
01FFFFFF8000
002FFFF90000
0000BF400000
0000BF400000
0000BF400000
0000BF400000
0000BF400000
0000BF400000
ENDCHAR
STARTCHAR uni0471
ENCODING 1137
SWIDTH 723 0
DWIDTH 23 0
BBX 21 24 1 -7
BITMAP
BF00BF41FD00
BF00BF40FE00
BF00BF40BF00
BF00BF407F40
BF00BF407F80
BF00BF403F80
BF00BF403FC0
BF00BF403FC0
BF00BF403FC0
BF40BF403FC0
7F40BF407F80
3FC0BF40BF40
2FE0BF42FF00
0FFDBF5FFD00
07FFFFFFF400
01BFFFFF9000
001AFFE90000
0000BF400000
0000BF400000
0000BF400000
0000BF400000
0000BF400000
0000BF400000
0000BF400000
ENDCHAR
STARTCHAR uni0472
ENCODING 1138
SWIDTH 684 0
DWIDTH 22 0
BBX 20 23 1 0
BITMAP
0006FF9000
007FFFFD00
01FFFFFF40
07FF56FFD0
0FF8002FE0
1FE0000BF4
3FD00007F8
3F800003FC
7F800002FC
7F400002FD
7FFFFFFFFD
BFFFFFFFFD
BFAAAAABFD
7F800002FD
7F800002FC
3FC00003FC
3FD00007F8
1FE0000FF4
0FF8002FF0
07FF55FFD0
01FFFFFF40
007FFFFD00
0006FF9000
ENDCHAR
STARTCHAR uni0473
ENCODING 1139
SWIDTH 566 0
DWIDTH 18 0
BBX 16 17 1 0
BITMAP
006FF900
02FFFF80
0BFFFFF0
1FF41FF8
3FC003FD
7F8001FE
BF4000FE
BFFFFFFF
BFFFFFFF
BFAAAAFF
BF4000FE
7F8001FE
3FC003FC
2FF41FF8
0BFFFFF0
02FFFF80
006FF900
ENDCHAR
STARTCHAR uni0474
ENCODING 1140
SWIDTH 637 0
DWIDTH 20 0
BBX 20 23 0 0
BITMAP
BF8000006E
7FC00001FE
3FD00003FE
2FE0000BF9
1FE0000FE0
0FF0001FD0
0BF4002FC0
07F8002F80
03FC003F40
02FD007F00
01FE00BE00
00FF00FE00
00BF41FD00
007F82FC00
003F83F800
002FC7F400
001FDBF000
000FEBE000
0007FFD000
0003FFC000
0002FF8000
0001FF4000
0000FF0000
ENDCHAR
STARTCHAR uni0475
ENCODING 1141
SWIDTH 506 0
DWIDTH 16 0
BBX 17 17 0 0
BITMAP
7F80006F40
3FC001FF40
2FC003FF00
1FD00BF900
0FE00FE000
0BF01FD000
07F41FC000
03F42F8000
02F83F4000
01FC7F0000
00FDBE0000
00BEFD0000
007FFC0000
003FF80000
002FF40000
001FF00000
000FE00000
ENDCHAR
STARTCHAR uni0476
ENCODING 1142
SWIDTH 637 0
DWIDTH 20 0
BBX 20 28 0 0
BITMAP
1FF1FD0000
02FD7F4000
00BF6FC000
002E8B9000
0000000000
BF8000006E
7FC00001FE
3FD00003FE
2FE0000BF9
1FE0000FE0
0FF0001FD0
0BF4002FC0
07F8002F80
03FC003F40
02FD007F00
01FE00BE00
00FF00FE00
00BF41FD00
007F82FC00
003F83F800
002FC7F400
001FDBF000
000FEBE000
0007FFD000
0003FFC000
0002FF8000
0001FF4000
0000FF0000
ENDCHAR
STARTCHAR uni0477
ENCODING 1143
SWIDTH 506 0
DWIDTH 16 0
BBX 17 24 0 0
BITMAP
BF4FE00000
1FD3F80000
07F9FE0000
01F97A0000
0000000000
0000000000
0000000000
7F80006F40
3FC001FF40
2FC003FF00
1FD00BF900
0FE00FE000
0BF01FD000
07F41FC000
03F42F8000
02F83F4000
01FC7F0000
00FDBE0000
00BEFD0000
007FFC0000
003FF80000
002FF40000
001FF00000
000FE00000
ENDCHAR
STARTCHAR uni0478
ENCODING 1144
SWIDTH 1177 0
DWIDTH 38 0
BBX 37 30 1 -7
BITMAP
0006FF90000000000000
007FFFFD000000000000
01FFFFFF400000000000
07FF95FFD00000000000
0FF8002FF00000000000
1FF0000BF40000000000
2FD00007F82FE000BF40
3FC00003FC1FF000FF00
7F800002FD0FF001FE00
7F800002FD0BF402FD00
7F800002FD03F803FC00
7F800001FD02FC07F800
7F800002FD01FD0BF400
7F800002FD00FE0FF000
7F800002FD00BF0FE000
3FC00003FC007F5FD000
2FD00007F8003FAFC000
1FF0000BF4002FFF8000
0FF8002FF0001FFF4000
07FF55BFD0000FFE0000
01FFFFFF40000BFD0000
007FFFFD000007FC0000
0006FF90000003F80000
00000000000003F40000
00000000000007F00000
0000000000000BE00000
0000000000016FD00000
000000000007FF800000
000000000007FF000000
000000000007F8000000
ENDCHAR
STARTCHAR uni0479
ENCODING 1145
SWIDTH 1056 0
DWIDTH 34 0
BBX 33 24 1 -7
BITMAP
006FF9001FE000BF40
02FFFF800FF000FF00
0BFFFFF00BF401FE00
1FF41FF807F802FD00
3FD003FD03FC02FC00
7F8001FE02FD03F800
BF4000FE01FE07F400
BF0000FF00FE0BF000
BF0000FF00BF0FE000
BF0000FF007F5FD000
BF4000FE003FAFC000
7F8001FE002FFF8000
3FC003FC001FFF4000
1FF41BF8000FFF0000
0BFFFFF0000BFE0000
02FFFF800007FD0000
006FF9000003FC0000
000000000002F80000
000000000007F40000
00000000000BF00000
00000000016FD00000
0000000007FFC00000
0000000007FF400000
0000000007F8000000
ENDCHAR
STARTCHAR uni047A
ENCODING 1146
SWIDTH 684 0
DWIDTH 22 0
BBX 20 27 1 -2
BITMAP
0000690000
0000BE0000
0006FF9000
007FFFFD00
01FFFFFF40
07FEBEBFD0
0FF8BD2FE0
1FE0000BF4
3FD00007F8
3FC00003FC
7F800002FC
7F800002FD
7F400002FD
BF400002FD
7F400002FD
7F800002FD
7F800002FD
3FC00003FC
3FD00007F8
1FE0000BF4
0FF4692FF0
07FEBEBFD0
02FFFFFF40
007FFFFD00
0006FF9000
0000BE0000
0000BD0000
ENDCHAR
STARTCHAR uni047B
ENCODING 1147
SWIDTH 566 0
DWIDTH 18 0
BBX 16 21 1 -2
BITMAP
00069000
0007E000
006FF900
02FFFF80
0BFFFFF0
2FFBEBF8
3FC693FD
7F8001FE
BF4000FE
BF0000FF
BF0000FF
BF0000FF
BF4000FE
7F8001FE
3FC693FD
2FFBEBF8
0BFFFFF0
02FFFF80
006FF900
0007D000
00069000
ENDCHAR
STARTCHAR uni047C
ENCODING 1148
SWIDTH 908 0
DWIDTH 29 0
BBX 25 29 2 0
BITMAP
00002FE4000000
0000BFFF500000
0000F46FFD0000
0001F001BD0000
000001F4000000
000001F4000000
00AC02F01E8000
07FC03E01FF400
1FFC02801FFD00
3FE4000006FF00
7F80000000BF40
BF400000007F80
BF400000007F80
FF000000003F80
FF000000003F80
FF000000003F80
FF0007F4003F80
FF0007F4003F80
FF0007F4003F80
FF0007F4003F80
FF0007F4003F80
FF0007F4003F80
BF4007F4007F80
BF400BF8007F80
7F800FFC00BF40
3FE57FFF56FF00
1FFFFFBFFFFD00
07FFFE2FFFF400
00BFE406FE8000
ENDCHAR
STARTCHAR uni047D
ENCODING 1149
SWIDTH 783 0
DWIDTH 25 0
BBX 23 23 1 0
BITMAP
00007F900000
0001FFFE4000
0002E07FFC00
0003D006BC00
000003E00000
000003E00000
00AD03D0E800
07FD0BC0FF40
0FFD0600FFC0
2FE400006FE0
3FC000000FF0
3F8000000BF4
7F8000000BF4
7F8005400BF4
7F801FD00BF4
7F801FD00BF4
7F801FD00BF4
3F801FD00BF4
3FC02FE00FF0
2FE0BFF82FE0
0FFFFFFFFFD0
07FFF8BFFF40
00BF901BF800
ENDCHAR
STARTCHAR uni047E
ENCODING 1150
SWIDTH 910 0
DWIDTH 29 0
BBX 25 29 2 0
BITMAP
000FFFFFFD0000
000FFFFFFD0000
000003F0000000
000003F0000000
00000000000000
00000000000000
FF0007F8003FC0
FF0007F8003FC0
FF0007F8003FC0
FF0007F8003FC0
FF0007F8003FC0
FF0007F8003FC0
FF0007F8003FC0
FF0007F8003FC0
FF0007F8003FC0
FF0007F8003FC0
FF0007F8003FC0
FF0007F8003FC0
FF0007F8003FC0
FF0007F8003FC0
FF0007F8003FC0
FF0007F8003FC0
FF0007F8003FC0
BF400BF8003FC0
BF800FFD00BF80
3FE57FFF56FF40
2FFFFFBFFFFE00
0BFFFE1FFFF800
01BFE406FF9000
ENDCHAR
STARTCHAR uni047F
ENCODING 1151
SWIDTH 788 0
DWIDTH 25 0
BBX 23 23 1 0
BITMAP
002FFFFFF400
002FFFFFF400
00000BC00000
00000BC00000
000000000000
000000000000
7F800FE003F8
7F800FE003F8
7F800FE003F8
7F800FE003F8
7F800FE003F8
7F800FE003F8
7F800FE003F8
7F800FE003F8
7F800FE003F8
7F800FE003F8
7F801FE003F8
7F801FE007F8
3FC02FF007F4
2FE07FF91FF0
1FFFFFFFFFE0
07FFFCBFFF80
00BFA01BF900
ENDCHAR
STARTCHAR uni0480
ENCODING 1152
SWIDTH 637 0
DWIDTH 20 0
BBX 18 29 1 -6
BITMAP
000AFE9000
00BFFFF800
02FFFFFF00
0BFE56FF80
1FF4007FD0
2FD0002FE0
3FC0001FE0
7F80000AA0
7F80000000
7F80000000
7F80000000
7F80000000
7F80000000
7F80000000
7F80000000
7F80000000
3FC0000000
2FD0000000
1FF4000000
0BFD000000
03FFFE0000
00BFFE0000
001BFE0000
0000FE0000
0000FE0000
0000FE0000
0000FE0000
0000FE0000
0000FE0000
ENDCHAR
STARTCHAR uni0481
ENCODING 1153
SWIDTH 536 0
DWIDTH 17 0
BBX 15 23 1 -6
BITMAP
006FF900
02FFFF40
0BFFFFD0
1FF41FF0
2FD007F8
3F8003F8
7F400154
7F400000
BF400000
BF400000
7F400000
7F800000
3FD00000
1FF40000
0BFFF400
02FFF400
006FF400
0007F400
0007F400
0007F400
0007F400
0007F400
0007F400
ENDCHAR
STARTCHAR uni0482
ENCODING 1154
SWIDTH 624 0
DWIDTH 20 0
BBX 16 21 2 0
BITMAP
000000BC
000001F4
001002F0
007907D0
00BF8F80
001FFF40
0002FF40
0000BFE0
0001FBFD
0002F07F
6007D009
FD0F8000
BFAF4000
1BFE0000
01FF4000
01FFE400
02F6FE00
07D07D00
0FC00400
1F400000
3E000000
ENDCHAR
STARTCHAR uni0483
ENCODING 1155
SWIDTH 0 0
DWIDTH 0 0
BBX 12 6 -15 19
BITMAP
000015
00003F
6AAABF
7FFFFF
7D0000
7D0000
ENDCHAR
STARTCHAR uni0484
ENCODING 1156
SWIDTH 0 0
DWIDTH 0 0
BBX 13 4 -15 20
BITMAP
0006FD00
05BFFF40
7FF90B80
7E400780
ENDCHAR
STARTCHAR uni0485
ENCODING 1157
SWIDTH 0 0
DWIDTH 0 0
BBX 4 5 -10 21
BITMAP
FC
FC
BC
2E
09
ENDCHAR
STARTCHAR uni0486
ENCODING 1158
SWIDTH 0 0
DWIDTH 0 0
BBX 5 5 -10 21
BITMAP
2F40
2F40
2F00
7D00
2400
ENDCHAR
STARTCHAR uni0488
ENCODING 1160
SWIDTH 0 0
DWIDTH 0 0
BBX 31 28 -24 -5
BITMAP
0000001BD0000000
00000079B4000000
000000B038000000
0000000000000000
0000000000000000
006F40000006F800
01E6D000000F6E00
02D0E000001D0B00
0000000000000000
0000000000000000
0000000000000000
0000000000000000
1BE0000000001BE0
3DB8000000007DB8
742C00000000742C
0000000000000000
0000000000000000
0000000000000000
0000000000000000
0000000000000000
0000000000000000
007E40000006F400
01E6D000001E6D00
02C0E000002D0E00
0000000000000000
0000001BD0000000
00000079B4000000
000000B438000000
ENDCHAR
STARTCHAR uni0489
ENCODING 1161
SWIDTH 0 0
DWIDTH 0 0
BBX 30 30 -23 -7
BITMAP
0000000740000000
0000000B00000000
0000000F00000000
0020001E00000000
0078002E00000000
002D00190001A000
001F0000001BE000
000F400000BF4000
0006000000780000
0000000000000000
0000000000000000
0000000000000000
0000000000000000
A900000000019000
BFE000000001FE40
06E000000000AFD0
0010000000000040
0000000000000000
0000000000000000
0000000000000000
0000000000000000
0007800000280000
002FD000003D0000
01FD0000002E0000
01D00006400F0000
0000000F00078000
0000001E00024000
0000001D00000000
0000002C00000000
0000003800000000
ENDCHAR
STARTCHAR uni048A
ENCODING 1162
SWIDTH 770 0
DWIDTH 25 0
BBX 22 34 2 -6
BITMAP
00BD02F40000
007F57F00000
002FFFD00000
0006FE400000
000000000000
BF40000FF400
BF40002FF400
BF40007FF400
BF4000FFF400
BF4001FFF400
BF4003FFF400
BF400BFFF400
BF401FEBF400
BF403FCBF400
BF40BF4BF400
BF41FF0BF400
BF42FD0BF400
BF47F80BF400
BF4FF00BF400
BF6FD00BF400
BF7F800BF400
BFFF400BF400
BFFE000BF400
BFFC000BF400
BFF4000BF400
BFE0000BFE90
BFD0000BFFD0
BF80000BFFD0
000000000FD0
000000000FD0
000000001FC0
000000002F80
000000007F00
000000002C00
ENDCHAR
STARTCHAR uni048B
ENCODING 1163
SWIDTH 638 0
DWIDTH 20 0
BBX 18 29 2 -6
BITMAP
0BC02F4000
07E5BF0000
02FFFD0000
006FE40000
0000000000
0000000000
FF000BF400
FF001FF400
FF003FF400
FF00BFF400
FF00FFF400
FF02FFF400
FF07FBF400
FF0FDBF400
FF1F8BF400
FF3F4BF400
FFBE0BF400
FFFC0BF400
FFF80BF400
FFF00BF400
FFD00BFE90
FF800BFFE0
FF400BFFE0
0000000FD0
0000000FD0
0000001FC0
0000002F80
0000007F00
0000001D00
ENDCHAR
STARTCHAR uni048C
ENCODING 1164
SWIDTH 628 0
DWIDTH 20 0
BBX 20 23 -1 0
BITMAP
02FD000000
02FD000000
02FD000000
BFFFF80000
BFFFF80000
6BFEA40000
02FD000000
02FD000000
02FD000000
02FFFFF900
02FFFFFFD0
02FFFFFFF4
02FD555FFC
02FD0002FE
02FD0001FF
02FD0000FF
02FD0000FF
02FD0001FF
02FD0002FE
02FD005FFC
02FFFFFFF4
02FFFFFFD0
02FFFFF900
ENDCHAR
STARTCHAR uni048D
ENCODING 1165
SWIDTH 550 0
DWIDTH 18 0
BBX 18 26 -1 0
BITMAP
02A8000000
02FC000000
02FC000000
BFFFFE0000
BFFFFE0000
6BFEA90000
02FC000000
02FC000000
02FC000000
02FC000000
02FC000000
02FC000000
02FC000000
02FC000000
02FFFFA000
02FFFFFD00
02FFFFFF40
02FC01BFC0
02FC002FD0
02FC001FD0
02FC001FD0
02FC002FD0
02FC00BFC0
02FFFFFF40
02FFFFFD00
02FFFFA000
ENDCHAR
STARTCHAR uni048E
ENCODING 1166
SWIDTH 634 0
DWIDTH 20 0
BBX 18 23 2 0
BITMAP
BFFFFE4000
BFFFFFF400
BFFFFFFE00
BF5556FF40
BF4000BF80
BF40003FC0
BF40002FD0
BF40052FD0
BF401F7FD0
BF400BFFC0
BF4007FF80
BFFFFFFF00
BFFFFFFF00
BFFFFF9F80
BF554007C0
BF40000100
BF40000000
BF40000000
BF40000000
BF40000000
BF40000000
BF40000000
BF40000000
ENDCHAR
STARTCHAR uni048F
ENCODING 1167
SWIDTH 565 0
DWIDTH 18 0
BBX 15 24 2 -7
BITMAP
FD1BF800
FEBFFF40
FFFFFFD0
FFD47FE0
FF000FF0
FE000BF4
FE0007F8
FE0003F8
FE0003F8
FE0003F8
FE0057F8
FE01FBF4
FF00FFF0
FFD07FE0
FFFFFFD0
FEFFFFE0
FE1BF9F4
FE0000A0
FE000000
FE000000
FE000000
FE000000
FE000000
FE000000
ENDCHAR
STARTCHAR uni0490
ENCODING 1168
SWIDTH 551 0
DWIDTH 18 0
BBX 15 28 2 0
BITMAP
000003F8
000003F8
000003F8
000003F8
000003F8
BFFFFFF8
BFFFFFF8
BFFFFFF8
BF555550
BF400000
BF400000
BF400000
BF400000
BF400000
BF400000
BF400000
BF400000
BF400000
BF400000
BF400000
BF400000
BF400000
BF400000
BF400000
BF400000
BF400000
BF400000
BF400000
ENDCHAR
STARTCHAR uni0491
ENCODING 1169
SWIDTH 453 0
DWIDTH 15 0
BBX 12 22 2 0
BITMAP
0001FD
0001FD
0001FD
0001FD
0001FD
FFFFFD
FFFFFD
FFFFFD
FE0000
FE0000
FE0000
FE0000
FE0000
FE0000
FE0000
FE0000
FE0000
FE0000
FE0000
FE0000
FE0000
FE0000
ENDCHAR
STARTCHAR uni0492
ENCODING 1170
SWIDTH 557 0
DWIDTH 18 0
BBX 18 23 -1 0
BITMAP
02FFFFFFF0
02FFFFFFF0
02FFFFFFF0
02FD555540
02FD000000
02FD000000
02FD000000
02FD000000
02FD000000
02FD000000
7FFFFD0000
7FFFFD0000
2BFEA80000
02FD000000
02FD000000
02FD000000
02FD000000
02FD000000
02FD000000
02FD000000
02FD000000
02FD000000
02FD000000
ENDCHAR
STARTCHAR uni0493
ENCODING 1171
SWIDTH 418 0
DWIDTH 13 0
BBX 15 17 -1 0
BITMAP
03FFFFF4
03FFFFF4
03FFFFF4
03FC0000
03FC0000
03FC0000
03FC0000
7FFFFC00
7FFFFC00
6BFEA800
03FC0000
03FC0000
03FC0000
03FC0000
03FC0000
03FC0000
03FC0000
ENDCHAR
STARTCHAR uni0494
ENCODING 1172
SWIDTH 618 0
DWIDTH 20 0
BBX 17 28 2 -5
BITMAP
BFFFFFFC00
BFFFFFFC00
BFFFFFFC00
BF55555000
BF40000000
BF40000000
BF40000000
BF40000000
BF40000000
BF40000000
BFFFE90000
BFFFFF8000
BFFFFFF000
BF416FF800
BF4003FD00
BF4001FF00
BF4000BF00
BF4000BF40
BF40007F40
BF40007F40
BF40007F40
BF4000BF40
BF4000BF00
000001FE00
000007FD00
00007FF400
0000BFD000
00007A0000
ENDCHAR
STARTCHAR uni0495
ENCODING 1173
SWIDTH 515 0
DWIDTH 17 0
BBX 14 21 2 -4
BITMAP
FFFFFC00
FFFFFC00
FFFFFC00
FE000000
FE000000
FE000000
FE000000
FFFE4000
FFFFF800
FFFFFE00
FE56FF40
FE007FC0
FE002FD0
FE001FD0
FE001FD0
FE002FD0
FE003FC0
0000FF40
000BFE00
0007F800
00029000
ENDCHAR
STARTCHAR uni0496
ENCODING 1174
SWIDTH 1013 0
DWIDTH 32 0
BBX 32 28 0 -5
BITMAP
3FF0002FD0003FE0
1FF4002FD000BFC0
0BFC002FD001FF40
03FE002FD002FE00
01FF002FD007FD00
00BF802FD00BF800
007FC02FD01FF000
002FE02FD03FD000
000FF42FD07F8000
0007F82FD0FF0000
0002FFFFFFFE0000
0002FFFFFFFD0000
0007FFFFFFFF0000
000BF96FE5FF8000
001FF42FD07FD000
003FE02FD02FE000
00BFC02FD01FF400
01FF402FD00BFC00
03FF002FD003FE00
07FD002FD002FF40
0FF8002FD000FFFF
2FF0002FD0007FFF
7FE0002FD0002FFF
00000000000000BF
00000000000000BF
00000000000000BF
00000000000000BF
00000000000000BF
ENDCHAR
STARTCHAR uni0497
ENCODING 1175
SWIDTH 853 0
DWIDTH 27 0
BBX 27 22 0 -5
BITMAP
3FE003F800BF80
1FF403F801FF40
0BF803F803FE00
03FD03F807FC00
01FF03F80FF400
00BF43F82FE000
007FC3F83FC000
002FFFFFFF4000
000FFFFFFF0000
002FFFFFFF8000
007FD7FD7FD000
00FF43F82FE000
02FE03F80FF400
07FD03F807FC00
0FF803F802FFF8
2FF003F801FFF8
7FD003F800BFF8
000000000003F8
000000000003F8
000000000003F8
000000000003F8
000000000003F8
ENDCHAR
STARTCHAR uni0498
ENCODING 1176
SWIDTH 604 0
DWIDTH 19 0
BBX 17 29 1 -6
BITMAP
006BFE4000
06FFFFF400
1FFFFFFD00
3FF95BFF00
7FC000FF40
7F40007F80
0000007F80
000000BF40
000006FE00
000FFFF800
000FFFE000
000FFFF800
000016FE00
000000BF40
0000007F80
0000003FC0
BF00003FC0
BF40007F80
7FC000FF80
3FF517FF00
1FFFFFFD00
06FFFFE400
006FFE4000
0007F80000
0007F80000
0007F80000
0007F80000
0007F80000
0007F80000
ENDCHAR
STARTCHAR uni0499
ENCODING 1177
SWIDTH 510 0
DWIDTH 16 0
BBX 14 23 1 -6
BITMAP
01BFE800
0BFFFF40
3FFFFFD0
7F902FE0
55000FE0
00002FD0
007FFF40
007FFE00
006AFFC0
00001FE0
00000FF0
AA000BF0
BF400FF0
7FD02FE0
2FFFFFC0
0BFFFF40
01BFF400
002FC000
002FC000
002FC000
002FC000
002FC000
002FC000
ENDCHAR
STARTCHAR uni049A
ENCODING 1178
SWIDTH 724 0
DWIDTH 23 0
BBX 20 28 2 -5
BITMAP
BF40003FE0
BF4000BFC0
BF4001FF40
BF4003FE00
BF400BFC00
BF401FF400
BF403FE000
BF40BFC000
BF41FF4000
BF43FE0000
BFFFF80000
BFFFF40000
BFFFFC0000
BF97FE0000
BF41FF8000
BF407FD000
BF402FF000
BF400FF800
BF4007FD00
BF4002FF40
BF4000BFFF
BF40003FFF
BF40001FFF
00000000BF
00000000BF
00000000BF
00000000BF
00000000BF
ENDCHAR
STARTCHAR uni049B
ENCODING 1179
SWIDTH 622 0
DWIDTH 20 0
BBX 17 22 2 -5
BITMAP
BF000FF800
BF002FE000
BF00BFC000
BF01FF4000
BF07FD0000
BF0FF40000
BFFFE00000
BFFFC00000
BFFFE00000
BF5FF40000
BF07FC0000
BF02FE0000
BF01FF4000
BF00BFD000
BF003FFFC0
BF001FFFC0
BF000BFFC0
0000002FC0
0000002FC0
0000002FC0
0000002FC0
0000002FC0
ENDCHAR
STARTCHAR uni049C
ENCODING 1180
SWIDTH 646 0
DWIDTH 21 0
BBX 19 23 2 0
BITMAP
BF40002FF0
BF40007FD0
BF4000BF80
BF4000FF40
BF4002FE00
BF4003FD00
BF5F07F800
BF5F0FF000
BF5F1FE000
BF5F2FC000
BFFFFF4000
BFFFFF4000
BFFFFFC000
BFAFBFE000
BF5F1FF000
BF5F0BF800
BF5F07FD00
BF4003FE00
BF4001FF40
BF4000FFC0
BF40007FD0
BF40003FF0
BF40001FF8
ENDCHAR
STARTCHAR uni049D
ENCODING 1181
SWIDTH 583 0
DWIDTH 19 0
BBX 17 17 2 0
BITMAP
BF0002FF00
BF0003FD00
BF000BF800
BF000FF400
BF2E1FE000
BF2E3FC000
BF2E7F4000
BFFFFE0000
BFFFFE0000
BFFFFF0000
BF6FBF8000
BF2E3FD000
BF2E1FF000
BF050FF800
BF0007FD00
BF0003FE00
BF0001FF40
ENDCHAR
STARTCHAR uni049E
ENCODING 1182
SWIDTH 654 0
DWIDTH 21 0
BBX 22 23 -1 0
BITMAP
01FE0000BFC0
01FE0001FF40
01FE0007FE00
7FFFFC0BFC00
7FFFFC1FF400
6AFFA87FE000
01FE00BFC000
01FE01FF4000
01FE07FE0000
01FE0BF80000
01FFFFF00000
01FFFFE00000
01FFFFF40000
01FE5BFD0000
01FE03FF0000
01FE01FF8000
01FE007FD000
01FE002FF000
01FE000FF800
01FE0007FE00
01FE0002FF40
01FE0000BFC0
01FE00003FE0
ENDCHAR
STARTCHAR uni049F
ENCODING 1183
SWIDTH 533 0
DWIDTH 17 0
BBX 19 24 -2 0
BITMAP
00BF000000
00BF000000
7FFFFD0000
7FFFFD0000
6AFFA80000
00BF000000
00BF000000
00BF001FF0
00BF003FD0
00BF00BF80
00BF01FE00
00BF07FC00
00BF0FF400
00BFFFD000
00BFFFC000
00BFFFE000
00BF0FF400
00BF07FC00
00BF02FE00
00BF00FF40
00BF007FC0
00BF002FE0
00BF001FF4
00BF000BF8
ENDCHAR
STARTCHAR uni04A0
ENCODING 1184
SWIDTH 822 0
DWIDTH 26 0
BBX 27 23 0 0
BITMAP
7FFFFF00007FE0
7FFFFF0000FF80
7FFFFF0002FF00
0000BF0007FD00
0000BF000FF800
0000BF002FF000
0000BF007FD000
0000BF00FF8000
0000BF02FF0000
0000BF07FD0000
0000BFFFF80000
0000BFFFF40000
0000BFFFFC0000
0000BF97FE0000
0000BF01FF4000
0000BF00BFC000
0000BF003FE000
0000BF001FF800
0000BF0007FD00
0000BF0002FF00
0000BF0000FF80
0000BF00007FD0
0000BF00002FF4
ENDCHAR
STARTCHAR uni04A1
ENCODING 1185
SWIDTH 705 0
DWIDTH 23 0
BBX 22 17 1 0
BITMAP
FFFFF000FF80
FFFFF002FF00
FFFFF007FD00
000BF00FF800
000BF02FE000
000BF07FC000
000BF0FF4000
000BFFFE0000
000BFFFD0000
000BFFFE0000
000BF9FF8000
000BF07FD000
000BF02FF400
000BF00BFC00
000BF003FE00
000BF001FF40
000BF000BFD0
ENDCHAR
STARTCHAR uni04A2
ENCODING 1186
SWIDTH 769 0
DWIDTH 25 0
BBX 22 28 2 -5
BITMAP
BF40000BF400
BF40000BF400
BF40000BF400
BF40000BF400
BF40000BF400
BF40000BF400
BF40000BF400
BF40000BF400
BF40000BF400
BF40000BF400
BFFFFFFFF400
BFFFFFFFF400
BFFFFFFFF400
BF55555BF400
BF40000BF400
BF40000BF400
BF40000BF400
BF40000BF400
BF40000BF400
BF40000BF400
BF40000BFFD0
BF40000BFFD0
BF40000BFFD0
000000001FD0
000000001FD0
000000001FD0
000000001FD0
000000001FD0
ENDCHAR
STARTCHAR uni04A3
ENCODING 1187
SWIDTH 631 0
DWIDTH 20 0
BBX 18 22 2 -5
BITMAP
FF000BF400
FF000BF400
FF000BF400
FF000BF400
FF000BF400
FF000BF400
FF000BF400
FFFFFFF400
FFFFFFF400
FFFFFFF400
FF000BF400
FF000BF400
FF000BF400
FF000BF400
FF000BFFD0
FF000BFFD0
FF000BFFD0
0000001FD0
0000001FD0
0000001FD0
0000001FD0
0000001FD0
ENDCHAR
STARTCHAR uni04A4
ENCODING 1188
SWIDTH 976 0
DWIDTH 31 0
BBX 28 23 2 0
BITMAP
BF40000BFFFFFF
BF40000BFFFFFF
BF40000BFFFFFF
BF40000BF40000
BF40000BF40000
BF40000BF40000
BF40000BF40000
BF40000BF40000
BF40000BF40000
BF40000BF40000
BFFFFFFFF40000
BFFFFFFFF40000
BFFFFFFFF40000
BF55555BF40000
BF40000BF40000
BF40000BF40000
BF40000BF40000
BF40000BF40000
BF40000BF40000
BF40000BF40000
BF40000BF40000
BF40000BF40000
BF40000BF40000
ENDCHAR
STARTCHAR uni04A5
ENCODING 1189
SWIDTH 708 0
DWIDTH 23 0
BBX 20 17 2 0
BITMAP
FE000BFFFE
FE000BFFFE
FE000BFFFE
FE000BF400
FE000BF000
FE000BF000
FE000BF000
FFFFFFF000
FFFFFFF000
FFFFFFF000
FE000BF000
FE000BF000
FE000BF000
FE000BF000
FE000BF000
FE000BF000
FE000BF000
ENDCHAR
STARTCHAR uni04A6
ENCODING 1190
SWIDTH 1034 0
DWIDTH 33 0
BBX 30 28 2 -5
BITMAP
BFFFFFFFF4000000
BFFFFFFFF4000000
BFFFFFFFF4000000
BF55555BF4000000
BF40000BF4000000
BF40000BF4000000
BF40000BF4000000
BF40000BF4000000
BF40000BF4000000
BF40000BF4000000
BF40000BFFFA4000
BF40000BFFFFE400
BF40000BFFFFFD00
BF40000BF417FF40
BF40000BF400BF80
BF40000BF4003FC0
BF40000BF4001FD0
BF40000BF4001FE0
BF40000BF4000FE0
BF40000BF4000FE0
BF40000BF4000FE0
BF40000BF4001FE0
BF40000BF4002FD0
0000000000003FC0
000000000001FF40
00000000001FFE00
00000000001FF800
00000000001F9000
ENDCHAR
STARTCHAR uni04A7
ENCODING 1191
SWIDTH 869 0
DWIDTH 28 0
BBX 25 21 2 -4
BITMAP
FFFFFFF0000000
FFFFFFF0000000
FFFFFFF0000000
FE000BF0000000
FE000BF0000000
FE000BF0000000
FE000BFFFA4000
FE000BFFFFE000
FE000BFFFFFC00
FE000BF45BFE00
FE000BF001FF40
FE000BF0007F80
FE000BF0003F80
FE000BF0003FC0
FE000BF0003F80
FE000BF0007F80
FE000BF000BF40
0000000002FE00
000000000FFC00
000000000BE000
00000000064000
ENDCHAR
STARTCHAR uni04A8
ENCODING 1192
SWIDTH 770 0
DWIDTH 25 0
BBX 23 23 1 0
BITMAP
001B406FE000
00FF42FFFD00
03FF47FFFF40
0BFD0FF9BFC0
1FF02FD02FD0
2FD03FC00FE0
3FC03F800FF0
7FC03F800BF0
7F807F800BF0
7F807F800BF4
7F807F800BF4
7F807F800BF4
7F803F800BF0
7F803F800FF0
7FC02FC00FF0
3FD02FD01FE0
2FE00FF03FD0
1FF407FCBF80
0BFD02FFFF00
03FF95FFFE40
00FFFFFFFFF4
002FFFFFFFF4
0001BFE51AF4
ENDCHAR
STARTCHAR uni04A9
ENCODING 1193
SWIDTH 624 0
DWIDTH 20 0
BBX 18 17 1 0
BITMAP
00B80BE400
07F87FFE00
0FF8FFFF40
2FE1FD7FC0
3FC2F82FD0
7F82F41FD0
7F43F41FE0
7F43F41FE0
7F43F41FE0
7F82F81FE0
7F82F82FD0
3FC1FD3FC0
2FE0BFFF80
0FFD7FFF00
07FFFFFFA0
01BFFFFFF0
001BFA16F0
ENDCHAR
STARTCHAR uni04AA
ENCODING 1194
SWIDTH 652 0
DWIDTH 21 0
BBX 19 29 1 -6
BITMAP
0006FF9000
007FFFFD00
01FFFFFF40
07FE55BFD0
0FF8002FE0
1FE0000FF0
2FD0000BF4
3FC00006A4
7F80000000
7F80000000
7F80000000
7F80000000
7F80000000
7F80000000
7F80000000
3FC00006A4
3FD0000BF4
1FE0000FF4
0FF4002FE0
07FE55BFD0
02FFFFFF40
007FFFFD00
0007FF9000
0001FE0000
0001FE0000
0001FE0000
0001FE0000
0001FE0000
0001FE0000
ENDCHAR
STARTCHAR uni04AB
ENCODING 1195
SWIDTH 523 0
DWIDTH 17 0
BBX 15 23 1 -6
BITMAP
006FF900
02FFFF80
0BFFFFE0
2FE41FF4
3FC007F8
7F4003F8
BF400050
BF000000
BF000000
BF000000
BF400000
7F4002A8
3FC007F8
2FE41FF4
0FFFFFD0
02FFFF40
007FF800
001FD000
001FD000
001FD000
001FD000
001FD000
001FD000
ENDCHAR
STARTCHAR uni04AC
ENCODING 1196
SWIDTH 606 0
DWIDTH 19 0
BBX 19 28 0 -5
BITMAP
7FFFFFFFF8
7FFFFFFFF8
7FFFFFFFF8
1555FE5550
0001FE0000
0001FE0000
0001FE0000
0001FE0000
0001FE0000
0001FE0000
0001FE0000
0001FE0000
0001FE0000
0001FE0000
0001FE0000
0001FE0000
0001FE0000
0001FE0000
0001FE0000
0001FE0000
0001FFF400
0001FFF400
0001FFF400
000007F400
000007F400
000007F400
000007F400
000007F400
ENDCHAR
STARTCHAR uni04AD
ENCODING 1197
SWIDTH 494 0
DWIDTH 16 0
BBX 16 22 0 -5
BITMAP
7FFFFFFD
7FFFFFFD
7FFFFFFD
000FE000
000FE000
000FE000
000FE000
000FE000
000FE000
000FE000
000FE000
000FE000
000FE000
000FE000
000FFF80
000FFF80
000FFF80
00003F80
00003F80
00003F80
00003F80
00003F80
ENDCHAR
STARTCHAR uni04AE
ENCODING 1198
SWIDTH 609 0
DWIDTH 20 0
BBX 19 23 0 0
BITMAP
BF800007FC
3FD0000BF8
2FE0001FF0
0FF4002FE0
0BF8007FC0
03FC00BF40
01FE00FF00
00FF02FD00
007F83FC00
003FCBF400
001FEFE000
000FFFD000
0007FF8000
0002FF4000
0001FE0000
0001FE0000
0001FE0000
0001FE0000
0001FE0000
0001FE0000
0001FE0000
0001FE0000
0001FE0000
ENDCHAR
STARTCHAR uni04AF
ENCODING 1199
SWIDTH 506 0
DWIDTH 16 0
BBX 16 24 0 -7
BITMAP
7F8001FE
3FC002FD
2FD003FC
1FE003F8
0FE007F4
0BF00BF0
07F40FE0
03F81FD0
02FC2FC0
01FD3F80
00FE7F40
00BFBF00
003FFE00
002FFC00
001FF800
000FF400
000BF000
000BF000
000BF000
000BF000
000BF000
000BF000
000BF000
000BF000
ENDCHAR
STARTCHAR uni04B0
ENCODING 1200
SWIDTH 609 0
DWIDTH 20 0
BBX 19 23 0 0
BITMAP
BF800007FC
3FD0000BF8
2FE0001FF0
0FF4002FD0
07F8007FC0
03FC00BF40
01FE00FF00
00FF02FD00
007F83F800
002FCBF400
001FEFE000
000BFFD000
007FFFFC00
007FFFFC00
006AFFA800
0001FE0000
0001FE0000
0001FE0000
0001FE0000
0001FE0000
0001FE0000
0001FE0000
0001FE0000
ENDCHAR
STARTCHAR uni04B1
ENCODING 1201
SWIDTH 506 0
DWIDTH 16 0
BBX 16 24 0 -7
BITMAP
7F8001FE
3FC002FD
2FD003FC
1FE007F8
0FF007F4
0BF00BF0
07F40FE0
03F81FD0
01FC2F80
00FD3F40
00BE7F00
007FBE00
003FFD00
002FFC00
02AFFE90
03FFFFE0
03FFFFE0
000BF000
000BF000
000BF000
000BF000
000BF000
000BF000
000BF000
ENDCHAR
STARTCHAR uni04B2
ENCODING 1202
SWIDTH 652 0
DWIDTH 21 0
BBX 20 28 1 -5
BITMAP
FF80001FF4
7FD0003FE0
2FE000BFC0
0FF400FF40
07FC02FE00
03FE07FD00
01FF0BF800
00BF9FF000
003FFFD000
001FFF8000
000FFF4000
0007FE0000
000FFF4000
002FFFC000
007FFFD000
00BF9FF000
01FF0BF800
03FD07FD00
0BFC02FF00
1FF400FF80
2FE0007FFE
7FC0002FFE
FF80001FFE
00000001FE
00000001FE
00000001FE
00000001FE
00000001FE
ENDCHAR
STARTCHAR uni04B3
ENCODING 1203
SWIDTH 534 0
DWIDTH 17 0
BBX 17 22 0 -5
BITMAP
3FC003FC00
1FE00BF800
0BF41FF000
07F82FD000
02FD7F8000
00FFFF0000
007FFD0000
002FF80000
001FF40000
003FFC0000
007FFE0000
00FFBF4000
02FD7F8000
07F82FD000
0FF00FFF80
2FE007FF80
7FC003FF80
0000007F80
0000007F80
0000007F80
0000007F80
0000007F80
ENDCHAR
STARTCHAR uni04B4
ENCODING 1204
SWIDTH 898 0
DWIDTH 29 0
BBX 27 28 0 -5
BITMAP
7FFFFFFE00BF00
7FFFFFFE00BF00
7FFFFFFE00BF00
000BF40000BF00
000BF00000BF00
000BF00000BF00
000BF00000BF00
000BF00000BF00
000BF00000BF00
000BF00000BF00
000BF00000BF00
000BF00000BF00
000BF00000BF00
000BF00000BF00
000BF00000BF00
000BF00000BF00
000BF00000BF00
000BF00000BF00
000BF00000BF00
000BF40000FF50
000BFFFFFFFFFC
000BFFFFFFFFF8
000BFFFFFFFFF8
000000000003F8
000000000003F8
000000000003F8
000000000003F8
000000000003F8
ENDCHAR
STARTCHAR uni04B5
ENCODING 1205
SWIDTH 679 0
DWIDTH 22 0
BBX 21 22 0 -5
BITMAP
7FFFFE07F800
7FFFFE07F800
7FFFFE07F800
00BF4007F800
00BF4007F800
00BF4007F800
00BF4007F800
00BF4007F800
00BF4007F800
00BF4007F800
00BF4007F800
00BF4007F800
00BF4007F800
00BF4007F800
00BFFFFFFFC0
00BFFFFFFFC0
00BFFFFFFF80
000000003F80
000000003F80
000000003F80
000000003F80
000000003F80
ENDCHAR
STARTCHAR uni04B6
ENCODING 1206
SWIDTH 747 0
DWIDTH 24 0
BBX 21 28 2 -5
BITMAP
BF00001FE000
BF00001FE000
BF00001FE000
BF00001FE000
BF00001FE000
BF00001FE000
BF00001FE000
BF40001FE000
BF40001FE000
7F80001FE000
3FE4016FE000
1FFFFFFFE000
07FFFFFFE000
00BFFFAFE000
0000001FE000
0000001FE000
0000001FE000
0000001FE000
0000001FE000
0000001FE000
0000001FFF80
0000001FFF80
0000001FFF80
000000003F80
000000003F80
000000003F80
000000003F80
000000003F80
ENDCHAR
STARTCHAR uni04B7
ENCODING 1207
SWIDTH 607 0
DWIDTH 19 0
BBX 18 22 1 -5
BITMAP
BF4007F800
BF4007F800
BF4007F800
BF4007F800
BF4007F800
7F4007F800
7F8007F800
3FE007F800
2FFFFFF800
0BFFFFF800
01BFFFF800
000007F800
000007F800
000007F800
000007FFE0
000007FFE0
000007FFE0
0000001FE0
0000001FE0
0000001FE0
0000001FE0
0000001FE0
ENDCHAR
STARTCHAR uni04B8
ENCODING 1208
SWIDTH 681 0
DWIDTH 22 0
BBX 18 23 2 0
BITMAP
FF00001FE0
FF00001FE0
FF00001FE0
FF00001FE0
FF00001FE0
FF00001FE0
FF00A41FE0
FF01F41FE0
FF01F41FE0
BF81F41FE0
7FE5F56FE0
2FFFFFFFE0
0BFFFFFFE0
01BFFFAFE0
0001F41FE0
0001F41FE0
0001F41FE0
0001A41FE0
0000001FE0
0000001FE0
0000001FE0
0000001FE0
0000001FE0
ENDCHAR
STARTCHAR uni04B9
ENCODING 1209
SWIDTH 556 0
DWIDTH 18 0
BBX 15 17 1 0
BITMAP
7F8003F8
7F8003F8
7F8003F8
7F8143F8
7F87D3F8
3F87D3F8
3FC7D3F8
2FE7D3F8
1FFFFFF8
07FFFFF8
01BFFFF8
0007D3F8
0007D3F8
000143F8
000003F8
000003F8
000003F8
ENDCHAR
STARTCHAR uni04BA
ENCODING 1210
SWIDTH 690 0
DWIDTH 22 0
BBX 18 23 2 0
BITMAP
FF00000000
FF00000000
FF00000000
FF00000000
FF00000000
FF00000000
FF00000000
FF00000000
FF6BFE9000
FFFFFFF800
FFFFFFFF00
FFA556FF80
FF00003FC0
FF00002FD0
FF00001FD0
FF00001FE0
FF00001FE0
FF00001FE0
FF00001FE0
FF00001FE0
FF00001FE0
FF00001FE0
FF00001FE0
ENDCHAR
STARTCHAR uni04BB
ENCODING 1211
SWIDTH 555 0
DWIDTH 18 0
BBX 14 24 2 0
BITMAP
FE000000
FE000000
FE000000
FE000000
FE000000
FE000000
FE000000
FE1BF900
FEBFFF40
FFFFFFC0
FFD57FD0
FF401FE0
FE000FE0
FE000FF0
FE000FF0
FE000FF0
FE000FF0
FE000FF0
FE000FF0
FE000FF0
FE000FF0
FE000FF0
FE000FF0
FE000FF0
ENDCHAR
STARTCHAR uni04BC
ENCODING 1212
SWIDTH 767 0
DWIDTH 25 0
BBX 23 23 0 0
BITMAP
000002BF9000
00002FFFFD00
0000BFFFFF40
0002FF96FFC0
0007FD002FE0
000BF4000FF0
680FF00007F4
BD1FE00007F8
7E2FD00003F8
3FAFD00003FC
1FFFFFFFFFFC
0BFFFFFFFFFC
01BFFFFFFFFC
002FD0000000
002FD0000000
001FE0000000
001FE0000000
000FF4000000
0007FD000040
0002FFE55BC0
0000BFFFFFD0
00002FFFFFD0
000001BFF940
ENDCHAR
STARTCHAR uni04BD
ENCODING 1213
SWIDTH 595 0
DWIDTH 19 0
BBX 20 17 -1 0
BITMAP
00006FF900
0002FFFF80
000BFFFFE0
541FF41FF0
BC3FD007F8
BD7F8002FC
7FBF4002FC
2FFFFFFFFC
0BFFFFFFFD
00BFAAAAA8
00BF400000
007F800000
003FD00090
002FF806F4
000BFFFFF4
0002FFFFD0
00002BF900
ENDCHAR
STARTCHAR uni04BE
ENCODING 1214
SWIDTH 767 0
DWIDTH 25 0
BBX 23 29 0 -6
BITMAP
000002BF9000
00002FFFFD00
0000BFFFFF40
0002FF96FFC0
0007FD002FE0
000BF4000FF0
680FF00007F4
BD1FE00007F8
7E2FD00003F8
3FAFD00003FC
1FFFFFFFFFFC
0BFFFFFFFFFC
01BFFFFFFFFC
002FD0000000
002FD0000000
001FE0000000
001FE0000000
000FF4000000
0007FD000040
0002FFE55BC0
0000BFFFFFD0
00002FFFFFD0
000001BFF940
0000003FC000
0000003FC000
0000003FC000
0000003FC000
0000003FC000
0000003FC000
ENDCHAR
STARTCHAR uni04BF
ENCODING 1215
SWIDTH 595 0
DWIDTH 19 0
BBX 20 23 -1 -6
BITMAP
00006FF900
0002FFFF80
000BFFFFE0
541FF41FF0
BC3FD007F8
BD7F8002FC
7FBF4002FC
2FFFFFFFFC
0BFFFFFFFD
00BFAAAAA8
00BF400000
007F800000
003FD00090
002FF806F4
000BFFFFF4
0002FFFFD0
00002FF900
00000BF000
00000BF000
00000BF000
00000BF000
00000BF000
00000BF000
ENDCHAR
STARTCHAR uni04C0
ENCODING 1216
SWIDTH 282 0
DWIDTH 9 0
BBX 5 23 2 0
BITMAP
7F40
7F40
7F40
7F40
7F40
7F40
7F40
7F40
7F40
7F40
7F40
7F40
7F40
7F40
7F40
7F40
7F40
7F40
7F40
7F40
7F40
7F40
7F40
ENDCHAR
STARTCHAR uni04C1
ENCODING 1217
SWIDTH 954 0
DWIDTH 31 0
BBX 30 28 0 0
BITMAP
00000BD02F400000
000007F57F000000
000002FFFD000000
0000006FE4000000
0000000000000000
3FF0002FD0003FE0
1FF4002FD000BFC0
0BFC002FD001FF40
03FE002FD002FE00
01FF002FD007FD00
00BF802FD00BF800
007FC02FD01FF000
002FE02FD03FD000
000FF42FD07F8000
0007F82FD0FF0000
0002FFFFFFFE0000
0002FFFFFFFD0000
0007FFFFFFFF0000
000BF96FE5FF8000
001FF42FD07FD000
003FE02FD02FE000
00BFC02FD01FF400
01FF402FD00BFC00
03FF002FD003FE00
07FD002FD002FF40
0FF8002FD000FFC0
2FF0002FD0007FE0
7FE0002FD0002FF0
ENDCHAR
STARTCHAR uni04C2
ENCODING 1218
SWIDTH 807 0
DWIDTH 26 0
BBX 25 23 0 0
BITMAP
0000FC03F00000
0000BE5BE00000
00003FFFC00000
00000BFE000000
00000000000000
00000000000000
3FE003F800BF80
1FF403F801FF40
0BF803F803FE00
03FD03F807FC00
01FF03F80FF400
00BF43F82FE000
007FC3F83FC000
002FFFFFFF4000
000FFFFFFF0000
002FFFFFFF8000
007FD7FD7FD000
00FF43F82FE000
02FE03F80FF400
07FD03F807FC00
0FF803F802FE00
2FF003F801FF40
7FD003F800BFC0
ENDCHAR
STARTCHAR uni04C3
ENCODING 1219
SWIDTH 641 0
DWIDTH 21 0
BBX 18 28 2 -5
BITMAP
BF4000BFD0
BF4001FF40
BF4007FE00
BF400FF800
BF402FF000
BF407FD000
BF41FF4000
BF43FE0000
BF4BF80000
BFFFF90000
BFFFFFD000
BFFFFFF800
BFAAAFFE00
BF4001FF40
BF40007FC0
BF40003FD0
BF40002FD0
BF40001FE0
BF40001FE0
BF40001FE0
BF40001FE0
BF40002FD0
BF40002FD0
0000007F80
000001FF40
00001FFE00
00001FF800
00001E8000
ENDCHAR
ENDFONT
